<?xml version="1.0" encoding="utf-8"?>
<!-- Generator: Adobe Illustrator 27.5.0, SVG Export Plug-In . SVG Version: 6.00 Build 0)  -->
<svg version="1.1" xmlns="http://www.w3.org/2000/svg" xmlns:xlink="http://www.w3.org/1999/xlink" x="0px" y="0px"
	 viewBox="0 0 500 500" style="enable-background:new 0 0 500 500;" xml:space="preserve">
<g id="Background_complete">
	<rect x="101.209" y="349.205" style="fill:#F5F5F5;" width="35.561" height="14.767"/>
	<rect x="363.645" y="349.205" style="fill:#F5F5F5;" width="35.561" height="14.767"/>
	<g>
		<g>
			<g>
				<path style="fill:#E0E0E0;" d="M69.876,437.972c-0.014-0.442-1.503-44.382-8.65-51.331c-6.951-6.757-14.93-0.251-15.265,0.028
					l-0.717-0.859c0.09-0.077,9.094-7.426,16.762,0.028c7.468,7.262,8.929,50.271,8.988,52.098L69.876,437.972z"/>
			</g>
			<g>
				<path style="fill:#E0E0E0;" d="M70.489,446.607c-0.051-0.525-4.885-52.749,14.188-74.637l0.843,0.734
					c-18.756,21.526-13.968,73.274-13.918,73.794L70.489,446.607z"/>
			</g>
			<g>
				<path style="fill:#E0E0E0;" d="M69.784,441.083l-1.116-0.074c0.039-0.592,3.733-59.371-10.257-72.238l0.757-0.824
					C73.549,381.176,69.945,438.643,69.784,441.083z"/>
			</g>
			<g>
				<path style="fill:#E0E0E0;" d="M71.605,441.05l-1.118-0.009c0.014-1.619,0.461-39.703,11.28-45.902
					c2.405-1.38,4.76-1.609,6.999-0.683c6.541,2.706,9.783,14.347,9.918,14.841l-1.079,0.295
					c-0.032-0.116-3.232-11.608-9.267-14.103c-1.902-0.785-3.925-0.578-6.015,0.619C72.057,401.992,71.608,440.66,71.605,441.05z"/>
			</g>
			<g>
				<path style="fill:#E0E0E0;" d="M67.392,441.078l-1.116-0.063c0.017-0.301,1.632-30.095-6.409-40.593
					c-1.948-2.543-4.063-3.756-6.298-3.6c-5.269,0.368-9.687,8.078-9.731,8.156l-0.974-0.55c0.192-0.339,4.756-8.31,10.625-8.721
					c2.626-0.187,5.073,1.173,7.265,4.035C69.048,410.568,67.464,439.838,67.392,441.078z"/>
			</g>
			<g>
				<path style="fill:#E0E0E0;" d="M69.155,445.13c-0.219-2.891-5.257-70.922,3.607-82.91l0.899,0.664
					c-8.618,11.657-3.444,81.457-3.391,82.161L69.155,445.13z"/>
			</g>
		</g>
		<g>
			<path style="fill:#EBEBEB;" d="M91.176,401.351c0,0-5.317,1.96-3.736,6.588c1.581,4.628,18.395,12.245,18.395,12.245
				s7.042-6.454,0.575-16.952C99.942,392.735,91.32,398.04,91.176,401.351z"/>
		</g>
		<g>
			<path style="fill:#EBEBEB;" d="M68.06,392.542c0,0,5.662-0.237,5.984,4.643c0.322,4.88-12.266,18.38-12.266,18.38
				s-8.983-3.248-7.054-15.425C56.653,387.962,66.653,389.54,68.06,392.542z"/>
		</g>
		<g>
			<path style="fill:#EBEBEB;" d="M63.266,369.182c0,0,3.775-0.405,3.471-2.705c-0.304-2.299-14.675-8.217-23.154,1.352
				c0,0,5.429,9.326,13.277,9.448C64.709,377.4,63.266,369.182,63.266,369.182z"/>
		</g>
		<g>
			<path style="fill:#EBEBEB;" d="M70.301,363.598c0,0-3.418,1.653-4.376-0.46c-0.958-2.112,8.108-14.736,20.366-11.098
				c0,0,0.325,10.786-6.271,15.04C73.422,371.336,70.301,363.598,70.301,363.598z"/>
		</g>
		<g>
			<path style="fill:#EBEBEB;" d="M52.427,399.491c0,0,2.605-2.103-0.206-3.13c-2.812-1.027-16.608-0.735-16.752,12.931
				c0,0,16.068,2.67,18.057-2.535C55.515,401.551,52.427,399.491,52.427,399.491z"/>
		</g>
		<g>
			<path style="fill:#EBEBEB;" d="M85.193,368.84c0,0-2.605-2.103,0.206-3.13c2.812-1.027,16.608-0.735,16.752,12.931
				c0,0-16.068,2.671-18.057-2.535C82.105,370.899,85.193,368.84,85.193,368.84z"/>
		</g>
		<g>
			<path style="fill:#EBEBEB;" d="M76.699,379.849c0,0-0.229-2.557,1.835-1.555c2.065,1.002,9.257,8.762,1.801,16.124
				c0,0-10.036-7.433-8.227-11.303C73.918,379.244,76.699,379.849,76.699,379.849z"/>
		</g>
		<g>
			<path style="fill:#EBEBEB;" d="M50.098,383.492c0,0,1.557-2.041-0.723-2.294c-2.281-0.253-12.503,2.475-10.122,12.68
				c0,0,12.453-0.936,12.987-5.175C52.773,384.465,50.098,383.492,50.098,383.492z"/>
		</g>
		<polygon style="fill:#F0F0F0;" points="93.255,478.929 50.526,478.929 45.916,432.147 97.865,432.147 		"/>
		<rect x="42.55" y="426.986" style="fill:#E6E6E6;" width="56.511" height="10.323"/>
	</g>
	<g>
		<g>
			<rect x="104.982" y="278.316" style="fill:#E0E0E0;" width="289.187" height="9.031"/>
			<rect x="120.478" y="287.173" style="fill:#E0E0E0;" width="258.196" height="41.723"/>
			<rect x="120.88" y="328.895" style="fill:#E0E0E0;" width="11.024" height="152.022"/>
			<rect x="156.272" y="328.895" style="fill:#E0E0E0;" width="11.024" height="152.022"/>
			<rect x="365.182" y="328.895" style="fill:#E0E0E0;" width="11.024" height="152.022"/>
			<rect x="336.314" y="328.895" style="fill:#E0E0E0;" width="11.024" height="152.022"/>
			<rect x="128.457" y="390.652" style="fill:#E0E0E0;" width="242.237" height="7.105"/>
			<rect x="156.272" y="288.007" style="fill:#EBEBEB;" width="217.079" height="35.006"/>
		</g>
		<rect x="343.37" y="264.496" style="fill:#EBEBEB;" width="26.169" height="13.821"/>
		<g>
			<rect x="321.628" y="255.154" style="fill:#E6E6E6;" width="15.022" height="23.162"/>
			<rect x="326.662" y="250.754" style="fill:#E6E6E6;" width="4.953" height="4.735"/>
		</g>
		<g>
			<rect x="152.786" y="255.154" style="fill:#E6E6E6;" width="15.022" height="23.162"/>
			<rect x="157.82" y="250.754" style="fill:#E6E6E6;" width="4.953" height="4.735"/>
		</g>
		<g>
			<rect x="134.876" y="262.439" style="fill:#E6E6E6;" width="10.297" height="15.877"/>
			<rect x="138.327" y="259.423" style="fill:#E6E6E6;" width="3.395" height="3.246"/>
		</g>
	</g>
	<g>
		<g>
			<g>
				<g>
					<g>
						<path style="fill:#E0E0E0;" d="M443.92,330.198H263.174c-3.232,0-5.862-2.63-5.862-5.862V61.062
							c0-3.232,2.63-5.862,5.862-5.862H443.92c3.232,0,5.862,2.629,5.862,5.862v263.273
							C449.783,327.568,447.153,330.198,443.92,330.198z M263.174,55.45c-3.095,0-5.612,2.518-5.612,5.612v263.273
							c0,3.095,2.518,5.612,5.612,5.612H443.92c3.095,0,5.612-2.518,5.612-5.612V61.062c0-3.094-2.518-5.612-5.612-5.612H263.174z"
							/>
					</g>
				</g>
				<g>
					<g>
						<path style="fill:#E0E0E0;" d="M235.493,330.198H54.746c-3.232,0-5.862-2.63-5.862-5.862V61.062
							c0-3.232,2.629-5.862,5.862-5.862h180.747c3.232,0,5.862,2.629,5.862,5.862v263.273
							C241.355,327.568,238.725,330.198,235.493,330.198z M54.746,55.45c-3.094,0-5.612,2.518-5.612,5.612v263.273
							c0,3.095,2.518,5.612,5.612,5.612h180.747c3.095,0,5.612-2.518,5.612-5.612V61.062c0-3.094-2.518-5.612-5.612-5.612H54.746z"
							/>
					</g>
				</g>
			</g>
			<g>
				<g>
					<rect x="0" y="391.267" style="fill:#E0E0E0;" width="500" height="0.25"/>
				</g>
			</g>
		</g>
		<rect x="51.672" y="405.531" style="fill:#E0E0E0;" width="16.06" height="0.25"/>
		<rect x="170.352" y="402.821" style="fill:#E0E0E0;" width="53.53" height="0.25"/>
		<rect x="68.732" y="414.821" style="fill:#E0E0E0;" width="36.25" height="0.25"/>
		<rect x="378.352" y="402.691" style="fill:#E0E0E0;" width="43.19" height="0.25"/>
		<rect x="430.452" y="402.691" style="fill:#E0E0E0;" width="6.33" height="0.25"/>
		<rect x="316.212" y="408.921" style="fill:#E0E0E0;" width="53.89" height="0.25"/>
	</g>
	<g>
		<rect x="416.258" y="75.293" style="fill:#E6E6E6;" width="35.561" height="14.767"/>
		<rect x="434.039" y="90.059" style="fill:#F5F5F5;" width="35.561" height="14.767"/>
	</g>
	<g>
		<rect x="209.983" y="103.181" style="fill:#E6E6E6;" width="35.562" height="14.767"/>
		<rect x="227.763" y="117.948" style="fill:#F5F5F5;" width="35.561" height="14.767"/>
	</g>
	<g>
		<rect x="423.112" y="249.729" style="fill:#E6E6E6;" width="35.561" height="14.767"/>
		<rect x="440.892" y="264.496" style="fill:#F5F5F5;" width="35.561" height="14.767"/>
	</g>
	<g>
		<rect x="45.315" y="238.355" style="fill:#E6E6E6;" width="35.561" height="14.767"/>
		<rect x="63.096" y="253.122" style="fill:#F5F5F5;" width="35.561" height="14.767"/>
	</g>
	<rect x="386.229" y="171.485" style="fill:#F5F5F5;" width="30.368" height="12.61"/>
	<rect x="141.76" y="33.909" style="fill:#F5F5F5;" width="30.368" height="12.61"/>
</g>
<g id="Background_simple" style="display:none;">
	<g style="display:inline;">
		<path style="fill:#407BFF;" d="M411.783,310.572c-4.621-12.607-14.034-24.622-28.559-35.102
			c-17.119-12.351-43.592-24.713-77.615-19.863c-62.812,8.955-62.977,43.281-105.545,37.648
			c-48.217-6.381-104.366,0.434-119.025,35.685c-27.841,66.954,148.438,141.876,243.4,116.693
			C383.56,429.957,436.318,377.514,411.783,310.572z"/>
		<path style="opacity:0.9;fill:#FFFFFF;" d="M411.783,310.572c-4.621-12.607-14.034-24.622-28.559-35.102
			c-17.119-12.351-43.592-24.713-77.615-19.863c-62.812,8.955-62.977,43.281-105.545,37.648
			c-48.217-6.381-104.366,0.434-119.025,35.685c-27.841,66.954,148.438,141.876,243.4,116.693
			C383.56,429.957,436.318,377.514,411.783,310.572z"/>
	</g>
</g>
<g id="Shadow">
	<g>
		<g>
			<path style="fill:#F5F5F5;" d="M458.875,481.529c0,3.387-93.517,6.132-208.875,6.132s-208.875-2.746-208.875-6.132
				c0-3.387,93.516-6.132,208.875-6.132S458.875,478.142,458.875,481.529z"/>
		</g>
	</g>
</g>
<g id="Plant">
	<g>
		<g>
			<g>
				<path style="fill:#407BFF;" d="M432.257,319.898c-16.83,19.686-21.745,48.827-12.304,72.945
					c10.49-9.362,17.877-23.633,18.344-36.115C438.764,344.246,435.497,331.961,432.257,319.898z"/>
			</g>
			<g>
				<path style="fill:#407BFF;" d="M429.321,395.118c-5.711,8.75-8.444,19.405-7.651,29.824
					c9.098-3.168,17.119-13.445,21.927-21.793c4.809-8.348,7.497-17.724,9.944-27.042
					C443.685,379.576,435.031,386.368,429.321,395.118z"/>
			</g>
			<path style="fill:#263238;" d="M427.194,354.269c-6.771,24.335-10.218,49.579-10.186,74.84c0.009,7.139,0.3,14.275,0.857,21.392
				c0.037,0.478,0.788,0.482,0.75,0c-1.967-25.118-0.514-50.481,4.354-75.203c1.379-7.005,3.035-13.952,4.948-20.829
				C428.047,354.003,427.323,353.804,427.194,354.269L427.194,354.269z"/>
			<path style="fill:#263238;" d="M418.111,433.181c6.908-16.441,15.987-31.841,26.482-46.238c0.285-0.391-0.366-0.765-0.648-0.379
				c-10.536,14.454-19.622,29.912-26.557,46.417C417.201,433.426,417.927,433.62,418.111,433.181L418.111,433.181z"/>
			<g>
				<path style="fill:#407BFF;" d="M408.287,408.752c4.762,7.296,7.041,16.181,6.38,24.868
					c-7.586-2.641-14.274-11.211-18.284-18.171c-4.01-6.961-6.251-14.779-8.291-22.549
					C396.31,395.792,403.526,401.456,408.287,408.752z"/>
			</g>
			<path style="fill:#263238;" d="M417.906,439.37c-5.668-13.482-13.155-25.978-21.759-37.781c-0.282-0.386-0.933-0.012-0.648,0.379
				c8.562,11.746,16.042,24.184,21.683,37.602C417.367,440.007,418.093,439.815,417.906,439.37L417.906,439.37z"/>
			<path style="fill:#263238;" d="M418.164,443.875c10.706-11.014,21.637-21.806,32.343-32.821c0.337-0.346-0.193-0.877-0.53-0.53
				c-10.706,11.014-21.637,21.807-32.343,32.821C417.297,443.691,417.827,444.222,418.164,443.875L418.164,443.875z"/>
			<g>
				<path style="fill:#407BFF;" d="M450.889,405.973c-9.288,8.958-17.751,18.771-25.245,29.276l1.699,0
					c7.069-0.332,13.932-3.819,18.368-9.334C450.147,420.401,452.082,412.949,450.889,405.973z"/>
			</g>
			<g>
				<path style="fill:#263238;" d="M406.897,384.625c3.988,6.522,7.746,13.182,11.266,19.968c0.222,0.429,0.87,0.05,0.648-0.379
					c-3.52-6.786-7.278-13.446-11.266-19.968C407.293,383.836,406.644,384.212,406.897,384.625L406.897,384.625z"/>
				<g>
					<path style="fill:#407BFF;" d="M397.304,351.681c-1.521,6.841-3.029,15.738-3.045,22.862
						c-0.016,7.124,2.158,14.075,6.206,18.848c4.048,4.774,12.22,6.865,15.514,4.133L397.304,351.681z"/>
				</g>
			</g>
		</g>
		<rect x="397.096" y="447.035" style="fill:#263238;" width="41.344" height="7.52"/>
		<polygon style="fill:#263238;" points="431.099,481.344 405.904,481.344 401.325,452.832 434.716,452.832 		"/>
		<polygon style="opacity:0.2;" points="401.624,454.694 434.48,454.694 434.07,457.922 402.143,457.922 		"/>
	</g>
</g>
<g id="Mirror_2">
	<g id="freepik--Mirror--inject-2">
		<rect x="394.169" y="103.028" style="fill:#407BFF;" width="0.849" height="5.754"/>
		<rect x="394.169" y="83.975" style="fill:#407BFF;" width="0.849" height="14.521"/>
		<rect x="279.061" y="57.253" style="fill:#407BFF;" width="112.986" height="185.343"/>
		<rect x="277.749" y="57.253" style="fill:#407BFF;" width="1.312" height="185.343"/>
		<rect x="277.749" y="57.253" style="opacity:0.2;enable-background:new    ;" width="1.312" height="185.343"/>
		<rect x="279.607" y="58.177" style="opacity:0.8;fill:#FFFFFF;enable-background:new    ;" width="111.902" height="183.481"/>
		<polygon style="opacity:0.2;fill:#FFFFFF;enable-background:new    ;" points="336.874,241.658 313.213,241.658 331.756,58.177 
			355.426,58.177 		"/>
		<polygon style="opacity:0.2;fill:#FFFFFF;enable-background:new    ;" points="355.078,241.658 345.098,241.658 363.65,58.177 
			373.631,58.177 		"/>
		<g>
			<path style="fill:none;" d="M316.492,206.715c0.032,2.772,0.085,5.516,0.155,8.223l2.088-0.889l-2.12-13.994L316.492,206.715z"/>
		</g>
	</g>
</g>
<g id="Mirror_1">
	<g>
		<g id="freepik--Mirror--inject-2_00000181089713174746884440000007269114443158167476_">
			<rect x="120.417" y="59.079" style="fill:#407BFF;" width="112.986" height="183.517"/>
			<rect x="119.105" y="59.079" style="fill:#407BFF;" width="1.312" height="183.517"/>
			<rect x="119.105" y="59.079" style="opacity:0.2;enable-background:new    ;" width="1.312" height="183.517"/>
			<rect x="120.963" y="59.994" style="opacity:0.8;fill:#FFFFFF;enable-background:new    ;" width="111.902" height="181.673"/>
			<polygon style="opacity:0.2;fill:#FFFFFF;enable-background:new    ;" points="178.23,241.667 154.569,241.667 173.113,59.994 
				196.782,59.994 			"/>
			<polygon style="opacity:0.2;fill:#FFFFFF;enable-background:new    ;" points="196.434,241.667 186.454,241.667 205.006,59.994 
				214.987,59.994 			"/>
		</g>
	</g>
</g>
<g id="Speech_Bubble">
	<g>
		<g>
			<g>
				<g>
					<path style="fill:#407BFF;" d="M198.626,80.201c9.12-7.057,22.234-5.385,29.291,3.735c5.448,7.041,5.673,16.451,1.305,23.629
						l1.825,6l-6.602-0.563c-0.091,0.073-0.171,0.154-0.263,0.226c-9.12,7.057-22.234,5.385-29.291-3.735
						C187.834,100.372,189.506,87.258,198.626,80.201z"/>
					<path style="fill:#407BFF;" d="M187.88,96.742c-0.132,0-0.243-0.104-0.25-0.237c-0.358-6.836,3.008-13.825,8.576-17.806
						c0.112-0.08,0.269-0.055,0.349,0.058c0.08,0.112,0.054,0.269-0.058,0.349c-5.433,3.884-8.718,10.703-8.368,17.372
						c0.007,0.138-0.099,0.255-0.236,0.263C187.889,96.742,187.885,96.742,187.88,96.742z"/>
					<path style="fill:#407BFF;" d="M188.719,102.877c-0.098,0-0.191-0.058-0.231-0.155c-0.406-0.984-0.608-2.067-0.585-3.132
						c0.003-0.138,0.109-0.253,0.255-0.245c0.138,0.003,0.248,0.117,0.245,0.255c-0.021,0.997,0.168,2.01,0.547,2.931
						c0.053,0.127-0.008,0.274-0.136,0.326C188.783,102.871,188.751,102.877,188.719,102.877z"/>
				</g>
			</g>
		</g>
		<g>
			<path style="fill:#FFFFFF;" d="M211.471,106.165c-0.713,0-1.308-0.23-1.787-0.691c-0.478-0.46-0.717-1.021-0.717-1.682
				c0-0.661,0.235-1.213,0.704-1.657c0.469-0.444,1.069-0.665,1.8-0.665c0.73,0,1.33,0.222,1.8,0.665
				c0.47,0.443,0.704,0.996,0.704,1.657c0,0.661-0.239,1.222-0.717,1.682C212.78,105.935,212.184,106.165,211.471,106.165z
				 M213.088,99.618h-3.235l-0.808-11.921h4.852L213.088,99.618z"/>
		</g>
	</g>
</g>
<g id="Barber_Pole">
	<g>
		<rect x="49.957" y="76.234" style="fill:#407BFF;" width="37.551" height="90.328"/>
		<rect x="49.957" y="76.234" style="opacity:0.8;fill:#FFFFFF;" width="37.551" height="90.328"/>
		<polygon style="fill:#263238;" points="66.683,60.304 49.957,75.055 49.957,100.493 87.032,70.154 		"/>
		<rect x="45.372" y="72.949" style="fill:#407BFF;" width="46.72" height="6.57"/>
		<path style="fill:#407BFF;" d="M87.508,76.234H50.144v-3.372c0-10.318,8.364-18.682,18.682-18.682l0,0
			c10.318,0,18.682,8.364,18.682,18.682V76.234z"/>
		<polygon style="fill:#407BFF;" points="87.508,87.294 49.957,120.412 49.957,145.85 87.508,114.172 		"/>
		<polygon style="fill:#263238;" points="49.957,166.489 50.206,171.16 73.13,172.378 87.508,160.249 87.508,133.371 		"/>
		<g>
			
				<rect x="45.372" y="164.775" transform="matrix(-1 -1.224647e-16 1.224647e-16 -1 137.4648 336.1196)" style="fill:#407BFF;" width="46.72" height="6.57"/>
			<path style="fill:#407BFF;" d="M49.957,168.06h37.364v3.372c0,10.318-8.364,18.682-18.682,18.682h0
				c-10.318,0-18.682-8.364-18.682-18.682V168.06z"/>
		</g>
		<path style="opacity:0.3;" d="M49.957,171.432h37.551c0,0-12.225,1.694-18.369,1.702
			C59.271,173.146,49.957,171.432,49.957,171.432z"/>
		<path style="opacity:0.3;" d="M87.508,72.949H49.957c0,0,12.225-1.694,18.369-1.702C78.194,71.234,87.508,72.949,87.508,72.949z"
			/>
		<rect x="54.788" y="79.519" style="opacity:0.5;fill:#FFFFFF;" width="6.303" height="85.256"/>
	</g>
</g>
<g id="Character">
	<g>
		<g>
			<path style="fill:#CE7A63;" d="M206.233,223.667l8.877-28.6l16.17,2.854c0,0-8.085,31.838-11.731,34.863
				C215.903,235.809,206.233,223.667,206.233,223.667z"/>
			<g>
				<g>
					<g>
						<g>
							<g>
								<polygon style="fill:#CE7A63;" points="219.19,442.545 209.557,469.554 200.825,466.623 203.837,438.115 								"/>
							</g>
						</g>
					</g>
				</g>
				<g>
					<g>
						<g>
							<g>
								<g>
									<g>
										<g>
											<g>
												<g>
													<g>
														<g>
															<g>
																<path style="fill:#263238;" d="M210.498,480.917l-7.917-0.061c0,0-1.594-0.896-2.535-0.786
																	c-0.938,0.112-4.203,0.732-4.203,0.732l-21.023-0.165c0.174-0.914,0.388-1.727,0.63-2.449
																	c0.295-0.879,0.635-1.623,1.011-2.251c1.319-2.198,3.101-2.97,5.035-3.081c2.945-0.169,12.256-6.519,12.256-6.519
																	s3.37-1.194,3.579-4.91c0.079-1.393,2.072-3.078,3.015-3.211c1.925-0.273,2.985,1,3.25,2.999l0.306,2.322
																	l4.446-0.684c0,0,4.535-2.326,4.299-0.034c-0.135,1.309-0.937,7.134-1.446,11.757
																	c-0.12,1.077-0.231,2.097-0.329,2.991l-0.002,0.001C210.65,479.553,210.498,480.917,210.498,480.917z"/>
															</g>
														</g>
													</g>
												</g>
											</g>
										</g>
										<g style="opacity:0.4;">
											<g>
												<g>
													<g>
														<g>
															<g>
																<path style="fill:#263238;" d="M210.498,480.917l-7.917-0.061c0,0-1.594-0.896-2.535-0.786
																	c-0.938,0.112-4.203,0.732-4.203,0.732l-21.023-0.165c0.174-0.914,0.388-1.727,0.63-2.449
																	c0.295-0.879,0.635-1.623,1.011-2.251c1.319-2.198,3.101-2.97,5.035-3.081c2.945-0.169,12.256-6.519,12.256-6.519
																	s3.37-1.194,3.579-4.91c0.079-1.393,2.072-3.078,3.015-3.211c1.925-0.273,2.985,1,3.25,2.999l0.306,2.322
																	l4.446-0.684c0,0,4.535-2.326,4.299-0.034c-0.135,1.309-0.937,7.134-1.446,11.757
																	c-0.12,1.077-0.231,2.097-0.329,2.991l-0.002,0.001C210.65,479.553,210.498,480.917,210.498,480.917z"/>
															</g>
														</g>
													</g>
												</g>
											</g>
										</g>
										<g style="opacity:0.3;">
											<path style="fill:#FFFFFF;" d="M174.82,480.637l21.023,0.164c0,0,3.265-0.62,4.203-0.732
												c0.941-0.11,2.535,0.786,2.535,0.786l7.917,0.061c0,0,0.152-1.364,0.37-3.349l-35.419,0.621
												C175.208,478.91,174.994,479.723,174.82,480.637z"/>
										</g>
										<g>
											<g>
												<g>
													<g>
														<path style="fill:#FFFFFF;" d="M188.503,469.164c0.128-0.128,0.323-0.14,0.47-0.037
															c0.674,0.472,1.238,1.136,1.619,1.967c0.201,0.438-0.415,0.854-0.618,0.412c-0.338-0.738-0.832-1.325-1.42-1.739
															c-0.197-0.138-0.227-0.425-0.056-0.597C188.499,469.167,188.5,469.165,188.503,469.164z"/>
													</g>
												</g>
											</g>
										</g>
										<g>
											<g>
												<g>
													<g>
														<path style="fill:#FFFFFF;" d="M190.686,467.851c0.128-0.128,0.323-0.14,0.47-0.037
															c0.674,0.473,1.238,1.137,1.619,1.967c0.201,0.438-0.415,0.854-0.618,0.412c-0.338-0.738-0.832-1.325-1.42-1.739
															c-0.197-0.138-0.227-0.425-0.056-0.597C190.682,467.854,190.684,467.852,190.686,467.851z"/>
													</g>
												</g>
											</g>
										</g>
										<g>
											<g>
												<g>
													<g>
														<path style="fill:#FFFFFF;" d="M192.936,466.627c0.127-0.128,0.323-0.14,0.47-0.037
															c0.674,0.472,1.238,1.137,1.619,1.967c0.201,0.438-0.415,0.854-0.618,0.412c-0.338-0.738-0.832-1.325-1.42-1.739
															c-0.197-0.138-0.227-0.426-0.056-0.597C192.933,466.63,192.934,466.628,192.936,466.627z"/>
													</g>
												</g>
											</g>
										</g>
									</g>
								</g>
							</g>
						</g>
					</g>
				</g>
			</g>
			<g>
				<path style="fill:#263238;" d="M305.049,243.859c3.151-2.209,7.186-2.145,10.874-1.979c2.067,0.093,4.171,0.29,6.16,0.89
					c1.745,0.527,3.937,1.834,3.653,3.977c-0.258,1.942-2.61,2.737-4.253,3.055c-2.046,0.396-4.174,0.187-6.172-0.358
					c-3.925-1.071-7.308-3.467-10.576-5.8c-0.787-0.562-1.537,0.738-0.757,1.295c5.602,3.999,13.382,8.99,20.45,5.469
					c2.868-1.429,3.753-4.707,1.484-7.144c-2.362-2.537-6.773-2.739-9.99-2.884c-3.941-0.178-8.269-0.173-11.631,2.183
					C303.508,243.114,304.256,244.415,305.049,243.859L305.049,243.859z"/>
				<path style="fill:#263238;" d="M304.572,241.539c-0.193-3.285,1.418-6.217,3.143-8.895c1.631-2.531,3.546-5.547,6.219-7.093
					c1.217-0.703,2.951-1.009,4.092,0.022c1.089,0.984,0.964,2.717,0.629,4.006c-0.717,2.768-2.55,5.101-4.719,6.904
					c-2.801,2.328-6.232,3.779-9.562,5.169c-0.878,0.366-0.492,1.818,0.399,1.446c6.248-2.607,13.867-6.15,15.423-13.518
					c0.31-1.468,0.3-3.137-0.566-4.425c-0.869-1.294-2.449-1.863-3.965-1.723c-3.541,0.328-6.118,3.919-7.994,6.588
					c-2.363,3.361-4.851,7.238-4.6,11.518C303.129,242.499,304.629,242.505,304.572,241.539L304.572,241.539z"/>
			</g>
			<g>
				<g>
					<g>
						<g>
							<g>
								<polygon style="fill:#CE7A63;" points="281.15,437.734 285.156,467.127 294.735,467.611 297.837,439.276 								"/>
							</g>
						</g>
					</g>
				</g>
				<g>
					<g>
						<g>
							<path style="fill:#263238;" d="M302.891,480.774h-21.427c0,0-0.467-0.9,0.067-3.296c0.081-0.373,0.188-0.784,0.326-1.231
								c0.007-0.023,0.012-0.045,0.02-0.067c0.2-0.663,0.43-1.478,0.675-2.359c0.981-3.587,2.136-8.274,2.136-8.274
								s3.565-7.632,7.736-5.726c3.659,1.671,2.791,6.455,2.791,6.455s0.359,2.809,3.133,5.286c1.716,1.53,3.422,2.715,4.242,4.618
								c0.153,0.356,0.274,0.734,0.361,1.145c0.01,0.049,0.02,0.102,0.027,0.153C303.148,478.395,303.138,479.471,302.891,480.774z"
								/>
						</g>
					</g>
				</g>
				<g style="opacity:0.4;">
					<g>
						<g>
							<path style="fill:#263238;" d="M302.891,480.774h-21.427c0,0-0.467-0.9,0.067-3.296c0.081-0.373,0.188-0.784,0.326-1.231
								c0.007-0.023,0.012-0.045,0.02-0.067c0.2-0.663,0.43-1.478,0.675-2.359c0.981-3.587,2.136-8.274,2.136-8.274
								s3.565-7.632,7.736-5.726c3.659,1.671,2.791,6.455,2.791,6.455s0.359,2.809,3.133,5.286c1.716,1.53,3.422,2.715,4.242,4.618
								c0.153,0.356,0.274,0.734,0.361,1.145c0.01,0.049,0.02,0.102,0.027,0.153C303.148,478.395,303.138,479.471,302.891,480.774z"
								/>
						</g>
					</g>
				</g>
				<g style="opacity:0.3;">
					<path style="fill:#FFFFFF;" d="M281.531,477.478c-0.534,2.396-0.067,3.296-0.067,3.296h21.427
						c0.247-1.303,0.257-2.378,0.086-3.296H281.531z"/>
				</g>
				<g>
					<g>
						<g>
							<g>
								<path style="fill:#FFFFFF;" d="M294.352,467.478c-1.205-0.939-2.786-0.817-3.87,0.24c-0.292,0.284-0.739-0.162-0.447-0.447
									c1.353-1.32,3.285-1.393,4.765-0.24C295.12,467.281,294.669,467.725,294.352,467.478L294.352,467.478z"/>
							</g>
						</g>
					</g>
				</g>
				<g>
					<g>
						<g>
							<g>
								<path style="fill:#FFFFFF;" d="M294.957,469.479c-1.205-0.939-2.786-0.817-3.87,0.24c-0.292,0.285-0.739-0.162-0.447-0.447
									c1.353-1.319,3.284-1.393,4.765-0.24C295.725,469.282,295.274,469.726,294.957,469.479L294.957,469.479z"/>
							</g>
						</g>
					</g>
				</g>
				<g>
					<g>
						<g>
							<g>
								<path style="fill:#FFFFFF;" d="M295.564,471.319c-1.205-0.939-2.786-0.817-3.87,0.24c-0.292,0.284-0.739-0.162-0.447-0.447
									c1.353-1.319,3.284-1.393,4.764-0.24C296.332,471.122,295.882,471.566,295.564,471.319L295.564,471.319z"/>
							</g>
						</g>
					</g>
				</g>
			</g>
			<g>
				<g>
					<path style="fill:#407BFF;" d="M229.442,256.364c0,0-17.819,79.03-19.434,95.082c-1.615,16.052-12.848,100.028-12.848,100.028
						l21.075,4.807c0,0,23.961-90.371,25.689-99.055c1.728-8.685,23.394-71.289,23.394-71.289l-2.779-24.045L229.442,256.364z"/>
				</g>
				<g>
					<g style="opacity:0.2;">
						<path d="M241.856,263.574c-2.519,8.599-9.252,15.506-17.559,18.017c-0.448,0.135-0.257,0.864,0.193,0.728
							c8.552-2.586,15.474-9.693,18.067-18.544C242.693,263.309,241.992,263.11,241.856,263.574L241.856,263.574z"/>
					</g>
				</g>
				<g>
					<g style="opacity:0.2;">
						<path d="M262.411,287.365c-9.296,19.402-14.658,40.503-21.231,60.986c-6.82,21.253-12.275,42.95-17.17,64.759
							c-2.756,12.28-5.334,24.602-7.879,36.931c-0.098,0.474,0.603,0.676,0.701,0.201c4.506-21.827,9.118-43.641,14.632-65.221
							c5.434-21.265,12.162-42.123,18.688-63.045c3.639-11.667,7.619-23.235,12.887-34.23
							C263.246,287.312,262.619,286.929,262.411,287.365L262.411,287.365z"/>
					</g>
				</g>
				<g>
					<g style="opacity:0.2;">
						<path d="M198.87,446.532c6.718,1.766,13.436,3.532,20.154,5.298c0.453,0.119,0.647-0.609,0.193-0.728
							c-6.718-1.766-13.436-3.532-20.154-5.298C198.61,445.685,198.416,446.413,198.87,446.532L198.87,446.532z"/>
					</g>
				</g>
				<g>
					<g>
						<g>
							<g>
								<g>
									<g>
										<path style="fill:#407BFF;" d="M304.169,323.013c2.51-22.146,0.738-69.107,0.738-69.107l-44.498-2.224
											c0,0,6.323,45.454,11.806,68.82L304.169,323.013z"/>
									</g>
								</g>
							</g>
						</g>
					</g>
				</g>
				<g style="opacity:0.2;">
					<path d="M267.042,263.572c-0.491,7.523-0.969,15.058-1.46,22.58c-0.023,0.486-0.747,0.486-0.724,0
						c0.257-3.858,0.502-7.729,0.747-11.6c-1.787,1.432-3.878-0.303-4.462-2.22c-0.958-3.106-0.596-6.795,0.152-9.901
						c0.117-0.473,0.818-0.267,0.701,0.194c-0.526,2.184-0.748,4.417-0.596,6.661c0.07,1.141,0.175,2.451,0.689,3.494
						c0.572,1.165,2.021,2.148,3.177,1.092c0.129-0.109,0.269-0.121,0.385-0.061c0.222-3.41,0.444-6.831,0.666-10.241
						C266.342,263.087,267.066,263.087,267.042,263.572z"/>
				</g>
				<g>
					<g>
						<g>
							<g style="opacity:0.2;">
								<path d="M288.338,264.854c-0.102,9.973,7.288,18.324,16.844,19.108c0.458,0.038,0.456-0.704,0-0.742
									c-9.17-0.752-16.228-8.823-16.13-18.366C289.057,264.377,288.343,264.376,288.338,264.854L288.338,264.854z"/>
							</g>
						</g>
					</g>
				</g>
				<g>
					<g>
						<g>
							<path style="fill:#407BFF;" d="M280.72,458.228l19.832,0.035c2.618-31.786,4.298-143.436,4.298-143.436l-37.533-20.715
								c0,0,4.563,48.522,6.354,64.621C273.671,358.734,276.934,435.838,280.72,458.228z"/>
						</g>
					</g>
				</g>
				<g>
					<g style="opacity:0.2;">
						<path d="M270.416,288.366c2.438,21.21,4.396,42.475,6.098,63.761c1.698,21.227,3.147,42.474,4.582,63.721
							c0.814,12.05,1.624,24.101,2.472,36.149c0.034,0.482,0.761,0.485,0.727,0c-1.502-21.346-2.885-42.7-4.384-64.046
							c-1.491-21.23-3.099-42.452-5.059-63.641c-1.109-11.995-2.334-23.978-3.709-35.943
							C271.087,287.89,270.36,287.884,270.416,288.366L270.416,288.366z"/>
					</g>
				</g>
				<g>
					<g style="opacity:0.2;">
						<path d="M280.22,452.35c6.814,0.016,13.627,0.032,20.441,0.048c0.468,0.001,0.468-0.754,0-0.755
							c-6.814-0.016-13.627-0.032-20.441-0.048C279.753,451.594,279.752,452.349,280.22,452.35L280.22,452.35z"/>
					</g>
				</g>
				<g>
					<g>
						<g>
							<g style="opacity:0.2;">
								<path d="M293.025,362.135c2.976,1.141,6.17,1.159,9.158,0.053c0.43-0.159,0.245-0.876-0.19-0.715
									c-2.88,1.066-5.91,1.047-8.778-0.053C292.783,361.254,292.596,361.971,293.025,362.135L293.025,362.135z"/>
							</g>
						</g>
					</g>
				</g>
			</g>
			<g>
				<g>
					<g>
						<g>
							<g>
								<path style="fill:#407BFF;" d="M306.262,272.019c-0.737-9.856-3.674-38.337-3.751-69.284
									c-0.002-0.87,0.094-1.722,0.168-2.56c0.755-8.592,2.654-15.058,4.031-20.762c1.529-6.316,2.414-11.697,0.401-17.988
									c-1.648-5.148-4.334-7.864-7.668-9.545c-0.297-0.15-0.599-0.29-0.906-0.423c-4.288-1.877-9.528-2.34-14.963-4.075
									c-2.496-0.795-5.035-1.86-7.54-3.456c-12.733-8.106-19.64,0-19.64,0s-2.021,0.444-4.86,1.183
									c-1.145,0.298-2.424,0.641-3.758,1.024c-0.271,0.077-0.546,0.156-0.822,0.239c-4.541,1.333-9.522,3.069-11.965,4.83
									c-3.378,2.438-4.261,13.869-4.504,26c-0.006,0.3-0.01,0.602-0.016,0.905c-0.018,1.041-0.033,2.087-0.042,3.13
									c-0.016,1.575-0.025,3.145-0.03,4.695v0.001c-0.001,0.341-0.003,0.683-0.005,1.021c-0.01,3.911-0.004,7.659-0.051,10.946
									c-0.004,0.368-0.01,0.73-0.017,1.085c-0.034,1.904,0.959,3.86,0.869,5.349c-0.04,0.644-0.278,14.467-0.332,15.017
									c-0.567,5.854-3.359,39.049-5.166,47.138C248.968,271.806,271.893,271.919,306.262,272.019z"/>
							</g>
						</g>
					</g>
				</g>
			</g>
			<g style="opacity:0.6;">
				<g>
					<g>
						<g>
							<g>
								<path style="fill:#FFFFFF;" d="M306.262,272.019c-0.737-9.856-3.674-38.337-3.751-69.284
									c-0.002-0.87,0.094-1.722,0.168-2.56c0.755-8.592,2.654-15.058,4.031-20.762c1.529-6.316,2.414-11.697,0.401-17.988
									c-1.648-5.148-4.334-7.864-7.668-9.545c-0.297-0.15-0.599-0.29-0.906-0.423c-4.288-1.877-9.528-2.34-14.963-4.075
									c-2.496-0.795-5.035-1.86-7.54-3.456c-12.733-8.106-19.64,0-19.64,0s-2.021,0.444-4.86,1.183
									c-1.145,0.298-2.424,0.641-3.758,1.024c-0.271,0.077-0.546,0.156-0.822,0.239c-4.541,1.333-9.522,3.069-11.965,4.83
									c-3.378,2.438-4.261,13.869-4.504,26c-0.006,0.3-0.01,0.602-0.016,0.905c-0.018,1.041-0.033,2.087-0.042,3.13
									c-0.016,1.575-0.025,3.145-0.03,4.695v0.001c-0.001,0.341-0.003,0.683-0.005,1.021c-0.01,3.911-0.004,7.659-0.051,10.946
									c-0.004,0.368-0.01,0.73-0.017,1.085c-0.034,1.904,0.959,3.86,0.869,5.349c-0.04,0.644-0.278,14.467-0.332,15.017
									c-0.567,5.854-3.359,39.049-5.166,47.138C248.968,271.806,271.893,271.919,306.262,272.019z"/>
							</g>
						</g>
					</g>
				</g>
			</g>
			<path style="fill:#407BFF;" d="M232.878,201.888l-19.682-5.79c0,0,9.007-39.827,21.793-44.896
				C247.776,146.133,232.878,201.888,232.878,201.888z"/>
			<path style="opacity:0.6;fill:#FFFFFF;" d="M232.878,201.888l-19.682-5.79c0,0,9.007-39.827,21.793-44.896
				C247.776,146.133,232.878,201.888,232.878,201.888z"/>
			<g>
				<path style="fill:#263238;" d="M237.954,179.158l-4.148,40.749l-3.164,1.799l-1.569,16.999l-23.96,130.136h93.349
					c1.334-22.048-1.745-119.813-1.745-119.813l7.64-1.402l-0.385-12.285c0,0-11.391-12.48-11.201-14.934
					c0.189-2.454-5.606-41.271-5.606-41.271L237.954,179.158z"/>
				<path style="fill:#407BFF;" d="M281.188,146.531c0,0-3.116,24.693-3.81,37.559h6.452l4.463-35.285
					C288.293,148.805,284.362,146.531,281.188,146.531z"/>
				<path style="fill:#407BFF;" d="M241.306,185.082l-1.133-36.326c0,0,2.561-3.357,5.831-2.212
					c1.101,0.385,1.816,38.538,1.816,38.538H241.306z"/>
				<path d="M246.674,195.94c0,0-2.645,23.361,16.378,23.361c19.023,0,16.194-23.361,16.194-23.361H246.674z"/>
				<path style="fill:#263238;" d="M245.495,181.925c0,0.76-0.616,1.377-1.377,1.377c-0.76,0-1.376-0.616-1.376-1.377
					c0-0.76,0.616-1.377,1.376-1.377C244.878,180.548,245.495,181.165,245.495,181.925z"/>
				<path style="fill:#263238;" d="M281.999,180.548c0,0.76-0.616,1.377-1.376,1.377c-0.76,0-1.377-0.616-1.377-1.377
					c0-0.76,0.616-1.376,1.377-1.376C281.383,179.172,281.999,179.788,281.999,180.548z"/>
			</g>
			<g>
				<path style="fill:#CE7A63;" d="M272.98,147.008c0,0-1.66-7.068,1.384-19.869c-0.001-0.013-0.68-0.276-0.681-0.29
					c0.418-1.79,0.876-3.447,1.313-4.886c0.01-0.042,0.008-0.055,0.008-0.055l-16.745,11.512c0.602,4.017-0.467,11.887-1.17,15.223
					c0,0-1.889,6.072,6.059,5.946C268.954,154.497,272.98,147.008,272.98,147.008z"/>
				<path d="M267.258,136.324c-2.075,2.376-5.683,3.713-8.991,3.784c0.048-0.295,0.039-0.737,0.074-1.03
					c0.056-0.461,0.052-1.165,0.078-1.65c0.027-0.595,0.037-1.241,0.006-1.856c-0.029-0.244-0.127-0.209-0.155-0.453l-0.059-0.502
					l10.018-3.401C269.042,131.809,268.931,134.395,267.258,136.324z"/>
				<path style="fill:#CE7A63;" d="M280.818,111.741c2.4-10.755-6.943-20.659-18.098-18.072
					c-11.322,2.626-15.377,18.512-14.601,28.644c0.862,11.256,13.475,18.369,23.065,11.3
					C277.559,128.914,278.418,122.497,280.818,111.741L280.818,111.741z"/>
				<g>
					<g>
						<g>
							<path style="fill:#263238;" d="M271.164,115.557c1.749,2.027,3.262-0.035,7.414-2.235c0.569-0.302,1.196-0.54,2.065-0.566
								c-0.975,3.598-1.916,6.582-2.676,8.727c-0.227,0.643-0.471,1.229-0.74,1.77c3.218-3.865,4.794-9.906,5.959-11.986
								c0.236-0.42,0.423-0.827,0.566-1.224c-0.062-0.146-0.125-0.288-0.196-0.427c-0.296-0.611,1.452,0.275,1.022-0.243
								c-0.682-0.816-1.515-1.523-2.436-2.131c-2.985-1.982-6.348-2.856-9.203-3.325
								C272.654,107.334,269.734,113.895,271.164,115.557z"/>
						</g>
					</g>
				</g>
				<path style="fill:#CE7A63;" d="M283.82,119.561c-1.166,2.845-3.542,4.871-5.895,5.792c-3.538,1.384-4.475-2.434-3.837-5.984
					c0.574-3.196,1.861-7.036,5.578-6.903C283.329,112.597,285.153,116.309,283.82,119.561z"/>
				<path style="fill:#263238;" d="M265.248,114.119c-0.099,1.121-0.774,1.972-1.507,1.9c-0.733-0.072-1.248-1.04-1.149-2.161
					s0.774-1.972,1.507-1.9C264.832,112.031,265.347,112.998,265.248,114.119z"/>
				<path style="fill:#263238;" d="M254.379,113.386c-0.099,1.121-0.774,1.972-1.507,1.9c-0.734-0.072-1.248-1.039-1.149-2.161
					c0.099-1.121,0.774-1.972,1.507-1.9C253.964,111.297,254.478,112.265,254.379,113.386z"/>
				<path style="fill:#A24E3F;" d="M257.614,112.04c0,0-4.042,5.258-5.38,7.426c1.436,1.548,4.182,1.135,4.182,1.135L257.614,112.04
					z"/>
				<path style="fill:#263238;" d="M268.128,108.055c-0.175,0.054-0.375,0.015-0.52-0.12c-1.686-1.572-3.453-1.216-3.637-1.174
					c-0.283,0.068-0.57-0.106-0.64-0.387c-0.07-0.282,0.103-0.566,0.384-0.634c0.1-0.024,2.471-0.565,4.612,1.433
					c0.214,0.199,0.226,0.532,0.028,0.743C268.29,107.983,268.212,108.03,268.128,108.055z"/>
				<path style="opacity:0.2;" d="M276.016,119.385c-0.017,0-0.033-0.002-0.05-0.005c-0.136-0.028-0.223-0.16-0.195-0.295
					c0.206-1.012,0.676-1.958,1.359-2.734c0.461-0.523,1.219-1.179,2.214-1.333c0.973-0.152,1.952,0.283,2.378,1.051
					c0.066,0.121,0.023,0.273-0.098,0.34c-0.119,0.066-0.273,0.023-0.34-0.098c-0.321-0.581-1.111-0.916-1.864-0.799
					c-0.847,0.131-1.509,0.708-1.915,1.169c-0.626,0.711-1.056,1.577-1.244,2.503C276.236,119.304,276.132,119.385,276.016,119.385z
					"/>
				<path style="fill:#263238;" d="M249.469,107.184c-0.096-0.03-0.184-0.087-0.252-0.171c-0.185-0.226-0.154-0.559,0.07-0.744
					c2.241-1.849,4.55-1.117,4.658-1.097c0.277,0.09,0.431,0.387,0.345,0.664c-0.086,0.277-0.378,0.43-0.654,0.344
					c-0.095-0.034-1.881-0.576-3.68,0.909C249.816,107.206,249.632,107.235,249.469,107.184z"/>
				<path style="fill:#263238;" d="M274.587,124.352c-0.703-0.753-1.061-1.772-1.22-2.789c-0.354-2.269,0.232-4.67,1.592-6.52
					l-3.796,0.515c0,0-0.534,4.659-3.611,5.094c-3.077,0.435-4.029-0.663-6.553-0.141c-2.524,0.522-2.789,1.937-2.789,1.937
					s-2.025-0.906-3.82-0.54c-1.795,0.366-5.227,2.051-5.861,2.949c-0.634,0.898-1.081,3.441,0.755,3.803l0,0
					c-0.757,0.117-1.704,1.956-1.642,2.72c0.062,0.764,0.591,1.43,1.239,1.839c-0.78,0.661-1,1.895-0.497,2.785
					c0.503,0.89,1.673,1.339,2.642,1.013c-0.211,0.768,0.102,1.616,0.658,2.188c0.556,0.571,1.32,0.898,2.095,1.086
					c1.424,0.344,2.949,0.253,4.322-0.257c0.384,0.704,1.318,0.841,2.117,0.895c1.459,0.097,2.959,0.18,4.348-0.274
					c1.389-0.454,2.661-1.574,2.853-3.023c1.26-0.195,2.556-0.45,3.606-1.174c1.049-0.725,1.792-2.04,1.475-3.275
					c-0.059-0.23-0.151-0.48-0.048-0.694c0.066-0.138,0.201-0.227,0.328-0.312c2.349-1.584,4.038-4.117,4.598-6.895
					C276.383,125.545,275.29,125.105,274.587,124.352z"/>
				<path style="fill:#FFFFFF;" d="M262.392,122.147c0,0-1.746,1.846-5.403,2.811c0,0,1.322,2.332,3.613,1.509
					C263.372,125.471,262.392,122.147,262.392,122.147z"/>
				<g>
					<path style="fill:#263238;" d="M272.639,96.056c0.062,0.037,0.12,0.08,0.168,0.136c0.177,0.21,0.182,0.509,0.179,0.783
						c-0.029,2.56-0.057,5.119-0.086,7.679c-0.007,0.579-0.009,1.178,0.214,1.712c0.375,0.898,1.297,1.425,2.172,1.849
						c2.036,0.987,4.166,1.78,6.351,2.367c1.007,0.27,2.053,0.498,3.086,0.358c0.499-0.068,0.971-0.216,1.419-0.423
						c1.479-0.682,1.306-2.801-0.212-3.391c-0.011-0.005-0.023-0.009-0.034-0.014c-1.152-0.455-2.278-1.485-2.73-2.639
						c-0.51-1.302,0.465-2.182,0.401-4.557c-0.055-2.044-1.123-4.173-3.499-5.264c-1.858-0.854-4.122-0.822-6.16-0.991"/>
				</g>
				<g>
					<path style="fill:#263238;" d="M273.886,92.832c-2.452-3.035-6.536-4.663-10.403-4.147c-2.314,0.309-4.575,1.327-6.893,1.045
						c-1.018-0.124-1.987-0.495-2.962-0.813c-0.632-0.207-1.285-0.394-1.95-0.369c-0.665,0.025-1.352,0.296-1.73,0.844
						c-0.378,0.548-0.343,1.391,0.179,1.804c-0.572-0.483-1.17-0.979-1.895-1.167c-1.552-0.403-3.218,0.912-3.463,2.497
						c-0.245,1.585,0.719,3.196,2.093,4.023c-0.763,0.128-1.537-0.387-2.29-0.212c-0.71,0.165-1.163,0.93-1.159,1.659
						c0.004,0.729,0.373,1.409,0.824,1.982c1.87,2.371,5.039,3.235,8.009,3.78c1.832,0.336,3.696,0.605,5.551,0.452
						c2.454-0.203,4.789-1.135,7.005-2.209c3.933-1.906,7.807-4.486,9.751-8.4L273.886,92.832z"/>
				</g>
				<g style="opacity:0.3;">
					<path d="M280.431,109.614c-0.754-0.568-1.261-1.452-1.371-2.389c-0.327,0.579-0.273,1.336-0.681,1.861
						c-0.472,0.608-1.359,0.665-2.127,0.615c-0.694-0.045-1.447-0.165-1.92-0.676c-0.388-0.419-0.505-1.014-0.606-1.576
						c-0.18-1.005-0.316-1.364-0.496-2.368c0.224,1.151,0.061,3.579,0.412,4.697c0.351,1.118,0.946,1.361,2.002,1.872
						c0.684,0.331,1.789-0.011,2.548-0.001c0.978,0.012,1.957-0.053,2.924-0.193c0.807-0.117,1.745-0.404,1.99-1.182
						C282.174,110.426,281.184,110.182,280.431,109.614z"/>
				</g>
			</g>
			<g>
				<path style="fill:#CE7A63;" d="M269.734,229.626l35.054-14.925l-2.786-18.389l17.948-7.505c0,0,5.754,27.165,1.846,35.634
					c-3.907,8.469-48.023,15.604-48.023,15.604L269.734,229.626z"/>
				<path style="fill:#407BFF;" d="M298.86,201.387l24.929-11.454c0,0-16.768-38.455-26.201-38.555
					C288.155,151.278,294.784,186.819,298.86,201.387z"/>
				<path style="opacity:0.6;fill:#FFFFFF;" d="M298.86,201.387l24.929-11.454c0,0-16.768-38.455-26.201-38.555
					C288.155,151.278,294.784,186.819,298.86,201.387z"/>
			</g>
			<polygon style="opacity:0.3;" points="231.211,203.772 232.239,170.221 225.695,199.775 230.593,201.224 			"/>
			<path style="opacity:0.3;" d="M293.926,177.397c0,0-0.3,29.605,3.621,31.426l4.997-1.403l0.134-7.245l-3.818,1.212
				L293.926,177.397z"/>
		</g>
		<path style="opacity:0.3;" d="M206.775,221.922c0,0,4.993,1.624,4.854,3.522h-5.395v-2.298L206.775,221.922z"/>
		<polygon style="opacity:0.3;" points="205.876,385.163 205.113,391.077 216.121,390.652 215.188,397.757 233.636,397.757 
			236.911,385.163 		"/>
		<path style="opacity:0.3;" d="M272.561,241.073v74.876h32.289v25.402h-32.289v14.674h31.236l-0.504,32.694l-17.21,0.136v5.959
			l-10.376,4.101l-1.513-28.732c0,0-13.973-0.864-13.785-1.341c0.187-0.477,2.663-127.382,2.663-127.382L272.561,241.073z"/>
		<g>
			<rect x="237.574" y="390.652" style="fill:#263238;" width="27.62" height="57.349"/>
			<rect x="237.574" y="390.652" style="opacity:0.3;fill:#FFFFFF;" width="27.62" height="57.349"/>
			<g>
				<path style="fill:#407BFF;" d="M349.462,333.385h-86.141v-15.254h70.886C342.632,318.131,349.462,324.96,349.462,333.385
					L349.462,333.385z"/>
				<path style="opacity:0.3;" d="M349.462,333.385h-86.141v-15.254h70.886C342.632,318.131,349.462,324.96,349.462,333.385
					L349.462,333.385z"/>
				<rect x="263.321" y="333.385" style="fill:#263238;" width="87.736" height="3.715"/>
				<rect x="274.932" y="335.814" style="fill:#263238;" width="3.515" height="43.744"/>
				
					<rect x="315.675" y="331.424" transform="matrix(0.8288 0.5596 -0.5596 0.8288 255.5179 -116.0817)" style="fill:#263238;" width="3.515" height="56.085"/>
			</g>
			<path style="fill:#407BFF;" d="M319.8,359.348H176.369v20.533h153.193V369.11C329.563,363.719,325.192,359.348,319.8,359.348z"/>
			<path style="fill:#407BFF;" d="M269.734,360.47h-93.365V237.616c0-6.722,5.449-12.172,12.172-12.172h67.767
				c7.415,0,13.426,6.011,13.426,13.426V360.47z"/>
			<path style="opacity:0.3;" d="M191.183,379.881h-14.814V237.616c0-6.722,5.449-12.172,12.172-12.172h2.642V379.881z"/>
			<rect x="178.858" y="473.517" style="fill:#263238;" width="145.053" height="7.923"/>
			<rect x="178.858" y="473.606" style="opacity:0.6;fill:#FFFFFF;" width="145.053" height="7.923"/>
			<rect x="234.127" y="436.999" style="fill:#263238;" width="34.514" height="34.514"/>
			<rect x="234.127" y="436.999" style="opacity:0.6;fill:#FFFFFF;" width="34.514" height="34.514"/>
			<rect x="174.769" y="377.628" style="fill:#263238;" width="155.788" height="7.535"/>
			<rect x="191.057" y="356.025" style="opacity:0.3;" width="78.678" height="3.323"/>
			<g>
				<path style="fill:#407BFF;" d="M256.548,333.385h-86.14v-15.254h70.886C249.719,318.131,256.548,324.96,256.548,333.385
					L256.548,333.385z"/>
				<path style="opacity:0.3;" d="M256.548,333.385h-86.14v-15.254h70.886C249.719,318.131,256.548,324.96,256.548,333.385
					L256.548,333.385z"/>
				<rect x="170.408" y="333.385" style="fill:#263238;" width="87.736" height="3.715"/>
				<rect x="182.019" y="335.814" style="fill:#263238;" width="3.515" height="43.744"/>
				
					<rect x="222.762" y="331.424" transform="matrix(0.8288 0.5596 -0.5596 0.8288 239.6073 -64.0868)" style="fill:#263238;" width="3.515" height="56.085"/>
			</g>
			<g>
				<rect x="219.722" y="385.163" style="fill:#263238;" width="63.325" height="7.386"/>
				<rect x="219.722" y="385.163" style="opacity:0.3;fill:#FFFFFF;" width="63.325" height="7.386"/>
			</g>
			<polygon style="fill:#263238;" points="216.349,473.517 234.093,465.692 268.608,465.692 286.419,473.517 			"/>
			<rect x="237.574" y="392.548" style="opacity:0.3;" width="27.62" height="2.266"/>
			<polygon style="opacity:0.6;fill:#FFFFFF;" points="216.349,473.517 234.093,465.692 268.608,465.692 286.419,473.517 			"/>
		</g>
		<g>
			<g>
				<path style="fill:#CE7A63;" d="M204.347,225.411c0,0-3.436,8.805-5.327,9.42c-1.891,0.615-1.41-2.181-1.41-2.181
					s-0.717,3.044-2.051,2.914c-1.601-0.156-1.085-3.083-1.085-3.083s-0.687,2.462-1.866,2.266
					c-1.223-0.202-0.875-3.548-0.875-3.548s-0.812,1.642-1.554,1.042c-0.743-0.599-0.142-7.713,1.438-9.637
					c1.58-1.924,10.682-0.822,12.618-0.174c1.937,0.649,3.117-0.032,5.828,2.831L204.347,225.411L204.347,225.411z"/>
			</g>
			<g>
				<path style="opacity:0.2;" d="M197.462,232.625c0.001-0.004,0.001-0.008,0.003-0.013l1.504-5.247
					c0.021-0.07,0.102-0.111,0.182-0.09c0.08,0.021,0.13,0.098,0.109,0.166l-1.505,5.247c-0.021,0.07-0.102,0.111-0.182,0.09
					C197.498,232.758,197.45,232.691,197.462,232.625z"/>
			</g>
			<g>
				<path style="opacity:0.2;" d="M194.352,232.304c0-0.001,0-0.002,0-0.003l1.044-5.155c0.015-0.072,0.092-0.117,0.174-0.101
					c0.082,0.016,0.124,0.074,0.122,0.159l-1.044,5.155c-0.015,0.072-0.092,0.117-0.174,0.101
					C194.394,232.443,194.34,232.374,194.352,232.304z"/>
			</g>
			<g>
				<path style="opacity:0.2;" d="M191.616,230.998l0.666-3.853c0.012-0.072,0.089-0.119,0.171-0.105
					c0.082,0.014,0.138,0.084,0.126,0.156l-0.666,3.853c-0.013,0.072-0.089,0.119-0.171,0.105
					C191.66,231.14,191.603,231.07,191.616,230.998z"/>
			</g>
		</g>
		<g>
			<g>
				<path style="fill:#CE7A63;" d="M268.264,232.946c0,0-7.378,5.155-7.529,7.137c-0.151,1.982,2.453,0.856,2.453,0.856
					s-2.789,1.415-2.348,2.681c0.529,1.519,3.252,0.327,3.252,0.327s-2.23,1.249-1.762,2.348c0.485,1.14,3.654,0.013,3.654,0.013
					s-1.404,1.176-0.646,1.757c0.758,0.58,7.529-1.682,9.026-3.671c1.497-1.989-1.721-10.574-2.809-12.303
					c-1.087-1.729-1.545-4.601-6.206-3.296L268.264,232.946L268.264,232.946z"/>
			</g>
			<g>
				<path style="opacity:0.2;" d="M263.247,241.077c0.004-0.002,0.008-0.003,0.012-0.006l4.744-2.7
					c0.063-0.037,0.083-0.125,0.044-0.198c-0.04-0.073-0.126-0.103-0.187-0.067l-4.744,2.7c-0.063,0.036-0.083,0.125-0.044,0.198
					C263.109,241.073,263.186,241.104,263.247,241.077z"/>
			</g>
			<g>
				<path style="opacity:0.2;" d="M264.293,244.023c0.001,0,0.002-0.001,0.003-0.001l4.763-2.231
					c0.066-0.031,0.092-0.117,0.057-0.193c-0.035-0.076-0.102-0.103-0.183-0.081l-4.763,2.231c-0.066,0.031-0.092,0.117-0.057,0.193
					C264.148,244.015,264.228,244.051,264.293,244.023z"/>
			</g>
			<g>
				<path style="opacity:0.2;" d="M266.208,246.374l3.587-1.556c0.067-0.029,0.095-0.115,0.062-0.191
					c-0.033-0.076-0.114-0.114-0.181-0.085l-3.587,1.556c-0.067,0.029-0.095,0.115-0.062,0.191
					C266.059,246.365,266.14,246.403,266.208,246.374z"/>
			</g>
		</g>
	</g>
</g>
</svg>
