<?xml version="1.0" encoding="utf-8"?>
<!-- Generator: Adobe Illustrator 27.5.0, SVG Export Plug-In . SVG Version: 6.00 Build 0)  -->
<svg version="1.1" xmlns="http://www.w3.org/2000/svg" xmlns:xlink="http://www.w3.org/1999/xlink" x="0px" y="0px"
	 viewBox="0 0 500 500" style="enable-background:new 0 0 500 500;" xml:space="preserve">
<g id="Background_Complete">
	<g>
		<rect y="382.398" style="fill:#EBEBEB;" width="500" height="0.25"/>
		<rect x="90.459" y="391.922" style="fill:#EBEBEB;" width="24.874" height="0.25"/>
		<rect x="152.333" y="389.208" style="fill:#EBEBEB;" width="27.5" height="0.25"/>
		<rect x="47.667" y="401.208" style="fill:#EBEBEB;" width="58.108" height="0.25"/>
		<rect x="428.305" y="399.528" style="fill:#EBEBEB;" width="21.597" height="0.25"/>
		<rect x="214.791" y="391.138" style="fill:#EBEBEB;" width="27.93" height="0.25"/>
		<rect x="300.667" y="395.306" style="fill:#EBEBEB;" width="70.222" height="0.25"/>
		<path style="fill:#EBEBEB;" d="M237.014,337.8H43.915c-3.147,0-5.708-2.561-5.708-5.708V60.66c0-3.147,2.561-5.708,5.708-5.708
			h193.099c3.146,0,5.707,2.561,5.707,5.708v271.432C242.721,335.239,240.16,337.8,237.014,337.8z M43.915,55.203
			c-3.01,0-5.458,2.448-5.458,5.458v271.432c0,3.01,2.448,5.458,5.458,5.458h193.099c3.009,0,5.457-2.448,5.457-5.458V60.66
			c0-3.009-2.448-5.458-5.457-5.458H43.915z"/>
		<path style="fill:#EBEBEB;" d="M453.31,337.8H260.212c-3.147,0-5.707-2.561-5.707-5.708V60.66c0-3.147,2.561-5.708,5.707-5.708
			H453.31c3.148,0,5.708,2.561,5.708,5.708v271.432C459.019,335.239,456.458,337.8,453.31,337.8z M260.212,55.203
			c-3.009,0-5.457,2.448-5.457,5.458v271.432c0,3.01,2.448,5.458,5.457,5.458H453.31c3.01,0,5.458-2.448,5.458-5.458V60.66
			c0-3.009-2.448-5.458-5.458-5.458H260.212z"/>
	</g>
	<g>
		<g>
			<rect x="20.889" y="245.941" style="fill:#F5F5F5;" width="458.222" height="120.404"/>
			<g>
				<g>
					<polyline style="fill:#F0F0F0;" points="455.142,270.332 465.444,261.536 395.385,261.536 405.688,270.332 					"/>
					<polygon style="fill:#E0E0E0;" points="455.142,270.332 455.142,345.031 465.444,353.826 465.444,261.536 					"/>
					<polygon style="fill:#FAFAFA;" points="395.385,261.536 395.385,353.826 405.688,345.031 405.688,270.332 					"/>
					<polygon style="fill:#F0F0F0;" points="455.142,345.031 405.688,345.031 395.385,353.826 465.444,353.826 					"/>
				</g>
				<rect x="405.688" y="270.331" style="fill:#FFFFFF;" width="49.454" height="74.699"/>
			</g>
			<g>
				<g>
					<polyline style="fill:#F0F0F0;" points="334.866,270.332 345.168,261.536 275.108,261.536 285.412,270.332 					"/>
					<polygon style="fill:#E0E0E0;" points="334.866,270.332 334.866,345.031 345.168,353.826 345.168,261.536 					"/>
					<polygon style="fill:#FAFAFA;" points="275.108,261.536 275.108,353.826 285.412,345.031 285.412,270.332 					"/>
					<polygon style="fill:#F0F0F0;" points="334.866,345.031 285.412,345.031 275.108,353.826 345.168,353.826 					"/>
				</g>
				<rect x="285.412" y="270.331" style="fill:#FFFFFF;" width="49.454" height="74.699"/>
			</g>
			<g>
				<g>
					<polyline style="fill:#F0F0F0;" points="214.589,270.332 224.891,261.536 154.832,261.536 165.135,270.332 					"/>
					<polygon style="fill:#E0E0E0;" points="214.589,270.332 214.589,345.031 224.891,353.826 224.891,261.536 					"/>
					<polygon style="fill:#FAFAFA;" points="154.832,261.536 154.832,353.826 165.135,345.031 165.135,270.332 					"/>
					<polygon style="fill:#F0F0F0;" points="214.589,345.031 165.135,345.031 154.832,353.826 224.891,353.826 					"/>
				</g>
				<rect x="165.135" y="270.331" style="fill:#FFFFFF;" width="49.454" height="74.699"/>
			</g>
			<g>
				<g>
					<polyline style="fill:#F0F0F0;" points="94.313,270.332 104.615,261.536 34.556,261.536 44.859,270.332 					"/>
					<polygon style="fill:#E0E0E0;" points="94.313,270.332 94.313,345.031 104.615,353.826 104.615,261.536 					"/>
					<polygon style="fill:#FAFAFA;" points="34.556,261.536 34.556,353.826 44.859,345.031 44.859,270.332 					"/>
					<polygon style="fill:#F0F0F0;" points="94.313,345.031 44.859,345.031 34.556,353.826 104.615,353.826 					"/>
				</g>
				<rect x="44.859" y="270.331" style="fill:#FFFFFF;" width="49.454" height="74.699"/>
			</g>
		</g>
		<g>
			<rect x="58.556" y="79.584" style="fill:#EBEBEB;" width="73.904" height="95.824"/>
			
				<rect x="132.46" y="79.584" transform="matrix(-1 -1.224647e-16 1.224647e-16 -1 267.1266 254.9923)" style="fill:#E0E0E0;" width="2.207" height="95.824"/>
			
				<rect x="54.596" y="97.544" transform="matrix(-1.836970e-16 1 -1 -1.836970e-16 223.004 31.9883)" style="fill:#FAFAFA;" width="81.824" height="59.904"/>
		</g>
		<g>
			<rect x="147.236" y="167.827" style="fill:#E0E0E0;" width="158.908" height="5.141"/>
			<g>
				<path style="fill:#F5F5F5;" d="M221.745,138.838v-5.469c0-1.019-0.826-1.845-1.845-1.845h-1.421
					c-1.019,0-1.845,0.826-1.845,1.845v5.469c0,0.533-0.23,1.04-0.632,1.39l-4.514,3.939c-0.402,0.35-0.632,0.857-0.632,1.39v20.425
					c0,1.019,0.826,1.845,1.845,1.845h12.977c1.019,0,1.845-0.826,1.845-1.845v-20.425c0-0.533-0.23-1.04-0.632-1.39l-4.514-3.939
					C221.975,139.878,221.745,139.371,221.745,138.838z"/>
				<path style="fill:#E6E6E6;" d="M221.495,137.69h-4.611c-0.414,0-0.75-0.336-0.75-0.75v-7.278c0-0.414,0.336-0.75,0.75-0.75
					h4.611c0.414,0,0.75,0.336,0.75,0.75v7.278C222.245,137.355,221.909,137.69,221.495,137.69z"/>
				<path style="fill:#E6E6E6;" d="M222.038,132.718h-5.697c-0.329,0-0.596-0.267-0.596-0.596v-3.725
					c0-0.329,0.267-0.596,0.596-0.596h5.697c0.329,0,0.596,0.267,0.596,0.596v3.725
					C222.634,132.451,222.367,132.718,222.038,132.718z"/>
				<rect x="210.856" y="149.675" style="fill:#EBEBEB;" width="16.667" height="13.583"/>
				<path style="fill:#EBEBEB;" d="M224.794,150.273c0,3.095-2.509,5.605-5.605,5.605c-3.095,0-5.605-2.509-5.605-5.605
					c0-3.096,2.509-5.605,5.605-5.605C222.285,144.668,224.794,147.177,224.794,150.273z"/>
			</g>
			<g>
				<path style="fill:#F5F5F5;" d="M195.032,125.683v-4.146c0-0.772-0.626-1.398-1.398-1.398h-1.077
					c-0.772,0-1.398,0.626-1.398,1.398v4.146c0,0.404-0.175,0.788-0.479,1.054l-3.422,2.986c-0.304,0.266-0.479,0.65-0.479,1.054
					v35.653c0,0.772,0.626,1.398,1.398,1.398h9.837c0.772,0,1.398-0.626,1.398-1.398v-35.653c0-0.404-0.175-0.788-0.479-1.054
					l-3.422-2.986C195.206,126.471,195.032,126.087,195.032,125.683z"/>
				<path style="fill:#E6E6E6;" d="M194.842,124.813h-3.495c-0.314,0-0.569-0.254-0.569-0.568v-5.517
					c0-0.314,0.255-0.568,0.569-0.568h3.495c0.314,0,0.569,0.254,0.569,0.568v5.517
					C195.411,124.558,195.156,124.813,194.842,124.813z"/>
				<path style="fill:#E6E6E6;" d="M195.254,121.044h-4.318c-0.249,0-0.452-0.202-0.452-0.452v-2.824
					c0-0.25,0.202-0.452,0.452-0.452h4.318c0.249,0,0.452,0.202,0.452,0.452v2.824C195.706,120.842,195.503,121.044,195.254,121.044
					z"/>
				<rect x="187.93" y="133.898" style="fill:#EBEBEB;" width="10.329" height="30.466"/>
				<path style="fill:#EBEBEB;" d="M197.343,136.195c0,2.346-1.902,4.249-4.249,4.249c-2.346,0-4.249-1.902-4.249-4.249
					c0-2.346,1.902-4.249,4.249-4.249C195.441,131.947,197.343,133.849,197.343,136.195z"/>
			</g>
			<g>
				<path style="fill:#F5F5F5;" d="M279.306,142.27v-3.183c0-0.772-0.626-1.398-1.398-1.398h-1.077
					c-0.772,0-1.398,0.626-1.398,1.398v3.183c0,0.404-0.175,0.788-0.479,1.054l-3.422,2.986c-0.304,0.266-0.479,0.65-0.479,1.054
					v19.065c0,0.772,0.626,1.398,1.398,1.398h9.837c0.772,0,1.398-0.626,1.398-1.398v-19.065c0-0.404-0.175-0.788-0.479-1.054
					l-3.422-2.986C279.481,143.059,279.306,142.674,279.306,142.27z"/>
				<path style="fill:#E6E6E6;" d="M279.306,140.067h-3.873c-0.21,0-0.38-0.17-0.38-0.38v-2.207c0-0.21,0.17-0.38,0.38-0.38h3.873
					c0.21,0,0.38,0.17,0.38,0.38v2.207C279.685,139.898,279.515,140.067,279.306,140.067z"/>
				<path style="fill:#E6E6E6;" d="M279.678,138.387h-4.619c-0.167,0-0.302-0.135-0.302-0.302v-1.058
					c0-0.167,0.135-0.302,0.302-0.302h4.619c0.167,0,0.302,0.135,0.302,0.302v1.058C279.98,138.252,279.845,138.387,279.678,138.387
					z"/>
				<rect x="272.204" y="150.485" style="fill:#EBEBEB;" width="10.329" height="13.879"/>
				<path style="fill:#EBEBEB;" d="M281.617,152.783c0,2.346-1.902,4.249-4.249,4.249c-2.346,0-4.249-1.902-4.249-4.249
					c0-2.346,1.902-4.249,4.249-4.249C279.715,148.534,281.617,150.437,281.617,152.783z"/>
			</g>
			<g>
				<path style="fill:#EBEBEB;" d="M245.815,133.233v-5.469c0-1.019-0.826-1.845-1.845-1.845h-0.421
					c-1.019,0-1.845,0.826-1.845,1.845v5.469c0,0.533-0.23,1.04-0.632,1.39l-4.514,3.939c-0.401,0.35-0.632,0.857-0.632,1.39v26.03
					c0,1.019,0.826,1.845,1.845,1.845h11.977c1.019,0,1.845-0.826,1.845-1.845v-26.03c0-0.533-0.23-1.04-0.632-1.39l-4.514-3.939
					C246.046,134.273,245.815,133.766,245.815,133.233z"/>
				<path style="fill:#F5F5F5;" d="M245.566,132.086h-3.611c-0.414,0-0.75-0.336-0.75-0.75v-7.278c0-0.414,0.336-0.75,0.75-0.75
					h3.611c0.414,0,0.75,0.336,0.75,0.75v7.278C246.316,131.75,245.98,132.086,245.566,132.086z"/>
				<path style="fill:#F5F5F5;" d="M246.108,127.113h-4.697c-0.329,0-0.596-0.267-0.596-0.596v-3.725
					c0-0.329,0.267-0.596,0.596-0.596h4.697c0.329,0,0.596,0.267,0.596,0.596v3.725
					C246.704,126.846,246.438,127.113,246.108,127.113z"/>
				<rect x="235.926" y="144.07" style="fill:#F5F5F5;" width="15.667" height="19.188"/>
				<circle style="fill:#F5F5F5;" cx="243.26" cy="144.668" r="5.605"/>
			</g>
			<g>
				<path style="fill:#EBEBEB;" d="M173.095,139.258v-4.517c0-0.841-0.682-1.523-1.523-1.523h-0.348
					c-0.841,0-1.524,0.682-1.524,1.523v4.517c0,0.44-0.19,0.859-0.522,1.148l-3.728,3.253c-0.331,0.289-0.522,0.708-0.522,1.148
					v21.497c0,0.842,0.682,1.524,1.524,1.524h9.891c0.841,0,1.523-0.682,1.523-1.524v-21.497c0-0.44-0.19-0.859-0.522-1.148
					l-3.728-3.253C173.285,140.117,173.095,139.698,173.095,139.258z"/>
				<path style="fill:#F5F5F5;" d="M172.888,138.31h-2.982c-0.342,0-0.619-0.277-0.619-0.619v-6.01c0-0.342,0.277-0.619,0.619-0.619
					h2.982c0.342,0,0.619,0.277,0.619,0.619v6.01C173.508,138.033,173.23,138.31,172.888,138.31z"/>
				<path style="fill:#F5F5F5;" d="M173.337,134.204h-3.879c-0.272,0-0.492-0.22-0.492-0.492v-3.076c0-0.272,0.22-0.492,0.492-0.492
					h3.879c0.272,0,0.492,0.22,0.492,0.492v3.076C173.829,133.984,173.608,134.204,173.337,134.204z"/>
				<rect x="164.928" y="148.208" style="fill:#F5F5F5;" width="12.938" height="15.846"/>
				<path style="fill:#F5F5F5;" d="M175.613,148.701c0,2.556-2.072,4.629-4.629,4.629c-2.556,0-4.629-2.072-4.629-4.629
					c0-2.556,2.072-4.629,4.629-4.629C173.54,144.073,175.613,146.145,175.613,148.701z"/>
			</g>
		</g>
	</g>
</g>
<g id="Background_Simple" style="display:none;">
	<g style="display:inline;">
		<path style="fill:#407BFF;" d="M101.394,212.087c28.018-9.966,44.157-30.972,57.001-53.748
			c48.031-85.172,159.041-111.898,238.992-55.603c42.902,30.208,66.057,77.071,36.979,132.71
			c-26.07,45.928-123.437,44.572-154.73,57.566c-48.711,13.528-97.18,40.35-147.158,41.698
			C53.567,342.901,26.438,231.598,101.394,212.087z"/>
		<path style="opacity:0.9;fill:#FFFFFF;" d="M101.394,212.087c28.018-9.966,44.157-30.972,57.001-53.748
			c48.031-85.172,159.041-111.898,238.992-55.603c42.902,30.208,66.057,77.071,36.979,132.71
			c-26.07,45.928-123.437,44.572-154.73,57.566c-48.711,13.528-97.18,40.35-147.158,41.698
			C53.567,342.901,26.438,231.598,101.394,212.087z"/>
	</g>
</g>
<g id="Shadow_1_">
	<ellipse id="_x3C_Path_x3E__117_" style="fill:#F5F5F5;" cx="250" cy="416.238" rx="193.889" ry="11.323"/>
</g>
<g id="Character_1">
	<g>
		<g>
			<path style="fill:#263238;" d="M157.001,103.929c7.97,5.346,6.96,19.089,0.373,24.891
				C146.747,115.778,157.001,103.929,157.001,103.929z"/>
			<path style="opacity:0.4;fill:#FFFFFF;" d="M157.001,103.929c7.97,5.346,6.96,19.089,0.373,24.891
				C146.747,115.778,157.001,103.929,157.001,103.929z"/>
		</g>
		<g>
			<polygon style="fill:#FFC3BD;" points="177.088,391.042 160.237,391.203 161.633,411.096 175.714,410.984 			"/>
			<polygon style="opacity:0.2;" points="177.084,391.049 160.227,391.21 161.012,402.349 176.318,402.217 			"/>
		</g>
		<path style="fill:#263238;" d="M151.342,331.709c-6.553-25.252-19.123-55.354-8.297-79.67l47.041-0.149
			c0,0-1.299,50.117-3.062,73.673c-1.83,24.493-8.623,72.316-8.623,72.316l-19.297,0.048
			C159.104,397.928,148.146,359.229,151.342,331.709z"/>
		<polygon style="fill:#407BFF;" points="157.56,398.614 179.639,398.614 180.85,388.766 155.528,389.94 		"/>
		<path style="opacity:0.2;" d="M149.138,323.712c-3.668-12.836-8.068-26.583-9.687-39.975
			C150.01,287.266,157.838,297.496,149.138,323.712z"/>
		<path style="fill:#263238;" d="M160.036,408.043c-0.009-0.465,0.482-0.816,0.905-0.656c4.448,1.678,12.294,0.392,15.255-0.19
			c0.723-0.143,1.424,0.027,2,0.4c3.537,2.293,11.31,3.691,11.31,3.691s1.468,2.87,1.103,5.068l-31.247-0.015
			C159.362,416.342,160.114,411.882,160.036,408.043z"/>
		<g>
			<polygon style="fill:#FFC3BD;" points="120.807,391.042 103.938,391.203 103.199,411.096 117.292,410.984 			"/>
			<path style="fill:#263238;" d="M102.074,408.043c0.004-0.465,0.505-0.816,0.924-0.656c4.4,1.678,12.283,0.392,15.26-0.19
				c0.728-0.143,1.424,0.027,1.989,0.4c3.472,2.293,9.916,3.691,9.916,3.691s1.386,2.87,0.958,5.068l-29.958-0.015
				C101.164,416.342,102.043,411.882,102.074,408.043z"/>
			<polygon style="opacity:0.2;" points="120.802,391.049 103.928,391.21 103.517,402.349 118.837,402.217 			"/>
		</g>
		<path style="fill:#263238;" d="M102.458,322.754c-1.359-25.532-5.728-59.123,2.831-70.863h55.047c0,0-14.607,50.117-20.062,73.673
			c-5.668,24.493-19.561,72.316-19.561,72.316l-18.235,0.048C102.479,397.928,95.602,351.891,102.458,322.754z"/>
		<polygon style="fill:#407BFF;" points="100.488,398.614 122.428,398.614 124.357,389.481 100.197,389.872 		"/>
		<g>
			<path style="fill:#FFC3BD;" d="M179.277,161.098l5.433,11.448c1.808,3.846,3.675,7.65,5.513,11.429
				c0.929,1.881,1.868,3.754,2.831,5.588c0.939,1.845,1.891,3.676,2.868,5.444c0.968,1.772,1.988,3.479,2.961,5.123
				c0.979,1.632,1.994,3.166,2.906,4.38l-8.335-3.672c0.464,0.19,1.646,0.253,3.219-0.227c1.551-0.439,3.411-1.251,5.265-2.32
				c1.889-1.041,3.817-2.319,5.757-3.694c0.967-0.691,1.953-1.396,2.914-2.138l1.457-1.105c0.475-0.346,0.995-0.784,1.392-1.03
				l1.126-0.698c2.81-1.741,6.5-0.874,8.241,1.936c1.067,1.722,1.14,3.807,0.401,5.538c-0.358,0.825-0.626,1.436-0.951,2.127
				c-0.324,0.663-0.652,1.321-0.993,1.972c-0.7,1.286-1.43,2.564-2.236,3.804c-0.813,1.232-1.656,2.47-2.582,3.667
				c-0.937,1.188-1.933,2.363-3,3.522c-1.07,1.153-2.264,2.248-3.534,3.334c-1.267,1.085-2.675,2.127-4.244,3.075
				c-3.086,1.903-7.036,3.551-11.825,3.901c-2.977,0.218-5.737-0.945-7.65-2.948l-0.685-0.725c-1.965-2.079-3.559-4.061-5.053-6.032
				c-1.498-1.961-2.823-3.945-4.128-5.905c-1.297-1.965-2.521-3.926-3.723-5.89c-1.181-1.976-2.308-3.955-3.424-5.936
				c-2.238-3.954-4.292-7.964-6.285-11.989c-0.977-2.023-1.966-4.037-2.886-6.085c-0.943-2.06-1.828-4.056-2.727-6.25
				c-2.516-6.133,0.417-13.145,6.551-15.66c5.922-2.429,12.663,0.222,15.385,5.929L179.277,161.098z"/>
		</g>
		<path style="fill:#FFC3BD;" d="M214.018,190.388l2.813,6.522c5.192,5.361,10.93-2.505,10.93-2.505l4.287-2.668
			c1.453-0.904,1.955-2.904,1.186-4.726l-1.931-4.575c-0.88-2.085-3.092-3.182-4.904-2.432l-4.071,1.686
			c-1.185,0.491-2.229,1.267-3.041,2.259L214.018,190.388z"/>
		<g>
			<path style="fill:#263238;" d="M221.961,195.356L221.961,195.356c-0.969-0.126-1.658-1.022-1.532-1.991l0.962-7.393
				c0.126-0.969,1.022-1.658,1.991-1.532l0,0c0.969,0.126,1.658,1.022,1.532,1.991l-0.962,7.393
				C223.825,194.793,222.93,195.482,221.961,195.356z"/>
			<path style="fill:#407BFF;" d="M233.108,176.688l-5.333,26.516c-0.609,3.03-4.579,3.811-6.29,1.238l0,0
				c-0.429-0.646-0.63-1.417-0.57-2.19l2.09-26.966c0.132-1.696,1.099-3.216,2.58-4.053l0,0
				C229.394,169.079,233.97,172.398,233.108,176.688z"/>
			<path style="fill:#263238;" d="M232.591,179.759l-7.409-1.49c-0.639-0.128-0.971-0.734-0.742-1.352l2.651-7.175
				c0.229-0.618,0.932-1.016,1.57-0.887l7.409,1.49c0.639,0.128,0.971,0.734,0.743,1.352l-2.651,7.175
				C233.933,179.49,233.23,179.888,232.591,179.759z"/>
		</g>
		<g>
			<path style="fill:#407BFF;" d="M168.289,149.523c10.576,4.304,25.369,27.671,25.369,27.671
				c-1.271,8.914-12.537,21.578-20.467,22.248c0,0-12.503-14.283-16.766-24.396C151.273,162.824,146.894,140.817,168.289,149.523z"
				/>
		</g>
		<path style="fill:#407BFF;" d="M161.277,147.623c-13.9-1.449-32.464-1.275-46.869,0.745c-8.991,1.261-15.338,6.857-14.248,25.271
			c2.21,37.353-3.005,66.785,1.75,80.215c0,0,77.404,16.93,90.645,0.522c4.793-44.954-11.333-82.276-18.695-97.814
			C171.507,151.594,166.746,148.193,161.277,147.623z"/>
		<path style="fill:#263238;" d="M147.236,146.749c12.056-0.211,23.3,0.203,28.859,8.32c5.559,8.116,22.647,49.404,18.866,92.315
			c-6.577,4.005-17.293,3.225-17.293,3.225S185.531,164.025,147.236,146.749z"/>
		<path style="fill:#FFC3BD;" d="M156.085,151.879c-1.794-1.758-3.664-0.735-4.535-3.379c-0.386-1.904-0.11-3.897,0.987-6.087
			l-21.33-11.508c0.419,7.848,0.736,14.045-2.741,17.162c-1.012,5.85,8.551,14.401,23.099,13.746
			C161.938,161.347,158.667,154.408,156.085,151.879z"/>
		<path style="fill:#263238;" d="M97.06,158.085c4.426-8.021,13.862-12.195,28.772-12.195c11.268,0,19.104,30.73,19.802,58.214
			c0.699,27.483,1.342,46.867,1.342,46.867c-15.084,3.758-47.56-3.587-53.93-7.632C93.046,243.339,82.5,184.469,97.06,158.085z"/>
		<path style="opacity:0.2;" d="M152.223,143.08l-16.842-4.213c4.253,6.695,11.919,10.358,16.037,8.739
			C151.29,146.167,151.534,144.678,152.223,143.08z"/>
		<path style="fill:#FFC3BD;" d="M128.971,118.506c0.656,11.053,1.34,18.544,7.742,23.227c12.721,9.303,20.385,3.293,23.05-7.762
			c2.399-9.951,0.923-26.354-9.905-30.68C139.191,99.027,128.315,107.453,128.971,118.506z"/>
		<path style="opacity:0.2;" d="M142.472,120.806c0,0-1.921-1.271-3.753-0.692C140.68,120.897,142.472,120.806,142.472,120.806z"/>
		<path style="opacity:0.2;" d="M142.247,121.689c0,0-1.956-0.77-3.45,0.242C140.687,122.215,142.247,121.689,142.247,121.689z"/>
		<path style="opacity:0.2;" d="M157.669,120.806c0,0,0.96-1.271,1.874-0.692C158.564,120.897,157.669,120.806,157.669,120.806z"/>
		<path style="opacity:0.2;" d="M157.781,121.689c0,0,0.977-0.77,1.723,0.242C158.561,122.215,157.781,121.689,157.781,121.689z"/>
		<g>
			<path style="fill:#263238;" d="M131.73,130.905c0.039,4.669-1.906,7.889-1.456,10.639c0.45,2.75,6.233,8.106,15.703,10.628
				c7.769,2.069,14.776,2.069,14.776,2.069s-1.963-2.84,0-8.351c1.962-5.511-0.717-12.209-0.717-12.209s-14.27-2.504-17.123-1.223
				c-6.64-1.223-7.688-7.979-6.64-12.173c1.048-4.193-0.291-9.814-0.291-9.814s-7.572,0.262-11.736,1.602
				c0.029,0.641,1.835,1.165,1.835,1.165s-2.563,5.169,1.922,11.001C132.488,130.07,131.73,130.905,131.73,130.905z"/>
			<path style="opacity:0.4;fill:#FFFFFF;" d="M131.73,130.905c0.039,4.669-1.906,7.889-1.456,10.639
				c0.45,2.75,6.233,8.106,15.703,10.628c7.769,2.069,14.776,2.069,14.776,2.069s-1.963-2.84,0-8.351
				c1.962-5.511-0.717-12.209-0.717-12.209s-14.27-2.504-17.123-1.223c-6.64-1.223-7.688-7.979-6.64-12.173
				c1.048-4.193-0.291-9.814-0.291-9.814s-7.572,0.262-11.736,1.602c0.029,0.641,1.835,1.165,1.835,1.165s-2.563,5.169,1.922,11.001
				C132.488,130.07,131.73,130.905,131.73,130.905z"/>
		</g>
		<path style="fill:#263238;" d="M153.848,129.386c3.345,0.145,8.503,3.349,9.071,6.538c-1.311,0.568-5.863-1.121-5.863-1.121
			s1.91,2.271,2.255,3.8c-2.363-0.044-5.741-2.97-6.323-4.409c-1.651,2.206-6.785,3.405-9.712,3.492
			c0.568-0.917,1.878-3.363,1.878-3.363s-4.062,0.6-7.601,0.256C139.564,131.832,146.771,129.08,153.848,129.386z"/>
		<path style="fill:#FFC3BD;" d="M123.777,128.929c1.333,2.661,3.78,4.449,6.125,5.171c3.527,1.087,4.118-1.791,3.246-5.17
			c-0.785-3.041-2.264-7.523-5.856-7.134C123.753,122.18,122.252,125.886,123.777,128.929z"/>
		<path style="fill:#263238;" d="M128.943,133.983c0,0.971,0.787,1.758,1.758,1.758s1.758-0.787,1.758-1.758
			c0-0.971-0.787-1.758-1.758-1.758S128.943,133.012,128.943,133.983z"/>
		<path style="fill:#263238;" d="M125.236,111.258c5.962,2.037,17.997-0.481,24.112-2.97c6.026-2.454,10.165,2.608,4.683,5.373
			c4.223,1.556,14.242-3.983,11.887-10.556c-1.166-5.014-7.502-8.358-13.696-5.999c-6.194,2.359-13.223,1.717-19.124,0.699
			c-9.173-1.584-9.697,8.125-8.038,9.348c-1.602,0.67-3.728-0.466-3.728-0.466S121.742,110.064,125.236,111.258z"/>
		<path style="fill:#263238;" d="M126.687,107.563c-3.145,0.435-4.932-1.682-6.046-4.869
			C124.978,104.822,126.687,107.563,126.687,107.563z"/>
		<path style="fill:#263238;" d="M144.614,121.268c-0.002,0.9,0.474,1.627,1.064,1.623c0.589-0.004,1.068-0.737,1.07-1.638
			c0.002-0.9-0.474-1.627-1.063-1.623C145.095,119.634,144.616,120.367,144.614,121.268z"/>
		<path style="fill:#263238;" d="M154.474,121.216c-0.002,0.9,0.474,1.627,1.064,1.623s1.068-0.737,1.07-1.638
			c0.002-0.9-0.474-1.627-1.064-1.623C154.955,119.582,154.476,120.315,154.474,121.216z"/>
		<path style="fill:#ED847E;" d="M151.914,121.409l-0.348,7.757c0,0,2.064,1.74,5.139,0.232
			C155.784,124.988,151.914,121.409,151.914,121.409z"/>
		<path style="fill:#263238;" d="M141.957,118.045c-0.088-0.003-0.176-0.029-0.256-0.078c-0.247-0.153-0.322-0.479-0.167-0.728
			c1.557-2.493,3.998-2.583,4.102-2.586c0.293-0.008,0.533,0.223,0.538,0.516c0.005,0.291-0.227,0.534-0.518,0.542l0,0
			c-0.08,0.003-1.983,0.094-3.226,2.083C142.325,117.962,142.141,118.052,141.957,118.045z"/>
		<path style="fill:#263238;" d="M160.978,118.85c-0.17-0.018-0.328-0.118-0.412-0.281c-1.066-2.067-2.958-2.29-3.038-2.299
			c-0.29-0.031-0.499-0.289-0.467-0.579c0.032-0.289,0.29-0.501,0.58-0.473c0.105,0.012,2.533,0.271,3.869,2.861
			c0.133,0.259,0.03,0.578-0.23,0.713C161.182,118.843,161.078,118.861,160.978,118.85z"/>
		<g>
			<path style="fill:#FFC3BD;" d="M112.229,177.319l-2.813,4.23c-0.953,1.488-1.934,2.968-2.859,4.477
				c-1.888,2.997-3.65,6.048-5.331,9.077c-0.826,1.519-1.626,3.043-2.356,4.567c-0.75,1.513-1.473,3.029-2.101,4.532
				c-1.254,3.013-2.306,5.971-2.927,8.704l0.06-2.419c-0.184,0.368-0.098,1.66,0.674,3.317c0.385,0.816,0.862,1.716,1.446,2.64
				c0.593,0.924,1.289,1.85,2.025,2.803c1.489,1.906,3.222,3.817,5.07,5.711c0.926,0.944,1.87,1.905,2.848,2.833l1.462,1.406
				c0.466,0.463,1.024,0.953,1.387,1.352l0.699,0.767c2.232,2.45,2.055,6.246-0.395,8.478c-1.616,1.472-3.826,1.893-5.778,1.308
				c-0.912-0.276-1.612-0.495-2.393-0.759c-0.755-0.266-1.504-0.539-2.248-0.825c-1.475-0.593-2.945-1.219-4.387-1.925
				c-1.435-0.717-2.879-1.456-4.289-2.301c-1.405-0.851-2.805-1.758-4.195-2.749c-2.733-2.044-5.473-4.372-7.955-7.521
				c-1.249-1.553-2.411-3.373-3.411-5.46c-1.002-2.085-1.781-4.508-2.144-7.188c-0.067-0.494-0.076-0.983-0.034-1.46l0.094-0.96
				c0.469-4.874,1.501-9.35,2.862-13.554c0.666-2.112,1.416-4.145,2.196-6.153c0.806-1.996,1.674-3.931,2.566-5.846
				c0.886-1.918,1.838-3.78,2.834-5.612c0.997-1.83,1.995-3.65,3.082-5.411c1.082-1.764,2.167-3.522,3.339-5.232
				c0.586-0.857,1.167-1.716,1.782-2.566l0.939-1.28c0.333-0.452,0.611-0.814,1.049-1.375c4.079-5.223,11.619-6.15,16.841-2.072
				c4.969,3.88,6.05,10.894,2.631,16.064L112.229,177.319z"/>
			<g>
				<path style="fill:#407BFF;" d="M109.051,149.856c-20.086,4.796-30.575,26.675-30.575,26.675
					c1.744,7.556,17.945,21.018,26.368,21.116c0,0,13.141-15.099,17.948-27.062C127.241,159.51,120.822,147.046,109.051,149.856z"/>
			</g>
		</g>
		<path style="fill:#FFFFFF;" d="M127.698,240.846l10.751,2.803c1.424,0.371,2.939,0.113,4.159-0.709l-14.127-3.684l-0.75-0.462
			l0.657-0.429l14.029-4.042c-1.241-0.791-2.762-1.01-4.176-0.603l-10.676,3.076l-1.295,1.096l-2.783-1.715
			c0.616-0.322,1.065-0.816,1.227-1.439c0.096-0.37,0.083-0.75-0.023-1.119c-0.314-1.091-1.441-2.091-2.954-2.486
			c-2.026-0.528-3.977,0.23-4.358,1.692c-0.097,0.37-0.083,0.75,0.023,1.12c0.314,1.091,1.441,2.091,2.954,2.486
			c0.692,0.18,1.373,0.207,1.987,0.111l2.833,2.276l-2.854,2.415c-0.617-0.081-1.297-0.036-1.984,0.162
			c-1.817,0.523-3.042,1.918-2.954,3.254c-0.159,0.114-1.758,1.321-1.23,3.152c0.004,0.014,0.008,0.028,0.012,0.043l0.879-0.268
			c-0.003-0.009-0.005-0.018-0.008-0.027c-0.264-0.915,0.305-1.624,0.65-1.955c0.689,1.093,2.411,1.567,4.166,1.062
			c2.011-0.579,3.303-2.227,2.884-3.68c-0.178-0.619-0.639-1.1-1.264-1.407l2.83-1.845L127.698,240.846z M120.588,235.543
			c-1.144-0.299-2.07-1.042-2.302-1.851c-0.063-0.22-0.069-0.433-0.017-0.634c0.146-0.559,0.693-0.846,1.006-0.968
			c0.635-0.247,1.449-0.271,2.231-0.067c1.144,0.298,2.07,1.042,2.303,1.851c0.063,0.22,0.069,0.433,0.017,0.633
			C123.576,235.462,122.094,235.936,120.588,235.543z M123.855,243.232c0.273,0.947-0.76,2.111-2.256,2.542
			c-1.495,0.431-2.99-0.005-3.262-0.952c-0.273-0.947,0.76-2.112,2.256-2.542C122.088,241.849,123.582,242.285,123.855,243.232z"/>
		<path style="fill:#FFC3BD;" d="M105.945,229.784l-4.306,5.648c-2.128,7.153,7.542,8.299,7.542,8.299l4.427,2.429
			c1.501,0.823,3.49,0.28,4.701-1.282l3.041-3.926c1.386-1.789,1.258-4.255-0.284-5.467l-3.465-2.722
			c-1.008-0.792-2.197-1.322-3.46-1.544L105.945,229.784z"/>
	</g>
</g>
<g id="Character_2">
	<g>
		<g>
			<path style="fill:#407BFF;" d="M289.172,215.396c0.808-0.619-0.768-2.474-2.33-2.74c-21.54-3.663-39.025,10.018-42.096,21.381
				c-4.013,14.848,13.564,33.859,5.351,52.218c-8.213,18.359-14.108,34.912-2.204,51.315c2.549-13.243,38.002-4.665,62.416-5.718
				s32.79-7.777,15.745-23.779C309.745,292.761,269.814,230.23,289.172,215.396z"/>
			<path style="fill:#ED893E;" d="M289.406,187.743l1.691,6.988c0,0,2.812-0.044,4.091-1.619
				C293.398,189.742,289.406,187.743,289.406,187.743z"/>
			<path style="fill:#263238;" d="M289.595,186.37c0.208,0.829,0.815,1.388,1.357,1.247c0.542-0.141,0.812-0.928,0.605-1.757
				c-0.208-0.829-0.815-1.388-1.357-1.247C289.658,184.753,289.388,185.54,289.595,186.37z"/>
			<path style="fill:#263238;" d="M290.263,181.017c-0.15,0.062-0.327,0.05-0.471-0.048c-1.825-1.245-3.507-0.577-3.577-0.548
				c-0.256,0.105-0.548-0.016-0.652-0.272c-0.104-0.256,0.016-0.549,0.271-0.657c0.093-0.037,2.239-0.918,4.525,0.642
				c0.228,0.156,0.286,0.469,0.13,0.7C290.431,180.918,290.351,180.98,290.263,181.017z"/>
			<path style="fill:#FFB573;" d="M293.273,216.307c-0.727-1.35-2.74-3.364-4.742-3.97c-0.799-1.664-1.009-3.563-0.508-5.835
				l-22.321-5.634c2.213,7.129,3.946,12.763,1.471,16.442c4.463,2.364,12.638,6.599,21.223,5.828
				C296.981,222.369,294.86,219.257,293.273,216.307z"/>
			<path style="fill:#FFB573;" d="M260.757,189.972c3.177,10.025,5.55,16.765,12.536,19.587c13.879,5.606,19.539-1.712,19.42-12.513
				c-0.107-9.722-5.284-24.484-16.262-25.948C265.635,169.656,257.581,179.946,260.757,189.972z"/>
			<path style="fill:#263238;" d="M282.179,191.884c3.033-0.351,5.91-2.567,5.91-2.567s-5.007-5.111-4.63-7.785
				c0.376-2.674,3.536-2.899,4.138-7.339c0,0,3.08-0.226,4.7-1.655c-4.549-0.376-8.086-1.731-14.557,0
				c-6.471,1.731-12.114,5.342-13.694,9.33c-5.493-0.677-10.684-0.783-12.114-2.461c-0.376,3.815,1.754,6.373,1.754,6.373
				s-1.956,3.837-1.279,6.471c1.731-2.784,3.16-2.703,3.16-2.703s1.33,12.56,11.927,17.441c5.13,1.514,10.948-1.496,10.948-1.496
				S286.619,198.514,282.179,191.884z"/>
			<path style="fill:#263238;" d="M284.13,174.042c5.396-4.684,6.456-12.648,5.276-14.32c-5.421,5.819-9.168,5.244-12.819,7.047
				c2.055-3.105,1.565-6.405,1.565-6.405s-5.252,6.914-12.79,8.261c-7.538,1.347-8.379,3.65-8.379,3.65s0.684-3.273-0.669-5.481
				c-3.937,5.402-2.05,8.328-0.546,9.858c-1.179,0.752-3.505-0.063-3.505-0.063s2,7.311,8.586,8.361
				C267.889,187.756,284.13,174.042,284.13,174.042z"/>
			<path style="fill:#FFB573;" d="M279.191,194.081c1.355,2.086,3.554,3.344,5.569,3.725c3.03,0.574,4.311-2.202,3.272-4.927
				c-0.935-2.453-3.638-5.708-6.586-5.05C278.543,188.477,277.641,191.696,279.191,194.081z"/>
			<g>
				<g>
					<polygon style="fill:#FFB573;" points="348.476,389.388 332.65,383.871 332.151,397.404 345.373,402.029 					"/>
					<polygon style="opacity:0.2;" points="348.472,389.391 332.64,383.872 332.364,391.452 346.737,396.471 					"/>
				</g>
				<g>
					<path d="M327.726,403.297l1.709,0.508c1.018,0.302,2.119,0.076,2.936-0.602l0,0l0.711,0.998c0.411,0.577,1.004,1,1.684,1.202
						L355,410.342c0.99-1.885,0.511-4.871,0.511-4.871s-6.997-1.603-8.423-5.296c-0.11-0.284-0.352-0.493-0.656-0.518
						c-2.098-0.173-10.289-1.01-14.281-3.786c-0.53-0.368-1.256-0.098-1.457,0.515C329.595,399.759,327.726,403.297,327.726,403.297
						z"/>
				</g>
			</g>
			<path d="M248.986,297.931l0.112,14.561c0.173,21.481,18.382,40.655,40.127,42.271c12.691,0.935,29.844-2.729,39.741-2.922
				c1.443,15.038-0.481,22.945,0.397,36.605l20.921,4.654c5.726-17.316,12.316-37.27,13.007-54.412
				c0.264-6.686-3.871-13.26-10.253-16.4C320.979,306.507,248.986,297.931,248.986,297.931z"/>
			<g>
				<g>
					<polygon style="fill:#FFB573;" points="382.469,393.073 365.841,392.291 367.322,405.406 381.217,406.075 					"/>
					<polygon style="opacity:0.2;" points="382.466,393.078 365.831,392.294 366.664,399.639 381.767,400.359 					"/>
				</g>
				<g>
					<path style="fill:#263238;" d="M365.295,412.315h1.783c1.062,0,2.053-0.53,2.643-1.413l0,0l0.966,0.754
						c0.559,0.436,1.247,0.673,1.956,0.673h19.801c0.412-2.089-0.897-4.814-0.897-4.814s-6.163-0.571-8.58-3.705
						c-0.186-0.241-0.478-0.372-0.776-0.31c-2.061,0.432-10.151,1.961-14.768,0.437c-0.613-0.202-1.232,0.264-1.25,0.909
						C366.079,408.391,365.295,412.315,365.295,412.315z"/>
				</g>
			</g>
			<path style="fill:#263238;" d="M294.453,297.931l-9.583,14.584c0.173,21.481,25.875,36.203,47.62,37.819
				c10.746,0.791,15.243,1.124,22.378,1.09c2.227-0.011,4.027,1.782,4.048,4.009c0.103,10.98,3.224,29.345,5.561,41.154
				l19.521,1.716c3.412-17.916,5.961-47.13,6.652-64.272c0.264-6.686-4.981-15.179-11.156-18.707
				C343.249,294.61,294.453,297.931,294.453,297.931z"/>
			<g>
				<path style="fill:#407BFF;" d="M293.732,211.43c-8.886,0.069-17.305,1.467-24.903,3.043c-12.928,2.682-22.181,14.07-22.1,27.273
					c0.175,28.591,1.977,49.551,1.601,58.085c-0.055,1.239,0.795,2.327,2.014,2.553c12.325,2.29,78.1,13.505,88.12-5.923
					c14.82-24.238-15.12-35.047-23.832-69.038C312.366,218.584,302.858,211.36,293.732,211.43z"/>
				<path style="opacity:0.3;fill:#FFFFFF;" d="M293.732,211.43c-8.886,0.069-17.305,1.467-24.903,3.043
					c-12.928,2.682-22.181,14.07-22.1,27.273c0.175,28.591,1.977,49.551,1.601,58.085c-0.055,1.239,0.795,2.327,2.014,2.553
					c12.325,2.29,78.1,13.505,88.12-5.923c14.82-24.238-15.12-35.047-23.832-69.038C312.366,218.584,302.858,211.36,293.732,211.43z
					"/>
			</g>
			<g>
				<path style="fill:#FFB573;" d="M319.93,236.493l1.423,4.061l1.465,4.23l2.977,8.445c0.498,1.403,1.017,2.791,1.547,4.17
					c0.503,1.39,1.025,2.768,1.56,4.131c1.077,2.729,2.2,5.381,3.341,7.997l-0.765-1.193c0.179,0.47,0.998,1.548,1.871,2.585
					c0.896,1.063,1.941,2.179,3.027,3.316c2.186,2.262,4.551,4.581,6.956,6.903l7.324,7.047c2.443,2.38,4.963,4.782,7.32,7.248
					l0.106,0.111c2.5,2.616,2.406,6.762-0.209,9.262c-1.894,1.81-4.595,2.256-6.888,1.374c-3.419-1.322-6.611-2.807-9.834-4.376
					c-1.592-0.803-3.195-1.601-4.772-2.448c-1.572-0.854-3.141-1.73-4.712-2.623c-3.124-1.817-6.217-3.737-9.308-5.933
					c-1.554-1.088-3.096-2.263-4.69-3.594c-1.607-1.363-3.2-2.774-5.09-5.073l-0.766-1.193c-1.901-2.94-3.685-5.918-5.278-8.935
					c-0.806-1.506-1.589-3.015-2.349-4.529c-0.734-1.525-1.449-3.054-2.138-4.587c-1.4-3.06-2.635-6.171-3.809-9.303
					c-0.561-1.575-1.145-3.143-1.647-4.748l-0.758-2.417c-0.242-0.836-0.467-1.592-0.721-2.569
					c-1.794-6.923,2.363-13.99,9.286-15.784c6.553-1.698,13.236,1.936,15.452,8.202L319.93,236.493z"/>
			</g>
			<path style="fill:#FFB573;" d="M355.176,295.97l-5.215,4.279c-3.532,6.146,5.156,9.32,5.156,9.32l3.561,3.214
				c1.207,1.089,3.164,1.022,4.625-0.158l3.669-2.964c1.672-1.351,2.093-3.658,0.933-5.115l-2.607-3.274
				c-0.759-0.953-1.741-1.703-2.86-2.183L355.176,295.97z"/>
			<path style="fill:#407BFF;" d="M299.222,213.456c4.464-1.64,15.323,5.351,16.501,13.309c1.896,1.123,2.377,12.44,6.987,17.441
				c4.61,5.001,5.028,14.001,1.492,17.347c-6.529,6.177-16.837,10.943-22.212,7.885c-3.522-2.004-6.162-14.319-8.955-21.963
				C290.301,239.99,291.3,216.366,299.222,213.456z"/>
		</g>
		<g>
			
				<rect x="306.393" y="364.821" transform="matrix(-1 -1.224647e-16 1.224647e-16 -1 621.366 757.1608)" style="fill:#E0E0E0;" width="8.581" height="27.518"/>
			<path style="fill:#407BFF;" d="M304.699,387.351h11.968l0.849,20.876c0.091,2.238-1.699,4.103-3.939,4.103h-5.788
				c-2.24,0-4.03-1.864-3.939-4.103L304.699,387.351z"/>
			<path style="fill:#263238;" d="M295.363,407.274h30.641c0.774,0,1.463,0.491,1.715,1.223l1.571,4.557
				c0.406,1.178-0.469,2.405-1.715,2.405h-33.782c-1.246,0-2.121-1.227-1.715-2.405l1.571-4.557
				C293.9,407.766,294.589,407.274,295.363,407.274z"/>
			<path style="fill:#407BFF;" d="M296.225,366.345h28.917c3.217,0,5.992-2.26,6.643-5.411l0.914-4.428h-44.032l0.915,4.428
				C290.232,364.085,293.007,366.345,296.225,366.345z"/>
			
				<rect x="362.116" y="284.692" transform="matrix(0.6516 -0.7586 0.7586 0.6516 -91.4176 375.0766)" style="fill:#407BFF;" width="1" height="4.735"/>
			<path style="fill:#407BFF;" d="M358.147,283.882c-3.611-3.103-6.979-6.77-10.295-11.21l0.801-0.599
				c3.273,4.381,6.591,7.995,10.147,11.05L358.147,283.882z"/>
			<path style="fill:#407BFF;" d="M266.668,214.919c-1.252-0.619-1.005-2.474,0.367-2.74c18.915-3.663,37.918-3.135,48.352,8.439
				c11.152,12.371,19.764,46.801,41.133,65.16c21.369,18.359,39.047,32.894,38.897,49.296c-12.039-13.243-41.341-5.905-66.435-3.7
				c-14.007,1.231-20.333-7.106-23.796-23.694C301.87,291.807,296.655,229.752,266.668,214.919z"/>
			<g>
				<path style="fill:#407BFF;" d="M269.983,216.816c3.203-1.986,7.234-5.392,4.002-6.986c-3.232-1.594-4.898-0.498-4.949,0.957
					C268.987,212.241,266.413,219.03,269.983,216.816z"/>
				<path style="fill:#407BFF;" d="M268.023,216.421c1.733-2.456,3.632-6.214,0.762-6.377c-2.87-0.164-3.752,1.161-3.336,2.245
					C265.865,213.372,266.09,219.16,268.023,216.421z"/>
				<path style="fill:#407BFF;" d="M267.093,211.815c-3.361-2.361-6.885,1.43-8.69-1.58c-1.655,5.518,5.819,6.922,8.778,5.066
					C267.933,213.245,267.093,211.815,267.093,211.815z"/>
			</g>
			<g>
				<path style="fill:#407BFF;" d="M204.391,237.47c0.965-1.112,2.365-1.75,3.836-1.75l67.637,0.003c2.53,0,4.674,1.862,5.03,4.366
					l9.498,66.887c3.449,24.289,24.46,42.605,48.873,42.606l14.367,0.002c2.807,0,5.081,2.275,5.081,5.081s-2.275,5.081-5.081,5.081
					l-82.004-0.004c-29.442-0.001-54.779-22.072-58.933-51.339l-9.498-66.887C202.99,240.057,203.426,238.581,204.391,237.47z"/>
				<path style="opacity:0.3;" d="M204.391,237.47c0.965-1.112,2.365-1.75,3.836-1.75l67.637,0.003c2.53,0,4.674,1.862,5.03,4.366
					l9.498,66.887c3.449,24.289,24.46,42.605,48.873,42.606l14.367,0.002c2.807,0,5.081,2.275,5.081,5.081s-2.275,5.081-5.081,5.081
					l-82.004-0.004c-29.442-0.001-54.779-22.072-58.933-51.339l-9.498-66.887C202.99,240.057,203.426,238.581,204.391,237.47z"/>
			</g>
		</g>
	</g>
</g>
<g id="Mirror">
	<g>
		<rect x="332.156" y="94.778" style="fill:#407BFF;" width="90.145" height="135.616"/>
		<rect x="332.156" y="94.778" style="opacity:0.7;fill:#FFFFFF;" width="88.555" height="135.616"/>
		<g style="opacity:0.2;">
			<defs>
				<rect id="SVGID_1_" x="332.156" y="94.778" style="opacity:0.2;" width="88.555" height="135.616"/>
			</defs>
			<clipPath id="SVGID_00000024724127992552063040000004535453737821535620_">
				<use xlink:href="#SVGID_1_"  style="overflow:visible;"/>
			</clipPath>
			<g style="clip-path:url(#SVGID_00000024724127992552063040000004535453737821535620_);">
				<path style="fill:#407BFF;" d="M406.873,286.255c-8.213-18.359,5.637-36.84,5.351-52.218
					c-0.167-8.968-8.056-18.989-22.281-21.855c-0.003-0.001-0.005-0.002-0.007-0.003c-0.011-0.002-0.022-0.004-0.034-0.006
					c-0.127-0.025-0.256-0.047-0.384-0.072c-18.776-3.575-37.577-2.971-47.934,8.517c-11.152,12.371-19.763,46.801-41.132,65.16
					c-21.369,18.359-39.047,32.894-38.896,49.296c12.039-13.243,41.341-5.905,66.435-3.7c2.984,0.262,5.601,0.064,7.934-0.529
					c3.116,0.5,6.702,0.832,10.737,1.007c24.414,1.053,59.867-7.524,62.416,5.718C420.981,321.168,415.086,304.615,406.873,286.255z
					"/>
				<path style="fill:#263238;" d="M405.038,179.408c-0.441,0.518-1.243,0.885-2.3,1.167c1.426-2.032,1.967-3.986,1.967-3.986
					s-2.326,0.815-3.504,0.063c1.505-1.53,3.391-4.457-0.545-9.858c-1.353,2.208-0.668,5.481-0.668,5.481s-0.841-2.302-8.379-3.649
					c-7.538-1.348-12.789-8.261-12.789-8.261s-0.49,3.3,1.565,6.405c-3.651-1.803-7.398-1.228-12.819-7.046
					c-1.007,1.427-0.373,7.428,3.183,12.069c-2.068,0.19-3.963,0.572-6.074,0.747c1.62,1.43,4.7,1.656,4.7,1.656
					c0.602,4.439,3.762,4.665,4.139,7.338c0.376,2.674-4.631,7.785-4.631,7.785s2.877,2.215,5.91,2.567
					c-4.439,6.63,3.738,13.61,3.738,13.61s7.885-1.821,13.014-3.335c9.634-3.493,9.86-12.611,9.86-12.611s1.429-0.081,3.16,2.703
					c0.677-2.634-1.279-6.471-1.279-6.471S405.415,183.223,405.038,179.408z"/>
				<path style="fill:#FFB573;" d="M388.731,214.6c-2.89,3.75-11.82,4.79-18.44,4.44c-4.85-0.25-5.93-2.72-4.8-4.9
					c0.86-0.79,1.91-1.49,2.95-1.8c0.8-1.67,1.01-3.57,0.51-5.84l22.32-5.63C389.541,206.43,388.112,211.07,388.731,214.6z"/>
				<path style="fill:#263238;" d="M372.675,173.841c-5.393,2.196-7.433,8.643-7.433,8.643s2.525-0.075,3.497-0.67
					c-1.478,3.049-5.703,5.191-5.703,5.191s7.173,2.79,12.889-0.331c3.001-1.639,3.29-11.886,3.29-11.886L372.675,173.841z"/>
				<path style="opacity:0.2;" d="M368.951,206.5c0.46,2.09,0.32,3.87-0.33,5.44c3.09,1.38,7.39,1.24,13.05-1.05
					c4.41-1.78,6.99-5.13,9.08-9.89L368.951,206.5z"/>
				<path style="fill:#FFB573;" d="M396.213,189.972c-3.177,10.025-4.991,15.54-11.977,18.362
					c-13.879,5.606-20.097-0.486-19.979-11.287c0.107-9.722,5.284-24.484,16.262-25.948
					C391.335,169.656,399.39,179.946,396.213,189.972z"/>
				<path style="fill:#263238;" d="M387.455,179.211c2.5,5.567,1.35,10.198-1.167,12.026c0.703,1.355,3.083,2.43,6.052,2.513
					c-1.885,6.417-0.797,8.41-0.797,8.41l7.578-11.493c0,0,0.305-9.611-2.208-13.222
					C394.399,173.833,387.455,179.211,387.455,179.211z"/>
				<path style="fill:#263238;" d="M367.299,181.017c0.15,0.062,0.327,0.05,0.471-0.048c1.825-1.245,3.507-0.577,3.577-0.548
					c0.256,0.105,0.548-0.016,0.652-0.272c0.104-0.256-0.016-0.549-0.271-0.657c-0.093-0.037-2.239-0.918-4.525,0.642
					c-0.228,0.156-0.286,0.469-0.13,0.7C367.131,180.918,367.21,180.98,367.299,181.017z"/>
				<path style="fill:#263238;" d="M380.56,181.898c0.029,0.16,0.134,0.303,0.294,0.371c2.031,0.868,2.373,2.645,2.386,2.721
					c0.049,0.272,0.309,0.453,0.58,0.403c0.272-0.05,0.454-0.309,0.408-0.582c-0.019-0.098-0.431-2.381-2.976-3.469
					c-0.254-0.109-0.549,0.011-0.66,0.267C380.552,181.704,380.543,181.804,380.56,181.898z"/>
				<path style="fill:#263238;" d="M370.126,186.37c-0.208,0.829-0.815,1.388-1.357,1.247c-0.542-0.141-0.813-0.928-0.605-1.757
					c0.208-0.829,0.815-1.388,1.357-1.247C370.064,184.753,370.334,185.54,370.126,186.37z"/>
				<path style="fill:#263238;" d="M379.97,188.52c-0.208,0.83-0.815,1.388-1.357,1.247c-0.542-0.141-0.813-0.928-0.605-1.757
					c0.208-0.83,0.815-1.388,1.357-1.247C379.907,186.904,380.178,187.691,379.97,188.52z"/>
				<path style="fill:#ED893E;" d="M372.037,187.743l-1.691,6.988c0,0-2.812-0.044-4.091-1.619
					C368.044,189.742,372.037,187.743,372.037,187.743z"/>
				<path style="fill:#FFB573;" d="M397.224,194.081c-1.355,2.086-3.554,3.344-5.569,3.725c-3.03,0.574-4.311-2.202-3.272-4.927
					c0.935-2.453,3.638-5.708,6.586-5.05C397.871,188.477,398.773,191.696,397.224,194.081z"/>
				<path style="fill:#263238;" d="M373.36,198.966c-0.557,0.024-1.147,0.002-1.769-0.082c-0.168-0.023-0.276-0.179-0.241-0.351
					c0.035-0.17,0.195-0.29,0.368-0.268c4.544,0.615,7.336-2.331,7.364-2.361c0.121-0.132,0.318-0.146,0.44-0.034
					c0.122,0.112,0.122,0.31,0.001,0.44C379.417,196.425,377.17,198.799,373.36,198.966z"/>
				<path style="fill:#263238;" d="M397.621,178.692c-5.889,2.632-15.944,2.054-19.389,0.835c4.667-0.064,6.646-1.669,6.646-1.669
					s-8.247,1.279-12.312-4.751c7.167-3.66,13.35-4.774,18.703-2.483C396.621,172.913,397.621,178.692,397.621,178.692z"/>
			</g>
		</g>
		<polygon style="opacity:0.2;fill:#FFFFFF;" points="389.557,230.288 375.613,230.288 402.068,94.778 416.011,94.778 		"/>
		<polygon style="opacity:0.2;fill:#FFFFFF;" points="370.178,230.288 356.235,230.288 382.689,94.778 396.633,94.778 		"/>
	</g>
</g>
</svg>
