<?xml version="1.0" encoding="utf-8"?>
<!-- Generator: Adobe Illustrator 27.5.0, SVG Export Plug-In . SVG Version: 6.00 Build 0)  -->
<svg version="1.1" xmlns="http://www.w3.org/2000/svg" xmlns:xlink="http://www.w3.org/1999/xlink" x="0px" y="0px"
	 viewBox="0 0 500 500" style="enable-background:new 0 0 500 500;" xml:space="preserve">
<g id="Background_Complete">
	<g>
		<rect y="382.398" style="fill:#EBEBEB;" width="500" height="0.25"/>
		<rect x="416.779" y="398.494" style="fill:#EBEBEB;" width="33.122" height="0.25"/>
		<rect x="322.527" y="401.208" style="fill:#EBEBEB;" width="8.693" height="0.25"/>
		<rect x="396.586" y="389.208" style="fill:#EBEBEB;" width="19.192" height="0.25"/>
		<rect x="52.459" y="390.888" style="fill:#EBEBEB;" width="43.193" height="0.25"/>
		<rect x="104.556" y="390.888" style="fill:#EBEBEB;" width="6.333" height="0.25"/>
		<rect x="131.471" y="395.111" style="fill:#EBEBEB;" width="93.676" height="0.25"/>
		<path style="fill:#EBEBEB;" d="M237.014,337.8H43.915c-3.147,0-5.708-2.561-5.708-5.708V60.66c0-3.147,2.561-5.708,5.708-5.708
			h193.099c3.146,0,5.707,2.561,5.707,5.708v271.432C242.721,335.239,240.16,337.8,237.014,337.8z M43.915,55.203
			c-3.01,0-5.458,2.448-5.458,5.458v271.432c0,3.01,2.448,5.458,5.458,5.458h193.099c3.009,0,5.457-2.448,5.457-5.458V60.66
			c0-3.009-2.448-5.458-5.457-5.458H43.915z"/>
		<path style="fill:#EBEBEB;" d="M453.31,337.8H260.212c-3.147,0-5.707-2.561-5.707-5.708V60.66c0-3.147,2.561-5.708,5.707-5.708
			H453.31c3.148,0,5.708,2.561,5.708,5.708v271.432C459.019,335.239,456.458,337.8,453.31,337.8z M260.212,55.203
			c-3.009,0-5.457,2.448-5.457,5.458v271.432c0,3.01,2.448,5.458,5.457,5.458H453.31c3.01,0,5.458-2.448,5.458-5.458V60.66
			c0-3.009-2.448-5.458-5.458-5.458H260.212z"/>
	</g>
	<g>
		<g>
			<rect x="89.28" y="133.045" style="fill:#EBEBEB;" width="107.031" height="110.593"/>
			<rect x="93.018" y="133.045" style="fill:#F0F0F0;" width="107.031" height="110.593"/>
			<rect x="95.717" y="135.667" style="fill:#E0E0E0;" width="101.495" height="105.401"/>
			<rect x="95.716" y="135.666" style="fill:#F5F5F5;" width="98.961" height="105.399"/>
			<rect x="144.211" y="135.667" style="fill:#EBEBEB;" width="2.009" height="105.401"/>
			<polygon style="fill:#FFFFFF;" points="132.641,135.666 104.435,241.065 101.728,241.065 129.934,135.666 			"/>
			<rect x="145.359" y="134.041" style="fill:#F0F0F0;" width="1.723" height="109.047"/>
			<polygon style="fill:#FFFFFF;" points="122.404,135.666 95.716,235.412 95.716,180.585 107.733,135.666 			"/>
			<polygon style="fill:#FFFFFF;" points="194.676,145.23 194.676,155.347 171.735,241.065 169.028,241.065 			"/>
			<polygon style="fill:#FFFFFF;" points="194.676,165.659 194.676,220.486 189.173,241.065 174.501,241.065 			"/>
		</g>
		<g>
			<path style="fill:#F5F5F5;" d="M183.635,374.252h22.336l-11.742-95.634c-0.497-4.048-4.182-7.33-8.23-7.33h-7.676H88.537
				l14.287,102.964H183.635z"/>
			<path style="fill:#F0F0F0;" d="M112.794,374.252H90.458l-11.742-95.634c-0.497-4.048,2.382-7.33,6.43-7.33h7.676
				c4.048,0,7.733,3.282,8.23,7.33L112.794,374.252z"/>
			<g>
				<path style="fill:#E6E6E6;" d="M121.023,374.138l-4.047-46.256c-0.181-2.066-1.777-3.727-3.834-3.989l-1.664-0.212
					c-2.76-0.352-4.901-2.58-5.144-5.351l-0.738-8.434c-0.302-3.457,2.422-6.43,5.892-6.43H74.16c-3.47,0-6.194,2.973-5.892,6.43
					l0.738,8.434c0.242,2.771,2.384,4.999,5.143,5.351l1.664,0.212c2.057,0.262,3.653,1.923,3.834,3.989l4.047,46.256
					c0.295,3.372,3.119,5.96,6.504,5.96h37.329C124.142,380.098,121.318,377.511,121.023,374.138z"/>
			</g>
			<path style="fill:#E6E6E6;" d="M223.749,316.302c0.635-7.264,6.718-12.837,14.009-12.837h-18.062H205.26
				c-7.292,0-13.374,5.573-14.01,12.837l-3.208,36.667h32.498L223.749,316.302z"/>
			<path style="fill:#F0F0F0;" d="M252.194,303.465h-14.436c-7.292,0-13.374,5.573-14.009,12.837l-3.208,36.667h-77.399
				l-3.208-36.667c-0.636-7.264-6.718-12.837-14.009-12.837h-14.436c-3.47,0-6.194,2.973-5.892,6.43l0.738,8.434
				c0.243,2.771,2.384,4.999,5.144,5.351l1.664,0.212c2.057,0.262,3.654,1.923,3.834,3.989l4.047,46.256
				c0.295,3.372,3.119,5.96,6.504,5.96h108.628c3.385,0,6.209-2.588,6.504-5.96l4.047-46.256c0.181-2.066,1.777-3.727,3.834-3.989
				l1.664-0.212c2.76-0.352,4.901-2.58,5.143-5.352l0.738-8.434C258.388,306.439,255.664,303.465,252.194,303.465z"/>
		</g>
		<g>
			
				<rect x="284.578" y="189.301" transform="matrix(-1 -6.636841e-07 6.636841e-07 -1 719.8303 569.3994)" style="fill:#F0F0F0;" width="150.674" height="190.797"/>
			<g>
				
					<rect x="289.904" y="196.255" transform="matrix(-1 -7.141714e-07 7.141714e-07 -1 719.8304 433.3094)" style="fill:#E0E0E0;" width="140.022" height="40.799"/>
				
					<rect x="421.972" y="202.86" transform="matrix(-1 -1.224647e-16 1.224647e-16 -1 851.8988 439.9141)" style="fill:#EBEBEB;" width="7.954" height="34.194"/>
				
					<rect x="383.511" y="202.86" transform="matrix(-1 -1.224647e-16 1.224647e-16 -1 774.9758 439.9141)" style="fill:#EBEBEB;" width="7.954" height="34.194"/>
				
					<rect x="336.886" y="202.433" transform="matrix(-0.9855 -0.1698 0.1698 -0.9855 639.4907 493.7606)" style="fill:#EBEBEB;" width="7.954" height="34.195"/>
				
					<rect x="412.116" y="207.366" transform="matrix(-1 -1.224647e-16 1.224647e-16 -1 832.1868 444.4203)" style="fill:#EBEBEB;" width="7.954" height="29.688"/>
				
					<rect x="393.834" y="207.366" transform="matrix(-1 -1.224647e-16 1.224647e-16 -1 795.6214 444.4203)" style="fill:#EBEBEB;" width="7.954" height="29.688"/>
				
					<rect x="347.686" y="207.366" transform="matrix(-1 -1.224647e-16 1.224647e-16 -1 703.3264 444.4201)" style="fill:#EBEBEB;" width="7.954" height="29.688"/>
				
					<rect x="369.749" y="206.857" transform="matrix(-0.9762 -0.2169 0.2169 -0.9762 690.4662 519.1866)" style="fill:#EBEBEB;" width="7.954" height="29.688"/>
				
					<rect x="405.238" y="201.162" transform="matrix(-1 -1.224647e-16 1.224647e-16 -1 814.4537 438.2164)" style="fill:#EBEBEB;" width="3.977" height="35.892"/>
				
					<rect x="357.927" y="201.162" transform="matrix(-1 -2.514395e-05 2.514395e-05 -1 719.825 438.2253)" style="fill:#EBEBEB;" width="3.977" height="35.892"/>
			</g>
			<g>
				<rect x="289.904" y="243.515" style="fill:#E0E0E0;" width="140.022" height="40.799"/>
				<rect x="289.904" y="250.12" style="fill:#EBEBEB;" width="7.954" height="34.194"/>
				<rect x="328.366" y="250.12" style="fill:#EBEBEB;" width="7.954" height="34.194"/>
				
					<rect x="374.99" y="249.693" transform="matrix(0.9855 -0.1698 0.1698 0.9855 -39.8074 68.2432)" style="fill:#EBEBEB;" width="7.954" height="34.194"/>
				<rect x="299.76" y="254.626" style="fill:#EBEBEB;" width="7.954" height="29.688"/>
				<rect x="318.043" y="254.626" style="fill:#EBEBEB;" width="7.954" height="29.688"/>
				<rect x="364.19" y="254.626" style="fill:#EBEBEB;" width="7.954" height="29.688"/>
				
					<rect x="342.128" y="254.116" transform="matrix(0.9762 -0.2169 0.2169 0.9762 -50.0991 81.4751)" style="fill:#EBEBEB;" width="7.954" height="29.688"/>
				<rect x="310.615" y="248.422" style="fill:#EBEBEB;" width="3.977" height="35.892"/>
				<rect x="357.927" y="248.422" style="fill:#EBEBEB;" width="3.977" height="35.892"/>
				
					<rect x="421.972" y="250.12" transform="matrix(-1 -1.224647e-16 1.224647e-16 -1 851.8988 534.4337)" style="fill:#EBEBEB;" width="7.954" height="34.194"/>
				
					<rect x="412.116" y="254.626" transform="matrix(-1 -1.224647e-16 1.224647e-16 -1 832.1868 538.9398)" style="fill:#EBEBEB;" width="7.954" height="29.688"/>
				
					<rect x="393.834" y="254.626" transform="matrix(-1 -1.224647e-16 1.224647e-16 -1 795.6214 538.9398)" style="fill:#EBEBEB;" width="7.954" height="29.688"/>
				
					<rect x="405.238" y="248.422" transform="matrix(-1 -1.224647e-16 1.224647e-16 -1 814.4537 532.736)" style="fill:#EBEBEB;" width="3.977" height="35.892"/>
			</g>
			<g>
				
					<rect x="289.904" y="290.774" transform="matrix(-1 -7.141714e-07 7.141714e-07 -1 719.8304 622.3486)" style="fill:#E0E0E0;" width="140.022" height="40.799"/>
				<g>
					
						<rect x="341.604" y="297.379" transform="matrix(-1 -1.224647e-16 1.224647e-16 -1 691.1624 628.9531)" style="fill:#EBEBEB;" width="7.954" height="34.194"/>
					
						<rect x="294.979" y="296.952" transform="matrix(-0.9855 -0.1698 0.1698 -0.9855 540.2335 674.3096)" style="fill:#EBEBEB;" width="7.954" height="34.194"/>
					
						<rect x="370.21" y="301.886" transform="matrix(-1 -1.224647e-16 1.224647e-16 -1 748.3735 633.4595)" style="fill:#EBEBEB;" width="7.954" height="29.688"/>
					
						<rect x="351.927" y="301.885" transform="matrix(-1 -1.224647e-16 1.224647e-16 -1 711.808 633.4593)" style="fill:#EBEBEB;" width="7.954" height="29.688"/>
					
						<rect x="305.779" y="301.885" transform="matrix(-1 -1.224647e-16 1.224647e-16 -1 619.513 633.4593)" style="fill:#EBEBEB;" width="7.954" height="29.688"/>
					
						<rect x="327.842" y="301.376" transform="matrix(-0.9762 -0.2169 0.2169 -0.9762 587.1488 696.8856)" style="fill:#EBEBEB;" width="7.954" height="29.688"/>
					
						<rect x="363.332" y="295.682" transform="matrix(-1 -1.224647e-16 1.224647e-16 -1 730.6403 627.2557)" style="fill:#EBEBEB;" width="3.977" height="35.892"/>
					
						<rect x="316.02" y="295.682" transform="matrix(-1 -1.224647e-16 1.224647e-16 -1 636.0172 627.2555)" style="fill:#EBEBEB;" width="3.977" height="35.892"/>
					
						<rect x="386.49" y="296.952" transform="matrix(-0.9855 -0.1698 0.1698 -0.9855 721.9241 689.8521)" style="fill:#EBEBEB;" width="7.954" height="34.194"/>
					
						<rect x="397.29" y="301.886" transform="matrix(-1 -1.224647e-16 1.224647e-16 -1 802.534 633.4595)" style="fill:#EBEBEB;" width="7.954" height="29.688"/>
					
						<rect x="419.353" y="301.376" transform="matrix(-0.9762 -0.2169 0.2169 -0.9762 767.9911 716.7349)" style="fill:#EBEBEB;" width="7.954" height="29.688"/>
					
						<rect x="407.53" y="295.682" transform="matrix(-1 -1.224647e-16 1.224647e-16 -1 819.0381 627.2557)" style="fill:#EBEBEB;" width="3.977" height="35.892"/>
				</g>
			</g>
			<path style="fill:#E0E0E0;" d="M412.116,189.301v-2.832h-4.586c0,0,4.586-12.026,1.685-26.885c0,0,0.066,11.737-4.473,11.82
				c-6.932,0.127-7.453-11.82-7.453-11.82s-1.67,17.099,4.55,26.885h-4.754v2.832H412.116z"/>
			<path style="fill:#E0E0E0;" d="M399.225,167.418c0,2.21,1.791,4.001,4.001,4.001c2.21,0,4.001-1.791,4.001-4.001
				c0-2.21-1.791-4.001-4.001-4.001C401.016,163.417,399.225,165.208,399.225,167.418z"/>
			<path style="fill:#E0E0E0;" d="M381.348,189.301v-1.652l-4.846-2.254l2.423-2.367l-6.03-21.302v13.299c0,0,0.831,0,0.831,1.916
				c0,1.916-2.747,1.465-2.747-0.113s0.902-1.803,0.902-1.803v-13.863l-5.523,21.076l2.48,3.156l-4.959,2.254v1.652H381.348z"/>
			<polygon style="fill:#E0E0E0;" points="351.663,189.301 351.663,187.987 347.198,186.973 347.198,167.418 343.366,162.064 
				340.097,166.257 340.097,175.232 338.407,172.884 336.04,171.983 334.349,175.683 337.956,186.973 334.349,187.987 
				334.349,189.301 			"/>
			<polygon style="fill:#E0E0E0;" points="322.02,189.9 316.541,162.064 299.76,162.064 303.737,177.847 297.858,189.301 			"/>
		</g>
		<g>
			
				<ellipse transform="matrix(0.9732 -0.2298 0.2298 0.9732 -17.3237 87.2806)" style="fill:#E0E0E0;" cx="366.145" cy="118.033" rx="23.554" ry="23.554"/>
			
				<ellipse transform="matrix(0.9871 -0.1602 0.1602 0.9871 -14.1789 60.1742)" style="fill:#F0F0F0;" cx="366.145" cy="118.033" rx="20.027" ry="20.027"/>
			<g>
				<polyline style="fill:#F0F0F0;" points="367.09,104.295 367.09,118.295 376.368,113.045 				"/>
				<path style="fill:#E0E0E0;" d="M367.09,119.294c-0.174,0-0.348-0.045-0.504-0.136c-0.307-0.179-0.496-0.508-0.496-0.864v-14
					c0-0.552,0.448-1,1-1c0.552,0,1,0.448,1,1v12.285l7.785-4.405c0.48-0.273,1.091-0.103,1.363,0.378
					c0.272,0.481,0.103,1.091-0.377,1.363l-9.277,5.25C367.43,119.252,367.26,119.294,367.09,119.294z"/>
			</g>
		</g>
	</g>
</g>
<g id="Background_Simple" style="display:none;">
	<g style="display:inline;">
		<path style="fill:#407BFF;" d="M249.768,81.012c28.893-0.036,57.91,11.829,78.498,36.138
			c22.53,26.602,25.423,57.118,26.498,90.522c0.31,9.617,1.16,19.406,4.82,28.404c6.824,16.772,23.141,26.555,33.811,40.517
			c13.322,17.433,14.563,41.805,3.306,60.568c-11.685,19.477-34.051,29.269-56.217,29.814
			c-27.278,0.671-52.228-11.851-76.687-22.277c-25.529-10.882-47.984-12.723-74.417-4.305c-22.861,7.281-46.82,18.252-71.25,11.975
			c-45.217-11.619-60.109-65.603-49.559-106.54c4.14-16.065,12.245-31.074,23.305-43.43c12.179-13.606,28.798-22.834,43.224-33.893
			c4.636-3.554,8.54-8.049,11.866-12.827c6.169-8.861,10.604-18.81,16.448-27.888C183.288,96.925,216.446,81.054,249.768,81.012z"/>
		<path style="opacity:0.9;fill:#FFFFFF;" d="M249.768,81.012c28.893-0.036,57.91,11.829,78.498,36.138
			c22.53,26.602,25.423,57.118,26.498,90.522c0.31,9.617,1.16,19.406,4.82,28.404c6.824,16.772,23.141,26.555,33.811,40.517
			c13.322,17.433,14.563,41.805,3.306,60.568c-11.685,19.477-34.051,29.269-56.217,29.814
			c-27.278,0.671-52.228-11.851-76.687-22.277c-25.529-10.882-47.984-12.723-74.417-4.305c-22.861,7.281-46.82,18.252-71.25,11.975
			c-45.217-11.619-60.109-65.603-49.559-106.54c4.14-16.065,12.245-31.074,23.305-43.43c12.179-13.606,28.798-22.834,43.224-33.893
			c4.636-3.554,8.54-8.049,11.866-12.827c6.169-8.861,10.604-18.81,16.448-27.888C183.288,96.925,216.446,81.054,249.768,81.012z"/>
	</g>
</g>
<g id="Shadow_1_">
	<ellipse id="_x3C_Path_x3E__359_" style="fill:#F5F5F5;" cx="250" cy="416.238" rx="193.889" ry="11.323"/>
</g>
<g id="Plant">
	<g>
		<g>
			<g>
				<g>
					<g>
						<g>
							<g>
								<g>
									<g>
										<path style="fill:#407BFF;" d="M101.016,380.915c-0.016,0-0.033-0.001-0.049-0.003c-0.216-0.027-0.369-0.224-0.342-0.44
											c0.007-0.071,0.059-0.841,0.119-2.17c0.104-1.987,0.268-6.148,0.208-11.718c0.005-0.1,0.001-0.166-0.002-0.24
											c-0.075-6.223-0.408-12.346-0.99-18.211c-0.54-5.47-1.311-10.78-2.292-15.787c-0.898-4.53-1.971-8.823-3.19-12.761
											c-0.004-0.011-0.008-0.022-0.011-0.034l-0.001,0c-0.192-0.617-0.393-1.235-0.594-1.852
											c-0.168-0.501-0.338-1.006-0.516-1.51c-0.457-1.307-0.871-2.557-1.231-3.718c-0.801-2.553-1.508-5.102-2.099-7.577
											c-0.361-1.485-0.682-2.947-0.951-4.342c-1.077-5.455-1.689-10.864-1.816-16.075c-0.054-2.125-0.023-4.245,0.092-6.302
											c0.126-2.243,0.358-4.411,0.691-6.443c0.028-0.152,0.049-0.293,0.07-0.428l0.034-0.2c0.002-0.095,0.038-0.191,0.109-0.265
											c0.151-0.157,0.4-0.163,0.557-0.012c0.103,0.099,0.142,0.253,0.113,0.391l0.001,0l-0.036,0.205
											c-0.022,0.142-0.044,0.29-0.072,0.443c-0.327,1.998-0.557,4.137-0.681,6.353c-0.113,2.036-0.143,4.135-0.09,6.239
											c0.126,5.166,0.732,10.53,1.802,15.943c0.268,1.384,0.585,2.833,0.944,4.308c0.587,2.458,1.288,4.99,2.085,7.526
											c0.357,1.153,0.768,2.394,1.222,3.691c0.179,0.507,0.35,1.016,0.521,1.524c0.202,0.62,0.403,1.238,0.596,1.856
											c0.005,0.012,0.008,0.023,0.012,0.035h0c1.228,3.965,2.309,8.289,3.213,12.85c0.986,5.032,1.761,10.367,2.303,15.861
											c0.584,5.888,0.919,12.034,0.993,18.267c0.004,0.088,0.007,0.179,0.002,0.28c0.061,5.565-0.104,9.745-0.208,11.739
											c-0.061,1.353-0.116,2.159-0.124,2.23C101.381,380.77,101.212,380.915,101.016,380.915z"/>
									</g>
								</g>
								<g>
									<g>
										<g>
											<path style="fill:#407BFF;" d="M88.518,271.245c0.008-0.018,0.008-0.018,0.017-0.018
												c0.008-0.018,0.008-0.018,0.017-0.018c0.661-0.639,1.394-1.194,2.176-1.664c0.858-0.5,1.782-0.906,2.746-1.175"/>
											<path style="fill:#407BFF;" d="M88.517,271.637c-0.052,0-0.105-0.011-0.156-0.033c-0.199-0.087-0.291-0.317-0.205-0.516
												c0.019-0.044,0.048-0.086,0.082-0.122c0.012-0.014,0.025-0.027,0.039-0.04l-0.001-0.001
												c0.665-0.644,1.422-1.222,2.247-1.719c0.929-0.541,1.884-0.949,2.843-1.217c0.208-0.059,0.427,0.064,0.485,0.274
												c0.059,0.21-0.064,0.427-0.274,0.486c-0.894,0.25-1.787,0.632-2.654,1.136c-0.769,0.463-1.477,1.005-2.1,1.607
												c-0.003,0.003-0.006,0.005-0.009,0.008C88.741,271.587,88.63,271.637,88.517,271.637z"/>
										</g>
									</g>
								</g>
								<g>
									<g>
										<path style="fill:#407BFF;" d="M87.743,278.595c-0.089,0-0.177-0.03-0.252-0.091l-2.654-2.201
											c-0.167-0.139-0.19-0.387-0.052-0.555c0.139-0.166,0.387-0.191,0.555-0.051l2.654,2.201
											c0.168,0.139,0.191,0.387,0.052,0.555C87.969,278.546,87.857,278.595,87.743,278.595z"/>
									</g>
								</g>
								<g>
									<g>
										<path style="fill:#407BFF;" d="M92.501,312.792c-0.211,0-0.385-0.197-0.394-0.41l0-0.009
											c0.11-0.786,0.29-1.483,0.539-2.147c0.343-0.975,0.836-1.902,1.461-2.747c0.455-0.618,0.99-1.196,1.59-1.717
											c0.164-0.142,0.413-0.126,0.556,0.039c0.143,0.164,0.125,0.413-0.039,0.556c-0.555,0.482-1.05,1.017-1.472,1.59
											c-0.579,0.782-1.035,1.639-1.355,2.547c-0.232,0.62-0.398,1.263-0.496,1.92c0.009,0.217-0.157,0.368-0.375,0.378
											C92.51,312.792,92.505,312.792,92.501,312.792z"/>
									</g>
								</g>
								<g>
									<g>
										<path style="fill:#407BFF;" d="M94.855,319.858c-0.151,0-0.295-0.087-0.36-0.234c-0.738-1.657-2.207-2.985-3.93-3.552
											c-0.207-0.068-0.319-0.291-0.251-0.498c0.068-0.207,0.291-0.32,0.498-0.251c1.931,0.636,3.577,2.123,4.404,3.98
											c0.089,0.199-0.001,0.432-0.2,0.52C94.963,319.847,94.908,319.858,94.855,319.858z"/>
									</g>
								</g>
								<g>
									<g>
										<path style="fill:#407BFF;" d="M100.857,354.945c-0.899-0.993-1.717-4.887-2.157-6.98c-0.105-0.5-0.195-0.927-0.267-1.234
											"/>
										<path style="fill:#407BFF;" d="M100.857,355.339c-0.107,0-0.214-0.044-0.292-0.129c-0.896-0.989-1.631-4.215-2.25-7.162
											c-0.104-0.498-0.193-0.921-0.265-1.226c-0.051-0.212,0.081-0.424,0.293-0.474c0.211-0.055,0.424,0.081,0.474,0.293
											c0.074,0.309,0.164,0.74,0.269,1.244c0.402,1.91,1.237,5.882,2.064,6.795c0.146,0.162,0.134,0.411-0.027,0.557
											C101.046,355.305,100.952,355.339,100.857,355.339z"/>
									</g>
								</g>
							</g>
							<g>
								<path style="fill:#407BFF;" d="M90.413,305.234c-0.205,0-0.378-0.158-0.393-0.365c-0.047-0.644-1.056-15.837,7.327-21.913
									c0.177-0.128,0.423-0.088,0.551,0.088c0.128,0.176,0.089,0.423-0.088,0.55c-8.026,5.818-7.015,21.064-7.004,21.217
									c0.016,0.217-0.147,0.406-0.365,0.422C90.432,305.234,90.423,305.234,90.413,305.234z"/>
							</g>
							<g>
								<path style="fill:#407BFF;" d="M91.109,338.282c-0.962,3.679,7.163,10.246,7.163,10.246s10.299-1.749,11.262-5.428
									c0.962-3.679-1.922-9.504-7.009-10.834C97.437,330.936,92.071,334.603,91.109,338.282z"/>
								<path style="fill:#407BFF;" d="M80.497,294.611c1.161,3.811,8.689,6.225,8.689,6.225s4.902-6.202,3.741-10.013
									c-1.162-3.811-5.443-7.88-8.875-6.834C80.62,285.035,79.335,290.8,80.497,294.611z"/>
								<path style="fill:#407BFF;" d="M100.565,306.102c-0.951,0.773-1.932,1.562-3.1,1.935c-1.168,0.372-2.581,0.238-3.425-0.651
									c-1.046-1.102-0.857-2.889-0.29-4.299c1.122-2.793,5.502-7.642,9.082-6.463
									C107.999,298.326,102.758,304.321,100.565,306.102z"/>
								<path style="fill:#407BFF;" d="M90.469,313.538c0.703,0.797,1.457,1.808,1.135,2.821c-0.285,0.899-1.354,1.352-2.291,1.252
									c-0.937-0.1-1.772-0.617-2.569-1.12c-1.849-1.167-5.642-3.62-3.401-6.168C85.672,307.675,88.987,311.858,90.469,313.538z"/>
								<path style="fill:#407BFF;" d="M103.953,278.084c0.772,0.051,1.572,0.531,1.736,1.286c0.192,0.883-0.512,1.694-1.203,2.277
									c-1.722,1.451-6.914,5.392-8.265,1.869C94.944,280.189,101.575,277.927,103.953,278.084z"/>
								<g>
									<path style="fill:#407BFF;" d="M93.567,266.758c1.109,0.056,2.194-0.392,3.305-0.371c1.111,0.022,2.379,0.859,2.18,1.952
										c-0.184,1.01-1.412,1.399-2.433,1.509c-1.742,0.186-3.508,0.142-5.238-0.132c-0.402-0.064-0.84-0.163-1.083-0.489
										c-0.477-0.64,0.197-1.555,0.949-1.822c0.752-0.267,1.616-0.227,2.29-0.653L93.567,266.758z"/>
								</g>
								<g>
									<path style="fill:#407BFF;" d="M83.104,274.834c-1.108,0.081-2.202-0.345-3.312-0.299c-1.11,0.046-2.36,0.91-2.137,1.998
										c0.205,1.006,1.442,1.368,2.465,1.456c1.745,0.149,3.51,0.066,5.234-0.245c0.4-0.072,0.836-0.181,1.072-0.512
										c0.463-0.65-0.23-1.55-0.988-1.801c-0.757-0.251-1.62-0.192-2.304-0.603L83.104,274.834z"/>
								</g>
							</g>
						</g>
						<g>
							<path style="fill:#407BFF;" d="M88.21,272.718c-0.009,0-0.019,0-0.028-0.001c-0.217-0.015-0.381-0.204-0.365-0.421
								c0.152-2.158-0.08-4.231-0.487-4.35c-0.209-0.061-0.329-0.279-0.268-0.488c0.061-0.209,0.277-0.331,0.488-0.268
								c1.255,0.365,1.155,3.731,1.053,5.162C88.589,272.56,88.416,272.718,88.21,272.718z"/>
						</g>
						<g>
							<path style="fill:#407BFF;" d="M88.943,267.655c-0.736-1.474-1.53-3.017-2.904-3.926c-1.374-0.91-3.51-0.889-4.422,0.484
								c-1.019,1.535,0.165,3.748,1.86,4.469c1.696,0.72,3.632,0.396,5.444,0.06c0.003-0.271,0.006-0.543,0.008-0.814
								L88.943,267.655z"/>
						</g>
					</g>
				</g>
			</g>
			<g>
				<g>
					<g>
						<g>
							<g>
								<g>
									<g>
										<g>
											<g>
												<g>
													<g>
														<path style="fill:#407BFF;" d="M102.231,394.202c-0.024,0-0.049-0.002-0.073-0.007
															c-0.214-0.04-0.355-0.245-0.314-0.46c2.641-14.094,10.661-20.244,10.742-20.305c0.174-0.13,0.42-0.094,0.552,0.079
															c0.131,0.174,0.095,0.421-0.078,0.552c-0.078,0.059-7.86,6.045-10.441,19.818
															C102.583,394.07,102.417,394.202,102.231,394.202z"/>
													</g>
													<g>
														<path style="fill:#407BFF;" d="M110.523,376.364c-0.161,0-0.312-0.099-0.37-0.258
															c-0.075-0.204,0.028-0.43,0.232-0.506c0.064-0.024,1.601-0.582,4.146-0.149c0.215,0.037,0.359,0.24,0.323,0.455
															c-0.036,0.214-0.241,0.361-0.454,0.323c-2.318-0.393-3.727,0.105-3.741,0.11
															C110.614,376.356,110.568,376.364,110.523,376.364z"/>
													</g>
													<g>
														<path style="fill:#407BFF;" d="M108.743,378.569c-0.209,0-0.383-0.163-0.393-0.374
															c-0.273-5.373,2.577-9.57,2.698-9.747c0.124-0.179,0.368-0.225,0.548-0.1c0.179,0.123,0.225,0.369,0.101,0.547
															c-0.028,0.042-2.819,4.161-2.56,9.259c0.011,0.217-0.156,0.403-0.374,0.413
															C108.757,378.569,108.75,378.569,108.743,378.569z"/>
													</g>
													<g>
														<path style="fill:#407BFF;" d="M105.92,383.178c-0.099,0-0.199-0.037-0.275-0.112
															c-0.156-0.152-0.159-0.401-0.007-0.557c0.093-0.096,2.306-2.311,5.453-1.329c0.208,0.065,0.323,0.286,0.258,0.494
															c-0.065,0.208-0.285,0.323-0.494,0.259c-2.691-0.843-4.635,1.106-4.653,1.127
															C106.125,383.138,106.023,383.178,105.92,383.178z"/>
													</g>
													<g>
														<path style="fill:#407BFF;" d="M104.477,386.372c-0.147,0-0.288-0.083-0.356-0.225
															c-0.054-0.112-1.301-2.788-0.837-6.674c0.026-0.215,0.217-0.374,0.438-0.344c0.216,0.025,0.37,0.222,0.344,0.438
															c-0.437,3.647,0.753,6.216,0.765,6.241c0.093,0.197,0.009,0.432-0.187,0.525
															C104.591,386.36,104.533,386.372,104.477,386.372z"/>
													</g>
												</g>
											</g>
										</g>
									</g>
								</g>
								<g>
									<g>
										<path style="fill:#407BFF;" d="M103.042,389.562c0.04,0.062-0.293,0.362,0.836,0.434c2.78,0.179,7.684,0.125,9.458-2.232
											c2.532-3.366-3.53-3.205-2.996-5.083c0.535-1.878,7.103-0.167,8.297-2.837c1.194-2.67-3.535-2.263-3.356-3.648
											c0.179-1.385,5.209,0.543,6.766-2.282c1.556-2.825-2.746-1.402-2.077-2.572c0.67-1.17,6.044-5.974,3.776-7.133
											c-2.268-1.159-7.304,3.871-8.998,4.38c-1.694,0.509-2.239-4.564-4.437-2.927c-2.199,1.637-0.499,9.316-3.093,10.199
											c-1.932,0.657-0.947-2.055-3.354-2.011C100.593,373.912,99.831,384.6,103.042,389.562z"/>
									</g>
									<g style="opacity:0.3;">
										<path style="fill:#FFFFFF;" d="M103.042,389.562c0.04,0.062-0.293,0.362,0.836,0.434c2.78,0.179,7.684,0.125,9.458-2.232
											c2.532-3.366-3.53-3.205-2.996-5.083c0.535-1.878,7.103-0.167,8.297-2.837c1.194-2.67-3.535-2.263-3.356-3.648
											c0.179-1.385,5.209,0.543,6.766-2.282c1.556-2.825-2.746-1.402-2.077-2.572c0.67-1.17,6.044-5.974,3.776-7.133
											c-2.268-1.159-7.304,3.871-8.998,4.38c-1.694,0.509-2.239-4.564-4.437-2.927c-2.199,1.637-0.499,9.316-3.093,10.199
											c-1.932,0.657-0.947-2.055-3.354-2.011C100.593,373.912,99.831,384.6,103.042,389.562z"/>
									</g>
								</g>
							</g>
							<g>
								<g>
									<g>
										<path style="fill:#407BFF;" d="M101.929,394.546c-0.175,0-0.334-0.117-0.381-0.294
											c-3.089-11.725-11.174-19.098-11.255-19.171c-0.162-0.146-0.175-0.395-0.03-0.557c0.147-0.162,0.395-0.176,0.557-0.03
											c0.083,0.075,8.34,7.596,11.491,19.558c0.055,0.21-0.07,0.426-0.281,0.481
											C101.996,394.542,101.962,394.546,101.929,394.546z"/>
									</g>
									<g>
										<path style="fill:#407BFF;" d="M95.047,380.757c-0.026,0-0.052-0.002-0.078-0.008c-0.027-0.005-0.056-0.015-0.084-0.027
											l-0.049-0.018c-1.38-0.51-2.909-0.74-4.304-0.652c-0.212,0.015-0.405-0.151-0.418-0.369
											c-0.014-0.217,0.151-0.404,0.368-0.418c1.502-0.093,3.146,0.153,4.627,0.699c0.01,0.004,0.031,0.012,0.053,0.022
											c0.191,0.059,0.31,0.253,0.27,0.453C95.395,380.628,95.231,380.757,95.047,380.757z M95.164,379.986
											c0.032,0.014,0.068,0.029,0.082,0.038C95.221,380.009,95.193,379.995,95.164,379.986z M95.124,379.976
											c0,0,0.001,0,0.001,0C95.124,379.976,95.124,379.976,95.124,379.976z"/>
									</g>
									<g>
										<path style="fill:#407BFF;" d="M96.625,382.683c-0.007,0-0.013,0-0.02-0.001c-0.217-0.01-0.385-0.195-0.374-0.413
											c0.219-4.49-2.25-8.085-2.274-8.121c-0.125-0.179-0.081-0.424,0.097-0.549c0.177-0.123,0.424-0.082,0.549,0.097
											c0.108,0.155,2.649,3.844,2.416,8.612C97.008,382.519,96.834,382.683,96.625,382.683z"/>
									</g>
									<g>
										<path style="fill:#407BFF;" d="M98.278,385.259c-0.096,0-0.192-0.035-0.268-0.105c-0.069-0.063-1.718-1.552-4.076-0.82
											c-0.208,0.066-0.428-0.052-0.493-0.26c-0.065-0.208,0.052-0.429,0.259-0.493c2.803-0.874,4.765,0.92,4.847,0.996
											c0.159,0.149,0.167,0.397,0.019,0.556C98.489,385.216,98.383,385.259,98.278,385.259z"/>
									</g>
									<g>
										<path style="fill:#407BFF;" d="M100.417,389.529c-0.056,0-0.113-0.012-0.168-0.038c-0.197-0.092-0.281-0.327-0.189-0.524
											c0.011-0.022,1.054-2.298,0.663-5.5c-0.027-0.216,0.127-0.413,0.343-0.439c0.216-0.034,0.413,0.127,0.439,0.343
											c0.421,3.441-0.685,5.832-0.732,5.932C100.706,389.446,100.565,389.529,100.417,389.529z"/>
									</g>
								</g>
								<g>
									<path style="fill:#407BFF;" d="M101.712,392.554c-2.144,0.135-5.897-1.697-7.421-3.573
										c-1.546-1.903,2.614-0.863,2.125-2.389c-0.49-1.526-5.504-0.163-6.535-2.334c-1.032-2.172,2.644-1.823,2.45-2.948
										c-0.195-1.125-3.97-0.729-5.288-3.027c-1.318-2.299,2.069-1.127,1.504-2.079c-0.565-0.952-4.918-4.872-3.21-5.804
										c1.709-0.932,5.808,3.17,7.14,3.589c1.332,0.42,1.509-2.546,3.276-1.209c1.768,1.337,0.762,7.563,2.805,8.289
										c1.522,0.541,0.762-2.256,2.515-1.619C104.141,380.567,102.582,392.5,101.712,392.554z"/>
									<g style="opacity:0.2;">
										<path style="fill:#FFFFFF;" d="M101.712,392.554c-2.144,0.135-5.897-1.697-7.421-3.573
											c-1.546-1.903,2.614-0.863,2.125-2.389c-0.49-1.526-5.504-0.163-6.535-2.334c-1.032-2.172,2.644-1.823,2.45-2.948
											c-0.195-1.125-3.97-0.729-5.288-3.027c-1.318-2.299,2.069-1.127,1.504-2.079c-0.565-0.952-4.918-4.872-3.21-5.804
											c1.709-0.932,5.808,3.17,7.14,3.589c1.332,0.42,1.509-2.546,3.276-1.209c1.768,1.337,0.762,7.563,2.805,8.289
											c1.522,0.541,0.762-2.256,2.515-1.619C104.141,380.567,102.582,392.5,101.712,392.554z"/>
									</g>
								</g>
							</g>
						</g>
					</g>
				</g>
			</g>
		</g>
		<g>
			<path style="fill:#263238;" d="M118.841,396.717c0,10.393,4.586,18.818-18.818,18.818c-20.8,0-18.818-8.425-18.818-18.818
				c0-10.393,8.425-13.336,18.818-13.336C110.416,383.381,118.841,386.324,118.841,396.717z"/>
			<rect x="79.224" y="383.184" style="fill:#263238;" width="41.664" height="10.309"/>
			<rect x="79.224" y="383.184" style="opacity:0.2;fill:#FFFFFF;enable-background:new    ;" width="41.664" height="10.309"/>
		</g>
	</g>
</g>
<g id="Books">
	<g>
		<path style="fill:#263238;" d="M272.279,412.427c0,3.58-1,5.44-1,5.44h-42.99v-1.02h0.87v-8.85h-0.87v-1.02h42.99
			C271.279,406.977,272.279,408.897,272.279,412.427z"/>
		<path style="opacity:0.2;fill:#FFFFFF;enable-background:new    ;" d="M272.279,412.427c0,3.58-1,5.44-1,5.44h-42.99v-1.02h0.87
			v-8.85h-0.87v-1.02h42.99C271.279,406.977,272.279,408.897,272.279,412.427z"/>
		<path style="opacity:0.2;enable-background:new    ;" d="M249.279,412.427c0,3.58-1,5.44-1,5.44h-19.99v-1.02h0.87v-8.85h-0.87
			v-1.02h19.99C248.279,406.977,249.279,408.897,249.279,412.427z"/>
		<path style="opacity:0.8;fill:#FFFFFF;enable-background:new    ;" d="M247.159,412.427c0,2.91-0.81,4.42-0.81,4.42h-17.19v-8.85
			h17.19C246.349,407.997,247.159,409.557,247.159,412.427z"/>
		<path style="opacity:0.6;fill:#FFFFFF;enable-background:new    ;" d="M265.279,412.427c0,3.58-1,5.44-1,5.44h-8
			c0,0,1-1.86,1-5.44c0-3.53-1-5.45-1-5.45h8C264.279,406.977,265.279,408.897,265.279,412.427z"/>
	</g>
	<g>
		<path style="fill:#407BFF;" d="M276.11,401.537c0,3.58-1,5.44-1,5.44h-42.99v-1.02h0.87v-8.85h-0.87v-1.02h42.99
			C275.11,396.087,276.11,398.007,276.11,401.537z"/>
		<path style="opacity:0.2;enable-background:new    ;" d="M253.11,401.537c0,3.58-1,5.44-1,5.44h-19.99v-1.02h0.87v-8.85h-0.87
			v-1.02h19.99C252.11,396.087,253.11,398.007,253.11,401.537z"/>
		<path style="opacity:0.8;fill:#FFFFFF;enable-background:new    ;" d="M250.99,401.537c0,2.91-0.81,4.42-0.81,4.42h-17.19v-8.85
			h17.19C250.18,397.107,250.99,398.667,250.99,401.537z"/>
		<path style="opacity:0.2;enable-background:new    ;" d="M269.11,401.537c0,3.58-1,5.44-1,5.44h-8c0,0,1-1.86,1-5.44
			c0-3.53-1-5.45-1-5.45h8C268.11,396.087,269.11,398.007,269.11,401.537z"/>
	</g>
</g>
<g id="Screen">
	<g>
		<path style="fill:#407BFF;" d="M336.55,181v148.19c0,1.5-1.22,2.72-2.72,2.72H119.06c-1.5,0-2.72-1.22-2.72-2.72V181
			c0-1.51,1.22-2.72,2.72-2.72h214.77C335.33,178.28,336.55,179.49,336.55,181z"/>
		<path style="opacity:0.4;fill:#FFFFFF;enable-background:new    ;" d="M336.55,187.47v141.72c0,1.5-1.22,2.72-2.72,2.72H119.06
			c-1.5,0-2.72-1.22-2.72-2.72V187.47H336.55z"/>
		<path style="opacity:0.2;enable-background:new    ;" d="M336.55,323.16v6.03c0,1.5-1.22,2.72-2.72,2.72H119.06
			c-1.5,0-2.72-1.22-2.72-2.72v-6.03H336.55z"/>
		<g>
			<circle style="opacity:0.4;fill:#FFFFFF;enable-background:new    ;" cx="331.099" cy="183.11" r="1.879"/>
			<circle style="opacity:0.4;fill:#FFFFFF;enable-background:new    ;" cx="323.978" cy="183.11" r="1.879"/>
			<path style="opacity:0.4;fill:#FFFFFF;enable-background:new    ;" d="M318.736,183.11c0,1.038-0.841,1.879-1.879,1.879
				c-1.038,0-1.879-0.841-1.879-1.879c0-1.038,0.841-1.879,1.879-1.879C317.895,181.231,318.736,182.072,318.736,183.11z"/>
		</g>
		<g>
			<g style="opacity:0.5;enable-background:new    ;">
				<path d="M144.292,202.365v6.067h-0.71l-3.64-4.524v4.524h-0.867v-6.067h0.71l3.64,4.524v-4.524H144.292z"/>
				<path d="M150.123,206.412h-3.727c0.105,0.806,0.754,1.344,1.664,1.344c0.538,0,0.988-0.182,1.326-0.555l0.46,0.537
					c-0.416,0.485-1.049,0.745-1.811,0.745c-1.482,0-2.47-0.979-2.47-2.349c0-1.36,0.979-2.34,2.306-2.34
					c1.326,0,2.271,0.953,2.271,2.366C150.14,206.23,150.131,206.334,150.123,206.412z M146.395,205.814h2.947
					c-0.087-0.771-0.668-1.317-1.474-1.317C147.072,204.497,146.482,205.034,146.395,205.814z"/>
				<path d="M158.155,203.838l-1.716,4.594h-0.797l-1.326-3.484l-1.343,3.484h-0.797l-1.707-4.594h0.788l1.335,3.658l1.387-3.658
					h0.702l1.361,3.675l1.369-3.675H158.155z"/>
				<path d="M165.457,206.412h-3.727c0.104,0.806,0.754,1.344,1.664,1.344c0.537,0,0.988-0.182,1.326-0.555l0.46,0.537
					c-0.416,0.485-1.049,0.745-1.812,0.745c-1.482,0-2.47-0.979-2.47-2.349c0-1.36,0.979-2.34,2.305-2.34s2.271,0.953,2.271,2.366
					C165.475,206.23,165.466,206.334,165.457,206.412z M161.73,205.814h2.946c-0.087-0.771-0.667-1.317-1.473-1.317
					C162.406,204.497,161.817,205.034,161.73,205.814z"/>
				<path d="M170.984,205.788v2.643h-0.832v-2.548c0-0.901-0.45-1.344-1.239-1.344c-0.884,0-1.456,0.529-1.456,1.525v2.366h-0.832
					v-4.594h0.797v0.693c0.338-0.468,0.927-0.736,1.656-0.736C170.196,203.795,170.984,204.436,170.984,205.788z"/>
				<path d="M175.108,208.163c-0.251,0.217-0.633,0.32-1.005,0.32c-0.928,0-1.456-0.511-1.456-1.438v-2.522h-0.78v-0.685h0.78
					v-1.005h0.832v1.005h1.317v0.685h-1.317v2.487c0,0.494,0.26,0.771,0.719,0.771c0.243,0,0.477-0.078,0.65-0.217L175.108,208.163z
					"/>
				<path d="M178.581,203.795v0.806c-0.069-0.008-0.13-0.008-0.191-0.008c-0.893,0-1.447,0.546-1.447,1.551v2.288h-0.832v-4.594
					h0.797v0.771C177.204,204.072,177.775,203.795,178.581,203.795z"/>
				<path d="M179.456,202.417c0-0.304,0.242-0.546,0.563-0.546s0.564,0.234,0.564,0.529c0,0.312-0.234,0.555-0.564,0.555
					C179.698,202.954,179.456,202.72,179.456,202.417z M179.603,203.838h0.832v4.594h-0.832V203.838z"/>
				<path d="M186.154,206.412h-3.727c0.104,0.806,0.754,1.344,1.664,1.344c0.537,0,0.988-0.182,1.326-0.555l0.46,0.537
					c-0.416,0.485-1.049,0.745-1.812,0.745c-1.482,0-2.47-0.979-2.47-2.349c0-1.36,0.979-2.34,2.305-2.34
					c1.326,0,2.271,0.953,2.271,2.366C186.172,206.23,186.163,206.334,186.154,206.412z M182.428,205.814h2.946
					c-0.086-0.771-0.667-1.317-1.473-1.317C183.104,204.497,182.514,205.034,182.428,205.814z"/>
				<path d="M186.742,207.946l0.347-0.659c0.39,0.277,1.014,0.477,1.612,0.477c0.771,0,1.092-0.234,1.092-0.624
					c0-1.031-2.903-0.139-2.903-1.967c0-0.823,0.737-1.378,1.915-1.378c0.598,0,1.274,0.156,1.672,0.416l-0.355,0.659
					c-0.416-0.269-0.876-0.364-1.326-0.364c-0.728,0-1.083,0.269-1.083,0.633c0,1.083,2.912,0.199,2.912,1.985
					c0,0.832-0.763,1.36-1.985,1.36C187.877,208.483,187.123,208.249,186.742,207.946z"/>
			</g>
			<g>
				<path style="opacity:0.2;enable-background:new    ;" d="M134.945,205.889c0,2.148-1.742,3.89-3.89,3.89
					c-2.148,0-3.89-1.742-3.89-3.89c0-2.148,1.742-3.89,3.89-3.89C133.204,201.999,134.945,203.74,134.945,205.889z"/>
				<path style="fill:#FFFFFF;" d="M131.055,208.159c-0.276,0-0.5-0.224-0.5-0.5v-3.54c0-0.276,0.224-0.5,0.5-0.5
					c0.276,0,0.5,0.224,0.5,0.5v3.54C131.555,207.935,131.331,208.159,131.055,208.159z"/>
				<path style="fill:#FFFFFF;" d="M132.825,206.389h-3.54c-0.276,0-0.5-0.224-0.5-0.5c0-0.276,0.224-0.5,0.5-0.5h3.54
					c0.276,0,0.5,0.224,0.5,0.5C133.325,206.165,133.102,206.389,132.825,206.389z"/>
			</g>
			<path style="opacity:0.2;enable-background:new    ;" d="M320.78,257.419h-43.528c-1.632,0-2.956-1.323-2.956-2.956v-26.177
				c0-1.633,1.324-2.956,2.956-2.956h43.528c1.633,0,2.956,1.323,2.956,2.956v26.177
				C323.736,256.096,322.413,257.419,320.78,257.419z"/>
			<path style="fill:#FFFFFF;" d="M312.863,233.747h-4.677c-0.593,0-1.128-0.357-1.355-0.904l-0.976-2.346
				c-0.228-0.547-0.762-0.904-1.355-0.904h-10.965c-0.593,0-1.128,0.357-1.355,0.904l-0.976,2.346
				c-0.228,0.547-0.762,0.904-1.356,0.904h-4.677c-1.475,0-2.67,1.195-2.67,2.67v13.45c0,1.475,1.195,2.67,2.67,2.67h27.692
				c1.475,0,2.67-1.196,2.67-2.67v-13.45C315.533,234.943,314.337,233.747,312.863,233.747z M299.017,247.771
				c-2.471,0-4.473-2.003-4.473-4.473c0-2.47,2.003-4.473,4.473-4.473c2.471,0,4.473,2.003,4.473,4.473
				C303.49,245.768,301.487,247.771,299.017,247.771z"/>
			<g style="opacity:0.5;enable-background:new    ;">
				<path d="M292.897,220.355h0.399v2.798h-0.399V220.355z"/>
				<path d="M297.598,221.935v1.219h-0.384v-1.175c0-0.416-0.2-0.62-0.548-0.62c-0.384,0-0.635,0.244-0.635,0.704v1.091h-0.384
					v-1.175c0-0.416-0.2-0.62-0.548-0.62c-0.384,0-0.636,0.244-0.636,0.704v1.091h-0.384v-2.119h0.368v0.315
					c0.152-0.216,0.412-0.335,0.732-0.335c0.324,0,0.596,0.128,0.735,0.392c0.16-0.24,0.456-0.392,0.815-0.392
					C297.247,221.015,297.598,221.311,297.598,221.935z"/>
				<path d="M299.987,221.874v1.279h-0.364v-0.28c-0.128,0.192-0.364,0.304-0.696,0.304c-0.479,0-0.784-0.256-0.784-0.624
					c0-0.34,0.22-0.62,0.852-0.62h0.608v-0.076c0-0.324-0.188-0.512-0.568-0.512c-0.252,0-0.508,0.088-0.671,0.228l-0.16-0.288
					c0.22-0.176,0.536-0.271,0.875-0.271C299.659,221.015,299.987,221.295,299.987,221.874z M299.603,222.506v-0.296h-0.592
					c-0.38,0-0.488,0.148-0.488,0.328c0,0.212,0.176,0.344,0.468,0.344C299.28,222.882,299.507,222.75,299.603,222.506z"/>
				<path d="M302.739,221.035v1.831c0,0.748-0.38,1.088-1.099,1.088c-0.388,0-0.78-0.108-1.012-0.316l0.184-0.296
					c0.196,0.168,0.503,0.276,0.815,0.276c0.5,0,0.728-0.232,0.728-0.712v-0.168c-0.184,0.22-0.46,0.328-0.764,0.328
					c-0.611,0-1.075-0.416-1.075-1.027c0-0.612,0.464-1.023,1.075-1.023c0.316,0,0.604,0.116,0.784,0.348v-0.328H302.739z
					 M302.364,222.039c0-0.412-0.304-0.688-0.728-0.688c-0.428,0-0.731,0.276-0.731,0.688c0,0.408,0.304,0.691,0.731,0.691
					C302.06,222.73,302.364,222.446,302.364,222.039z"/>
				<path d="M305.379,222.222h-1.719c0.048,0.372,0.348,0.62,0.768,0.62c0.248,0,0.456-0.084,0.612-0.256l0.212,0.248
					c-0.192,0.224-0.484,0.344-0.836,0.344c-0.684,0-1.139-0.452-1.139-1.084c0-0.627,0.452-1.079,1.063-1.079
					c0.611,0,1.047,0.439,1.047,1.091C305.387,222.138,305.383,222.186,305.379,222.222z M303.66,221.946h1.359
					c-0.04-0.355-0.308-0.607-0.68-0.607C303.972,221.339,303.7,221.586,303.66,221.946z"/>
			</g>
			<path style="fill:#FFFFFF;" d="M263.967,236.802H129.934c-1.529,0-2.769-1.24-2.769-2.769v-5.934c0-1.529,1.24-2.769,2.769-2.769
				h134.033c1.529,0,2.769,1.24,2.769,2.769v5.934C266.736,235.562,265.496,236.802,263.967,236.802z"/>
			<g style="opacity:0.5;enable-background:new    ;">
				<path d="M129.525,220.703h-0.96v-0.348h2.314v0.348h-0.96v2.451h-0.395V220.703z"/>
				<path d="M131.141,220.379c0-0.14,0.112-0.252,0.26-0.252c0.148,0,0.26,0.108,0.26,0.244c0,0.144-0.108,0.256-0.26,0.256
					C131.253,220.627,131.141,220.519,131.141,220.379z M131.209,221.035h0.384v2.119h-0.384V221.035z"/>
				<path d="M133.517,223.03c-0.116,0.1-0.292,0.148-0.464,0.148c-0.428,0-0.671-0.236-0.671-0.663v-1.164h-0.36v-0.315h0.36v-0.464
					h0.384v0.464h0.607v0.315h-0.607v1.147c0,0.228,0.12,0.356,0.332,0.356c0.112,0,0.22-0.036,0.3-0.1L133.517,223.03z"/>
				<path d="M135.121,223.03c-0.116,0.1-0.292,0.148-0.464,0.148c-0.428,0-0.671-0.236-0.671-0.663v-1.164h-0.36v-0.315h0.36v-0.464
					h0.384v0.464h0.607v0.315h-0.607v1.147c0,0.228,0.12,0.356,0.332,0.356c0.112,0,0.22-0.036,0.3-0.1L135.121,223.03z"/>
				<path d="M135.585,220.188h0.384v2.966h-0.384V220.188z"/>
				<path d="M138.608,222.222h-1.719c0.048,0.372,0.348,0.62,0.767,0.62c0.248,0,0.456-0.084,0.612-0.256l0.212,0.248
					c-0.192,0.224-0.484,0.344-0.836,0.344c-0.684,0-1.139-0.452-1.139-1.084c0-0.627,0.452-1.079,1.063-1.079
					c0.611,0,1.047,0.439,1.047,1.091C138.616,222.138,138.612,222.186,138.608,222.222z M136.889,221.946h1.359
					c-0.04-0.355-0.308-0.607-0.68-0.607C137.201,221.339,136.929,221.586,136.889,221.946z"/>
			</g>
			<path style="fill:#FFFFFF;" d="M263.967,257.419H129.934c-1.529,0-2.769-1.24-2.769-2.769v-5.934c0-1.529,1.24-2.769,2.769-2.769
				h134.033c1.529,0,2.769,1.24,2.769,2.769v5.934C266.736,256.179,265.496,257.419,263.967,257.419z"/>
			<g style="opacity:0.5;enable-background:new    ;">
				<path d="M128.741,242.371c0-0.827,0.632-1.431,1.483-1.431c0.432,0,0.807,0.148,1.063,0.436l-0.26,0.252
					c-0.216-0.227-0.48-0.332-0.788-0.332c-0.631,0-1.099,0.456-1.099,1.075c0,0.62,0.468,1.076,1.099,1.076
					c0.308,0,0.572-0.108,0.788-0.336l0.26,0.252c-0.256,0.287-0.631,0.439-1.067,0.439
					C129.373,243.803,128.741,243.199,128.741,242.371z"/>
				<path d="M133.456,242.491v1.279h-0.364v-0.279c-0.128,0.191-0.364,0.304-0.696,0.304c-0.479,0-0.784-0.256-0.784-0.624
					c0-0.34,0.22-0.619,0.852-0.619h0.608v-0.076c0-0.324-0.188-0.512-0.568-0.512c-0.252,0-0.508,0.088-0.671,0.228l-0.16-0.288
					c0.22-0.176,0.536-0.271,0.875-0.271C133.128,241.632,133.456,241.912,133.456,242.491z M133.072,243.123v-0.296h-0.592
					c-0.38,0-0.488,0.148-0.488,0.328c0,0.212,0.176,0.344,0.468,0.344C132.749,243.499,132.976,243.367,133.072,243.123z"/>
				<path d="M135.36,243.646c-0.116,0.101-0.292,0.148-0.464,0.148c-0.428,0-0.671-0.236-0.671-0.664v-1.163h-0.36v-0.316h0.36
					v-0.464h0.384v0.464h0.607v0.316h-0.607v1.147c0,0.228,0.12,0.355,0.331,0.355c0.112,0,0.22-0.036,0.3-0.1L135.36,243.646z"/>
				<path d="M137.66,242.839h-1.719c0.048,0.372,0.348,0.62,0.768,0.62c0.248,0,0.456-0.084,0.612-0.256l0.212,0.248
					c-0.192,0.224-0.484,0.344-0.836,0.344c-0.684,0-1.139-0.452-1.139-1.084c0-0.627,0.452-1.079,1.064-1.079
					c0.611,0,1.047,0.439,1.047,1.092C137.668,242.755,137.664,242.804,137.66,242.839z M135.941,242.564h1.359
					c-0.04-0.356-0.308-0.607-0.68-0.607C136.253,241.956,135.981,242.203,135.941,242.564z"/>
				<path d="M140.228,241.652v1.83c0,0.748-0.38,1.088-1.099,1.088c-0.388,0-0.78-0.108-1.012-0.315l0.184-0.296
					c0.196,0.168,0.503,0.275,0.815,0.275c0.499,0,0.727-0.232,0.727-0.712v-0.168c-0.184,0.221-0.459,0.328-0.764,0.328
					c-0.611,0-1.075-0.416-1.075-1.027c0-0.611,0.464-1.023,1.075-1.023c0.316,0,0.604,0.116,0.784,0.348v-0.327H140.228z
					 M139.852,242.655c0-0.412-0.304-0.688-0.728-0.688c-0.428,0-0.731,0.275-0.731,0.688c0,0.408,0.304,0.691,0.731,0.691
					C139.548,243.347,139.852,243.064,139.852,242.655z"/>
				<path d="M140.765,242.711c0-0.631,0.468-1.079,1.104-1.079c0.635,0,1.099,0.448,1.099,1.079c0,0.632-0.464,1.084-1.099,1.084
					C141.233,243.795,140.765,243.343,140.765,242.711z M142.58,242.711c0-0.451-0.304-0.743-0.711-0.743
					c-0.408,0-0.716,0.292-0.716,0.743c0,0.452,0.308,0.748,0.716,0.748C142.276,243.459,142.58,243.163,142.58,242.711z"/>
				<path d="M144.641,241.632v0.372c-0.032-0.004-0.06-0.004-0.088-0.004c-0.412,0-0.667,0.252-0.667,0.715v1.056h-0.384v-2.118
					h0.368v0.355C144.005,241.76,144.269,241.632,144.641,241.632z"/>
				<path d="M145.045,240.996c0-0.14,0.112-0.252,0.26-0.252c0.148,0,0.26,0.108,0.26,0.244c0,0.144-0.108,0.256-0.26,0.256
					C145.157,241.244,145.045,241.136,145.045,240.996z M145.113,241.652h0.384v2.118h-0.384V241.652z"/>
				<path d="M148.136,242.839h-1.719c0.048,0.372,0.348,0.62,0.768,0.62c0.248,0,0.456-0.084,0.612-0.256l0.211,0.248
					c-0.191,0.224-0.483,0.344-0.835,0.344c-0.684,0-1.139-0.452-1.139-1.084c0-0.627,0.452-1.079,1.063-1.079
					c0.611,0,1.047,0.439,1.047,1.092C148.144,242.755,148.14,242.804,148.136,242.839z M146.417,242.564h1.359
					c-0.04-0.356-0.308-0.607-0.68-0.607C146.729,241.956,146.457,242.203,146.417,242.564z"/>
				<path d="M148.409,243.547l0.16-0.304c0.18,0.128,0.468,0.22,0.744,0.22c0.356,0,0.504-0.108,0.504-0.288
					c0-0.476-1.339-0.064-1.339-0.907c0-0.38,0.34-0.636,0.883-0.636c0.276,0,0.588,0.072,0.771,0.192l-0.163,0.304
					c-0.192-0.124-0.404-0.168-0.612-0.168c-0.336,0-0.5,0.124-0.5,0.292c0,0.499,1.344,0.092,1.344,0.915
					c0,0.384-0.352,0.628-0.915,0.628C148.933,243.795,148.585,243.686,148.409,243.547z"/>
			</g>
			<path style="fill:#FFFFFF;" d="M320.967,296.155H129.934c-1.529,0-2.769-1.24-2.769-2.769v-21.934
				c0-1.529,1.24-2.769,2.769-2.769h191.033c1.529,0,2.769,1.24,2.769,2.769v21.934
				C323.736,294.916,322.496,296.155,320.967,296.155z"/>
			<g style="opacity:0.5;enable-background:new    ;">
				<path d="M128.969,263.709h1.179c0.899,0,1.511,0.567,1.511,1.398c0,0.832-0.612,1.399-1.511,1.399h-1.179V263.709z
					 M130.124,266.159c0.691,0,1.135-0.424,1.135-1.052c0-0.627-0.444-1.051-1.135-1.051h-0.756v2.103H130.124z"/>
				<path d="M134.124,265.575h-1.719c0.048,0.372,0.348,0.62,0.768,0.62c0.248,0,0.456-0.084,0.612-0.256l0.211,0.248
					c-0.191,0.224-0.483,0.344-0.835,0.344c-0.684,0-1.139-0.452-1.139-1.084c0-0.627,0.452-1.079,1.064-1.079
					c0.611,0,1.047,0.439,1.047,1.092C134.132,265.491,134.128,265.54,134.124,265.575z M132.405,265.3h1.359
					c-0.04-0.355-0.308-0.607-0.68-0.607C132.717,264.692,132.445,264.94,132.405,265.3z"/>
				<path d="M135.856,266.383c-0.116,0.101-0.292,0.148-0.464,0.148c-0.428,0-0.671-0.236-0.671-0.664v-1.163h-0.36v-0.315h0.36
					v-0.464h0.384v0.464h0.607v0.315h-0.607v1.147c0,0.228,0.12,0.355,0.331,0.355c0.112,0,0.22-0.036,0.3-0.1L135.856,266.383z"/>
				<path d="M138,265.228v1.279h-0.364v-0.279c-0.128,0.191-0.364,0.304-0.696,0.304c-0.479,0-0.784-0.256-0.784-0.624
					c0-0.34,0.22-0.619,0.852-0.619h0.608v-0.076c0-0.324-0.188-0.512-0.568-0.512c-0.252,0-0.508,0.088-0.671,0.228l-0.16-0.288
					c0.22-0.176,0.536-0.271,0.876-0.271C137.672,264.368,138,264.648,138,265.228z M137.616,265.859v-0.296h-0.592
					c-0.38,0-0.488,0.148-0.488,0.328c0,0.212,0.176,0.344,0.468,0.344C137.292,266.235,137.52,266.103,137.616,265.859z"/>
				<path d="M138.645,263.732c0-0.14,0.112-0.252,0.26-0.252c0.148,0,0.26,0.108,0.26,0.244c0,0.144-0.108,0.256-0.26,0.256
					C138.757,263.98,138.645,263.872,138.645,263.732z M138.713,264.389h0.384v2.118h-0.384V264.389z"/>
				<path d="M139.829,263.541h0.384v2.966h-0.384V263.541z"/>
				<path d="M140.677,266.283l0.16-0.304c0.18,0.128,0.468,0.22,0.744,0.22c0.356,0,0.503-0.108,0.503-0.288
					c0-0.476-1.339-0.063-1.339-0.907c0-0.38,0.34-0.636,0.883-0.636c0.276,0,0.588,0.072,0.771,0.192l-0.164,0.304
					c-0.192-0.124-0.404-0.168-0.612-0.168c-0.336,0-0.499,0.124-0.499,0.292c0,0.499,1.343,0.092,1.343,0.915
					c0,0.384-0.352,0.628-0.915,0.628C141.201,266.531,140.853,266.423,140.677,266.283z"/>
			</g>
		</g>
		<rect x="116.34" y="187.47" style="opacity:0.2;enable-background:new    ;" width="220.21" height="8.906"/>
		<g>
			<path style="fill:#407BFF;" d="M292.231,315.416h29.473c1.353,0,2.451-1.097,2.451-2.451v-5.391c0-1.354-1.097-2.451-2.451-2.451
				h-29.473c-1.353,0-2.451,1.097-2.451,2.451v5.391C289.78,314.319,290.878,315.416,292.231,315.416z"/>
			<g>
				<path style="fill:#FFFFFF;" d="M299.213,311.889l0.222-0.468c0.312,0.281,0.846,0.485,1.385,0.485
					c0.726,0,1.038-0.281,1.038-0.648c0-1.025-2.543-0.378-2.543-1.936c0-0.648,0.504-1.2,1.607-1.2
					c0.492,0,1.001,0.133,1.349,0.372l-0.198,0.479c-0.366-0.233-0.78-0.342-1.151-0.342c-0.714,0-1.02,0.3-1.02,0.666
					c0,1.025,2.542,0.384,2.542,1.925c0,0.642-0.516,1.193-1.625,1.193C300.179,312.416,299.549,312.201,299.213,311.889z"/>
				<path style="fill:#FFFFFF;" d="M305.997,311.319h-2.231l-0.461,1.05h-0.618l1.901-4.197h0.594l1.907,4.197h-0.629
					L305.997,311.319z M305.788,310.839l-0.905-2.057l-0.906,2.057H305.788z"/>
				<path style="fill:#FFFFFF;" d="M311.139,308.171l-1.841,4.197h-0.594l-1.847-4.197h0.647l1.511,3.447l1.523-3.447H311.139z"/>
				<path style="fill:#FFFFFF;" d="M314.721,311.847v0.521h-3.046v-4.197h2.962v0.522h-2.362v1.289h2.104v0.51h-2.104v1.355H314.721
					z"/>
			</g>
		</g>
		<g>
			<path style="opacity:0.4;enable-background:new    ;" d="M243.816,315.416h39.473c1.353,0,2.451-1.097,2.451-2.451v-5.391
				c0-1.354-1.097-2.451-2.451-2.451h-39.473c-1.353,0-2.451,1.097-2.451,2.451v5.391
				C241.365,314.319,242.462,315.416,243.816,315.416z"/>
			<g>
				<path style="fill:#FFFFFF;" d="M249.768,308.171h1.769c1.349,0,2.267,0.852,2.267,2.099c0,1.247-0.917,2.099-2.267,2.099h-1.769
					V308.171z M251.501,311.847c1.037,0,1.703-0.636,1.703-1.577s-0.666-1.577-1.703-1.577h-1.133v3.154H251.501z"/>
				<path style="fill:#FFFFFF;" d="M254.724,308.171h0.6v4.197h-0.6V308.171z"/>
				<path style="fill:#FFFFFF;" d="M256.2,311.889l0.222-0.468c0.312,0.281,0.846,0.485,1.385,0.485
					c0.726,0,1.038-0.281,1.038-0.648c0-1.025-2.543-0.378-2.543-1.936c0-0.648,0.504-1.2,1.607-1.2
					c0.492,0,1.001,0.133,1.349,0.372l-0.198,0.479c-0.366-0.233-0.78-0.342-1.151-0.342c-0.714,0-1.02,0.3-1.02,0.666
					c0,1.025,2.543,0.384,2.543,1.925c0,0.642-0.516,1.193-1.625,1.193C257.166,312.416,256.536,312.201,256.2,311.889z"/>
				<path style="fill:#FFFFFF;" d="M259.968,310.27c0-1.241,0.948-2.147,2.225-2.147c0.647,0,1.211,0.223,1.595,0.654l-0.39,0.378
					c-0.324-0.342-0.719-0.498-1.181-0.498c-0.947,0-1.649,0.684-1.649,1.613s0.702,1.613,1.649,1.613
					c0.462,0,0.857-0.162,1.181-0.504l0.39,0.378c-0.384,0.432-0.948,0.659-1.601,0.659
					C260.916,312.416,259.968,311.511,259.968,310.27z"/>
				<path style="fill:#FFFFFF;" d="M267.22,311.319h-2.231l-0.461,1.05h-0.618l1.901-4.197h0.594l1.907,4.197h-0.629L267.22,311.319
					z M267.01,310.839l-0.905-2.057l-0.906,2.057H267.01z"/>
				<path style="fill:#FFFFFF;" d="M271.744,312.369l-0.905-1.289c-0.084,0.006-0.174,0.012-0.264,0.012h-1.037v1.277h-0.6v-4.197
					h1.637c1.091,0,1.751,0.552,1.751,1.463c0,0.648-0.336,1.115-0.923,1.325l0.996,1.409H271.744z M271.726,309.634
					c0-0.6-0.402-0.941-1.169-0.941h-1.019v1.889h1.019C271.324,310.582,271.726,310.234,271.726,309.634z"/>
				<path style="fill:#FFFFFF;" d="M273.3,308.171h1.769c1.35,0,2.267,0.852,2.267,2.099c0,1.247-0.917,2.099-2.267,2.099H273.3
					V308.171z M275.033,311.847c1.037,0,1.703-0.636,1.703-1.577s-0.666-1.577-1.703-1.577H273.9v3.154H275.033z"/>
			</g>
		</g>
		<g>
			<g>
				<path style="fill:#FFFFFF;" d="M124.297,192.33h-3.956c-0.276,0-0.5-0.224-0.5-0.5s0.224-0.5,0.5-0.5h3.956
					c0.276,0,0.5,0.224,0.5,0.5S124.573,192.33,124.297,192.33z"/>
				<path style="fill:#FFFFFF;" d="M121.477,193.951c-0.128,0-0.256-0.049-0.354-0.146l-1.621-1.622
					c-0.195-0.195-0.195-0.512,0-0.707l1.621-1.622c0.195-0.195,0.512-0.195,0.707,0c0.195,0.195,0.195,0.512,0,0.707l-1.268,1.268
					l1.268,1.268c0.195,0.195,0.195,0.512,0,0.707C121.733,193.902,121.605,193.951,121.477,193.951z"/>
			</g>
			<g>
				<path style="fill:#FFFFFF;" d="M332.483,190.33h-4.252c-0.276,0-0.5-0.224-0.5-0.5s0.224-0.5,0.5-0.5h4.252
					c0.276,0,0.5,0.224,0.5,0.5S332.76,190.33,332.483,190.33z"/>
				<path style="fill:#FFFFFF;" d="M332.483,192.33h-4.252c-0.276,0-0.5-0.224-0.5-0.5s0.224-0.5,0.5-0.5h4.252
					c0.276,0,0.5,0.224,0.5,0.5S332.76,192.33,332.483,192.33z"/>
				<path style="fill:#FFFFFF;" d="M332.483,194.33h-4.252c-0.276,0-0.5-0.224-0.5-0.5s0.224-0.5,0.5-0.5h4.252
					c0.276,0,0.5,0.224,0.5,0.5S332.76,194.33,332.483,194.33z"/>
			</g>
		</g>
	</g>
</g>
<g id="Speech_Bubble">
	<g>
		
			<ellipse transform="matrix(0.2298 -0.9732 0.9732 0.2298 51.1233 583.0281)" style="fill:#407BFF;" cx="393.906" cy="259.215" rx="14.201" ry="14.201"/>
		<polygon style="fill:#407BFF;" points="385.834,266.223 381.622,277.287 390.979,269.841 		"/>
		<g>
			<path style="fill:#FFFFFF;" d="M399.247,259.716h-10.682c-0.276,0-0.5-0.224-0.5-0.5c0-0.276,0.224-0.5,0.5-0.5h10.682
				c0.276,0,0.5,0.224,0.5,0.5C399.747,259.492,399.523,259.716,399.247,259.716z"/>
			<path style="fill:#FFFFFF;" d="M393.906,265.056c-0.276,0-0.5-0.224-0.5-0.5v-10.681c0-0.276,0.224-0.5,0.5-0.5
				c0.276,0,0.5,0.224,0.5,0.5v10.681C394.406,264.832,394.182,265.056,393.906,265.056z"/>
		</g>
	</g>
</g>
<g id="Character">
	<g>
		<g>
			<path style="fill:#263238;" d="M374.442,282.616c0,0-13.904-11.138-22.02,6.382c-4.583,9.894-0.911,30.762,8.116,37.836
				c9.027,7.074,27.827-8.797,27.827-8.797s4.151-20.155-2.181-28.632C378.058,278.525,374.442,282.616,374.442,282.616z"/>
			<path style="fill:#263238;" d="M355.02,325.623c-0.092,0-0.182-0.052-0.225-0.141c-0.094-0.193-9.357-19.494-4.774-33.96
				c1.335-4.215,3.662-7.119,6.915-8.634c5.89-2.741,12.873,0.093,12.943,0.12c0.127,0.054,0.188,0.199,0.135,0.327
				c-0.053,0.128-0.2,0.188-0.327,0.136c-0.068-0.028-6.856-2.778-12.543-0.128c-3.12,1.452-5.355,4.255-6.647,8.329
				c-4.523,14.274,4.653,33.399,4.747,33.591c0.061,0.124,0.009,0.273-0.115,0.334C355.094,325.615,355.057,325.623,355.02,325.623z
				"/>
		</g>
		<path style="fill:#EBB376;" d="M355.391,333.112c0,0-2.464,22.149-3.263,24.788c-0.799,2.639-12.073,16.736-12.073,16.736
			l3.199,1.669c0,0,12.037-12.338,13.909-15.997c1.873-3.659,4.762-22.757,4.762-22.757L355.391,333.112z"/>
		<path style="fill:#407BFF;" d="M366.42,342.86l-0.62-0.1l-8.81-1.44l-4.69-0.76c0,0,0.41-13.45,5.34-17.3l4.74,4.39L366.42,342.86
			z"/>
		<path style="opacity:0.2;enable-background:new    ;" d="M365.8,342.76l-8.81-1.44c-0.69-6.14,2.36-12.67,2.36-12.67
			C363.29,331.3,365.48,337.69,365.8,342.76z"/>
		<g>
			<path style="fill:#263238;" d="M373.995,362.875l-7.474,11.835c-14.827-3.453-62.357-10.704-68.194,5.603
				c-7.254,20.266,45.169,36.421,74.184,37.41c29.014,0.989,52.294-15.528,33.952-57.824L373.995,362.875z"/>
			<path style="opacity:0.2;enable-background:new    ;" d="M373.995,362.875l-7.474,11.835
				c-14.827-3.453-62.357-10.704-68.194,5.603c-7.254,20.266,45.169,36.421,74.184,37.41c29.014,0.989,52.294-15.528,33.952-57.824
				L373.995,362.875z"/>
		</g>
		<path style="fill:#263238;" d="M304.95,407.782c-0.434-0.33-0.752-0.789-0.909-1.31c-0.062-0.352,0.069-0.709,0.345-0.936
			c0.149-0.155,0.369-0.22,0.579-0.169c0.972,0.293,1.933,3.083,2.027,3.405c0.027,0.064,0.007,0.139-0.051,0.18
			c-0.062,0.048-0.146,0.052-0.213,0.011C306.098,408.63,305.502,408.234,304.95,407.782z M305.109,405.859
			c-0.065-0.058-0.142-0.102-0.224-0.13c-0.082-0.027-0.173-0.001-0.228,0.066c-0.2,0.147-0.296,0.397-0.246,0.639
			c0.43,0.889,1.163,1.595,2.067,1.992C306.182,407.495,305.718,406.625,305.109,405.859z"/>
		<path style="fill:#263238;" d="M306.688,408.964l-0.024-0.086c-0.344-0.858-0.43-3.12,0.271-3.614
			c0.243-0.159,0.564-0.129,0.773,0.072c0.242,0.161,0.409,0.414,0.462,0.699c0.221,1.142-1.119,2.832-1.209,2.91
			c-0.042,0.056-0.115,0.077-0.181,0.053C306.747,408.996,306.715,408.983,306.688,408.964z M307.542,405.684l-0.067-0.053
			c-0.207-0.146-0.291-0.079-0.336-0.056c-0.411,0.285-0.482,1.872-0.262,2.839c0.363-0.52,1.036-1.603,0.897-2.324
			C307.744,405.932,307.663,405.789,307.542,405.684L307.542,405.684z"/>
		<path style="fill:#263238;" d="M358.717,415.611c0.22,0.499,0.276,1.055,0.161,1.587c-0.116,0.338-0.404,0.587-0.754,0.652
			c-0.206,0.065-0.43,0.014-0.589-0.133c-0.709-0.727-0.199-3.633-0.125-3.961c0.007-0.069,0.062-0.125,0.131-0.133
			c0.077-0.012,0.154,0.025,0.192,0.094C358.124,414.314,358.453,414.947,358.717,415.611z M357.647,417.216
			c0.029,0.082,0.074,0.157,0.132,0.222c0.059,0.065,0.151,0.085,0.232,0.052c0.245-0.031,0.45-0.203,0.524-0.44
			c0.054-0.986-0.246-1.959-0.844-2.744C357.501,415.266,357.486,416.251,357.647,417.216z"/>
		<polygon style="fill:#EBB376;" points="338.742,399.035 350.678,403.287 356.41,405.328 354.941,411.602 349.389,410.419 
			335.829,407.529 		"/>
		<path style="fill:#407BFF;" d="M353.377,411.898l1.005-7.401c0.056-0.412,0.442-0.697,0.853-0.629l3.651,0.608
			c0,0,4.97,0.467,5.957,1.741c2.886,3.724,1.083,20.151-0.84,20.73c-0.704,0.212-1.448-0.754-1.754-1.421
			c-0.972-2.115-2.685-7.653-3.518-9.408c-0.973-2.052-3.642-3.057-4.842-3.416C353.542,412.598,353.328,412.257,353.377,411.898z"
			/>
		<path style="fill:#263238;" d="M357.769,413.736l-0.02,0.087c-0.114,0.917-1.135,2.939-1.987,3.031
			c-0.29,0.021-0.557-0.16-0.642-0.438c-0.134-0.259-0.158-0.561-0.066-0.836c0.359-1.105,2.35-1.936,2.467-1.961
			c0.063-0.028,0.138-0.012,0.184,0.041C357.733,413.679,357.755,413.705,357.769,413.736z M355.434,416.193l0.033,0.078
			c0.111,0.228,0.216,0.211,0.267,0.212c0.498-0.051,1.329-1.405,1.603-2.357c-0.569,0.277-1.682,0.9-1.91,1.6
			C355.377,415.877,355.379,416.041,355.434,416.193L355.434,416.193z"/>
		<polygon style="opacity:0.2;enable-background:new    ;" points="338.742,399.035 350.678,403.287 349.389,410.419 
			335.829,407.529 		"/>
		<g>
			<polygon style="fill:#407BFF;" points="347.274,411.491 343.841,411.738 346.139,399.928 350.033,402.082 			"/>
			<polygon style="opacity:0.6;fill:#FFFFFF;enable-background:new    ;" points="347.274,411.491 343.841,411.738 346.139,399.928 
				350.033,402.082 			"/>
		</g>
		<path style="opacity:0.2;enable-background:new    ;" d="M397.069,365.598l-17.879,19.824c0,0-19.768-0.439-43.77,11.292
			c0,0-25.756-10.639-28.122-19.477c-3.098-11.578,59.222-2.527,59.222-2.527L397.069,365.598z"/>
		<g>
			<path style="fill:#263238;" d="M313.208,379.598v2.938c0,0.754,0.888,1.063,1.632,1.063h58.707c0.754,0,1.661-0.309,1.661-1.063
				v-2.938H313.208z"/>
			<path style="opacity:0.4;fill:#FFFFFF;enable-background:new    ;" d="M313.208,379.598v2.938c0,0.754,0.888,1.063,1.632,1.063
				h58.707c0.754,0,1.661-0.309,1.661-1.063v-2.938H313.208z"/>
			<path style="opacity:0.2;enable-background:new    ;" d="M313.208,379.598v2.938c0,0.754,0.888,1.063,1.632,1.063h38.721
				c0.753,0,1.647-0.309,1.647-1.063v-2.938H313.208z"/>
			<path style="fill:#263238;" d="M303.386,349.097l6.988,31.699c0.228,1.044,1.244,1.802,2.27,1.802h38.176
				c1.017,0,1.67-0.948,1.434-1.992l-6.98-31.457c-0.236-1.035-1.243-1.551-2.269-1.551h-38.177
				C303.803,347.598,303.158,348.062,303.386,349.097z"/>
			<path style="opacity:0.4;fill:#FFFFFF;enable-background:new    ;" d="M303.386,349.097l6.988,31.699
				c0.228,1.044,1.244,1.802,2.27,1.802h36.878c1.025,0,1.67-0.948,1.443-1.992l-6.989-31.457c-0.227-1.035-1.243-1.551-2.269-1.551
				h-36.878C303.803,347.598,303.158,348.062,303.386,349.097z"/>
			<path style="opacity:0.2;enable-background:new    ;" d="M322.208,365.208v0.01c0,2.714,2.91,4.919,5.043,4.919
				c2.133,0,3.397-2.205,2.79-4.919c-0.608-2.66-2.731-4.829-4.818-4.911c0.608,2.714-0.695,4.911-2.819,4.911
				C322.359,365.218,322.208,365.218,322.208,365.208z"/>
		</g>
		<polygon style="fill:#EBB376;" points="330.452,412.616 317.95,414.674 311.947,415.663 310.195,409.461 315.626,407.81 
			328.89,403.774 		"/>
		<path style="fill:#407BFF;" d="M311.42,408.445l2.704,6.963c0.151,0.389-0.049,0.824-0.442,0.964l-3.489,1.235
			c0,0-4.574,1.997-6.056,1.359c-4.327-1.86-10.702-17.109-9.299-18.546c0.513-0.525,1.632-0.04,2.222,0.395
			c1.875,1.381,6.055,5.397,7.633,6.529c1.845,1.324,4.667,0.912,5.891,0.646C310.937,407.913,311.289,408.108,311.42,408.445z"/>
		<polygon style="opacity:0.2;enable-background:new    ;" points="330.452,412.616 317.95,414.674 315.626,407.81 328.89,403.774 
					"/>
		<path style="fill:#263238;" d="M317.779,406.514c0,0,50.974-28.655,68.562-27.84c17.588,0.815,20.126,16.322,12.87,26.027
			c-7.257,9.705-20.657,12.068-20.657,12.068s9.124-12.894,7.804-16.521c-1.318-3.627-6.48,1.434-6.48,1.434
			s-32.068,10.357-60.12,12.733L317.779,406.514z"/>
		<g>
			<polygon style="fill:#407BFF;" points="316.957,405.726 319.842,403.787 323.549,415.174 319.098,415.174 			"/>
			<polygon style="opacity:0.6;fill:#FFFFFF;enable-background:new    ;" points="316.957,405.726 319.842,403.787 323.549,415.174 
				319.098,415.174 			"/>
		</g>
		<g>
			<path style="fill:#407BFF;" d="M406.46,359.9l-32.47,2.98c0,0-5.09-10.54-8.99-14.65c-3.89-4.12-7.36-24.97-7.36-24.97
				c2.74-1.33,5.47-2.42,8.14-3.32c10.35-3.51,19.74-4.15,24.84-4.18h0.18c2.42-0.01,3.82,0.12,3.82,0.12
				c0.8,0.44,1.57,1.36,2.31,2.63c3.48,6,6.25,20,7.89,30.05C405.88,355.05,406.46,359.9,406.46,359.9z"/>
			<path style="opacity:0.2;enable-background:new    ;" d="M404.82,348.56c-7.16-3.28-16.93-8.83-16.42-14.46
				c0.55-6.18,5.56-12.4,8.53-15.59C400.41,324.51,403.18,338.51,404.82,348.56z"/>
			<path style="opacity:0.4;fill:#FFFFFF;enable-background:new    ;" d="M386.052,344.46c1.637,4.714-0.548,9.228-4.879,10.083
				c-4.331,0.855-9.17-2.274-10.807-6.988c-1.637-4.714,0.548-9.228,4.879-10.083C379.577,336.618,384.415,339.746,386.052,344.46z"
				/>
			<polygon style="fill:#407BFF;" points="372.099,353.208 374.143,336.341 387.593,350.912 			"/>
		</g>
		<path style="fill:#EBB376;" d="M390.8,315.76c-0.33,1.48-1.78,6.98-5.59,10.93c-0.62,0.64-1.3,1.25-2.05,1.77
			c-1.85,1.33-4.12,2.26-6.89,2.42c-4.47,0.27-6.86-1.68-8.26-4.12c-0.8-1.41-1.28-2.98-1.63-4.38c-0.23-0.91-0.41-1.76-0.6-2.44
			c0.53-0.18,1.05-0.35,1.57-0.51c0.79-0.25,1.56-0.48,2.33-0.7c5.74-1.6,11.03-2.37,15.25-2.72c0.74-0.05,1.44-0.1,2.1-0.14
			c1.36-0.07,2.56-0.1,3.59-0.11H390.8z"/>
		<path style="fill:#EBB376;" d="M371.335,317.882c-0.059,2.026-1.203,2.504-1.203,2.504c-0.415,3.726,2.821,4.897,4.444,4.732
			c6.373-0.653,8.386-8.322,8.386-8.322c-4.637-1.842-5.678-6.954-5.873-9.991c-0.093-1.418,0-2.386,0-2.386l-8.661,5.456
			c0.865,1.448,1.476,2.705,1.935,3.792C371.119,315.523,371.361,316.889,371.335,317.882z"/>
		<path style="opacity:0.2;enable-background:new    ;" d="M368.959,309.196c0.713,1.528,1.194,2.84,1.541,3.968
			c0.564,1.922,0.665,3.306,0.54,4.291c4.869,0.382,6.805-10.374,6.805-10.374l0.042-0.062c0.051-1.42,0.242-2.374,0.242-2.374
			L368.959,309.196z"/>
		<g>
			<path style="fill:#EBB376;" d="M361.897,287.558c-8.377,2.555-9.705,7.861-7.686,16.681c2.523,11.022,7.252,17.956,17.023,12.458
				C384.504,309.23,375.809,283.315,361.897,287.558z"/>
			<path style="fill:#D58745;" d="M359.483,302.119c0,0-0.493,2.542-1.378,4.217c0,0,1.065,0.921,2.497,0.274L359.483,302.119z"/>
			<g>
				<path style="fill:#263238;" d="M364.401,299.871c0.194,0.693,0.725,1.15,1.187,1.021c0.462-0.129,0.679-0.796,0.486-1.489
					c-0.194-0.693-0.725-1.15-1.187-1.021C364.425,298.511,364.208,299.178,364.401,299.871z"/>
				<path style="fill:#263238;" d="M365.089,298.362l-1.672-0.17C363.417,298.192,364.522,299.251,365.089,298.362z"/>
			</g>
			<g>
				<path style="fill:#263238;" d="M355.746,302.135c0.194,0.693,0.725,1.15,1.187,1.021c0.462-0.129,0.68-0.796,0.486-1.489
					c-0.194-0.693-0.725-1.15-1.187-1.021C355.77,300.776,355.552,301.442,355.746,302.135z"/>
				<path style="fill:#263238;" d="M356.434,300.626l-1.672-0.17C354.762,300.456,355.866,301.515,356.434,300.626z"/>
			</g>
			<path style="fill:#263238;" d="M366.74,294.581c-0.069,0-0.14-0.02-0.202-0.062c-1.566-1.053-3.647-0.139-3.668-0.129
				c-0.182,0.082-0.397,0.002-0.479-0.182c-0.082-0.182-0.001-0.397,0.181-0.479c0.099-0.045,2.466-1.092,4.371,0.188
				c0.166,0.111,0.21,0.337,0.099,0.503C366.972,294.525,366.857,294.581,366.74,294.581z"/>
			<path style="fill:#263238;" d="M353.397,297.633c-0.081,0-0.163-0.027-0.23-0.082c-0.155-0.127-0.177-0.355-0.05-0.511
				c1.581-1.924,3.358-1.852,3.429-1.838c0.2,0.012,0.353,0.183,0.341,0.383c-0.011,0.199-0.183,0.343-0.381,0.341l0,0
				c-0.061-0.016-1.495-0.05-2.83,1.575C353.605,297.588,353.501,297.633,353.397,297.633z"/>
			<path style="fill:#263238;" d="M375.358,298.884c0,0-6.016-5.688-7.042-11.182c0,0-18.668-1.719-14.349,15.38
				c0,0-6.185-14.466,8.114-19.191c14.275-4.717,20.661,16.36,15.139,24.905C377.219,308.796,379.093,302.45,375.358,298.884z"/>
			<path style="fill:#EBB376;" d="M374.529,301.07c-0.355-1.366,0.34-4.073,2.932-4.564c2.682-0.508,5.544,4.443-0.522,7.694
				C376.069,304.666,375.27,303.919,374.529,301.07z"/>
			<path style="fill:#263238;" d="M362.533,310.389c-0.196,0-0.357-0.156-0.362-0.354c-0.004-0.2,0.154-0.366,0.354-0.371
				c3.478-0.081,3.906-3.169,3.922-3.3c0.025-0.199,0.208-0.34,0.404-0.314c0.199,0.024,0.339,0.206,0.314,0.404
				c-0.005,0.039-0.529,3.839-4.624,3.935C362.539,310.389,362.536,310.389,362.533,310.389z"/>
			<path style="fill:#263238;" d="M387.554,307.823c-0.119,0-0.225-0.086-0.246-0.207c-0.008-0.046-0.928-4.628-9.746-7.193
				c-9.169-2.669-9.799-13.67-9.804-13.781c-0.007-0.138,0.1-0.255,0.237-0.262c0.155,0.008,0.255,0.101,0.262,0.238
				c0.005,0.107,0.621,10.757,9.444,13.324c9.149,2.663,10.064,7.389,10.099,7.589c0.023,0.135-0.068,0.264-0.203,0.288
				C387.582,307.821,387.568,307.823,387.554,307.823z"/>
		</g>
		<path style="fill:#EBB376;" d="M390.804,326.819c0,0-1.064,21.374-2.862,26.162c-1.799,4.788-20.689,22.489-20.689,22.489
			s-5.273-1.177-6.148-0.834c-0.874,0.342-5.897,4.962-5.897,4.962h14.533l1.267-2.246c0,0,19.546-14.476,21.693-17.927
			c1.589-2.553,6.694-28.516,6.694-28.516L390.804,326.819z"/>
		<path style="fill:#407BFF;" d="M394.621,315.882c13.146,3.225,7.003,22.955,7.003,22.955l-13.683-3.352
			C387.941,335.485,387.941,314.244,394.621,315.882z"/>
		<g>
			<path style="fill:#263238;" d="M385.21,326.69c-0.62,0.64-1.3,1.25-2.05,1.77c-0.97-5.43,0.78-10.27,1.77-12.45
				c0.74-0.05,1.44-0.1,2.1-0.14C385.36,319.64,385.11,323.8,385.21,326.69z"/>
			<path style="fill:#263238;" d="M369.68,318.73c-1.13,2.7-1.56,5.58-1.67,8.03c-0.8-1.41-1.28-2.98-1.63-4.38
				c0.29-1.15,0.64-2.15,0.97-2.95C368.14,319.18,368.91,318.95,369.68,318.73z"/>
			<path style="opacity:0.4;fill:#FFFFFF;enable-background:new    ;" d="M385.21,326.69c-0.62,0.64-1.3,1.25-2.05,1.77
				c-0.97-5.43,0.78-10.27,1.77-12.45c0.74-0.05,1.44-0.1,2.1-0.14C385.36,319.64,385.11,323.8,385.21,326.69z"/>
			<path style="opacity:0.4;fill:#FFFFFF;enable-background:new    ;" d="M369.68,318.73c-1.13,2.7-1.56,5.58-1.67,8.03
				c-0.8-1.41-1.28-2.98-1.63-4.38c0.29-1.15,0.64-2.15,0.97-2.95C368.14,319.18,368.91,318.95,369.68,318.73z"/>
		</g>
	</g>
</g>
</svg>
