<?xml version="1.0" encoding="utf-8"?>
<!-- Generator: Adobe Illustrator 27.5.0, SVG Export Plug-In . SVG Version: 6.00 Build 0)  -->
<svg version="1.1" xmlns="http://www.w3.org/2000/svg" xmlns:xlink="http://www.w3.org/1999/xlink" x="0px" y="0px"
	 viewBox="0 0 500 500" style="enable-background:new 0 0 500 500;" xml:space="preserve">
<g id="Background_Complete">
	<g>
		<rect x="416.779" y="398.494" style="fill:#EBEBEB;" width="33.122" height="0.25"/>
		<rect x="322.527" y="401.208" style="fill:#EBEBEB;" width="8.693" height="0.25"/>
		<rect x="396.586" y="389.208" style="fill:#EBEBEB;" width="19.192" height="0.25"/>
		<rect x="52.459" y="390.888" style="fill:#EBEBEB;" width="43.193" height="0.25"/>
		<rect x="104.556" y="390.888" style="fill:#EBEBEB;" width="6.333" height="0.25"/>
		<rect x="131.471" y="395.111" style="fill:#EBEBEB;" width="93.676" height="0.25"/>
		<path style="fill:#EBEBEB;" d="M237.014,337.8H43.915c-3.147,0-5.708-2.561-5.708-5.708V60.66c0-3.147,2.561-5.708,5.708-5.708
			h193.099c3.146,0,5.707,2.561,5.707,5.708v271.432C242.721,335.239,240.16,337.8,237.014,337.8z M43.915,55.203
			c-3.01,0-5.458,2.448-5.458,5.458v271.432c0,3.01,2.448,5.458,5.458,5.458h193.099c3.009,0,5.457-2.448,5.457-5.458V60.66
			c0-3.009-2.448-5.458-5.457-5.458H43.915z"/>
		<path style="fill:#EBEBEB;" d="M453.31,337.8H260.212c-3.147,0-5.707-2.561-5.707-5.708V60.66c0-3.147,2.561-5.708,5.707-5.708
			H453.31c3.148,0,5.708,2.561,5.708,5.708v271.432C459.019,335.239,456.458,337.8,453.31,337.8z M260.212,55.203
			c-3.009,0-5.457,2.448-5.457,5.458v271.432c0,3.01,2.448,5.458,5.457,5.458H453.31c3.01,0,5.458-2.448,5.458-5.458V60.66
			c0-3.009-2.448-5.458-5.458-5.458H260.212z"/>
		<rect y="382.398" style="fill:#EBEBEB;" width="500" height="0.25"/>
	</g>
	<g>
		
			<rect x="84.635" y="237.8" transform="matrix(-1 -1.224647e-16 1.224647e-16 -1 171.5522 618.5536)" style="fill:#EBEBEB;" width="2.281" height="142.954"/>
		<g>
			<path style="fill:#F0F0F0;" d="M111.377,223.006c0,7.297-5.179,13.66-12.865,17.053H73.04
				c-7.685-3.393-12.865-9.757-12.865-17.053c0-7.297,5.179-13.66,12.865-17.053h25.473
				C106.198,209.346,111.377,215.709,111.377,223.006z"/>
			<path style="fill:#F5F5F5;" d="M77.495,223.006c0-7.297,5.179-13.66,12.865-17.053h8.153c7.685,3.393,12.865,9.757,12.865,17.053
				c0,7.297-5.179,13.66-12.865,17.053H90.36C82.675,236.666,77.495,230.303,77.495,223.006z"/>
		</g>
		<path style="fill:#EBEBEB;" d="M69.732,381.844h32.089l0,0c0-2.163-1.754-3.917-3.917-3.917H73.649
			C71.485,377.927,69.732,379.681,69.732,381.844L69.732,381.844z"/>
	</g>
	<g>
		<g>
			<path style="fill:#F5F5F5;" d="M409.824,321.565c0.087,0.097-0.392,0.765,1.556,0.472c4.799-0.722,13.156-2.665,15.483-7.604
				c3.323-7.051-6.979-4.477-6.623-8.08c0.355-3.603,12.076-2.976,13.322-8.262c1.245-5.286-6.706-2.769-6.811-5.345
				c-0.105-2.576,9.055-0.977,10.873-6.68c1.818-5.703-5.105-1.505-4.309-3.876c0.796-2.371,8.545-13.097,4.328-14.342
				c-4.217-1.245-11.32,9.762-14.061,11.321c-2.741,1.56-5.176-7.424-8.444-3.631c-3.267,3.793,1.915,17.064-2.253,19.639
				c-3.104,1.918-2.227-3.365-6.323-2.379C400.997,294.137,402.869,313.785,409.824,321.565z"/>
			<path style="fill:#E0E0E0;" d="M424.638,292.775c-1.888,0.158-3.282,0.542-4.147,0.852c1.691-2.477,2.907-3.748,2.951-3.792
				c0.138-0.14,0.136-0.365-0.004-0.503c-0.139-0.138-0.364-0.135-0.503,0.004c-0.034,0.034-2.839,2.924-5.911,8.576
				c-1.509-9.094,2.3-17.043,2.34-17.125c0.065-0.132,0.01-0.292-0.123-0.357c-0.131-0.066-0.292-0.01-0.356,0.122
				c-0.042,0.085-4.108,8.569-2.265,18.112c-0.491,0.936-0.985,1.937-1.474,3.012c-1.411,3.106-2.887,7.087-4.055,11.886
				c-0.81-1.464-2.667-5.383-2.833-10.855c-0.004-0.147-0.128-0.262-0.275-0.258c-0.15,0.01-0.263,0.128-0.259,0.275
				c0.192,6.332,2.618,10.662,3.181,11.585c-1.545,6.658-2.47,14.852-1.805,24.505c0.014,0.196,0.183,0.344,0.379,0.331
				c0.015-0.001,0.03-0.003,0.044-0.006c0.174-0.034,0.299-0.192,0.286-0.373c-0.881-12.781,1.031-23.055,3.676-30.834
				c0.671-0.776,2.655-2.769,5.675-3.238c0.137-0.033,0.245-0.16,0.222-0.305c-0.023-0.145-0.159-0.245-0.305-0.222
				c-2.388,0.378-4.137,1.616-5.176,2.572c1.952-5.404,4.223-9.513,6.063-12.326c0.593-0.267,2.214-0.897,4.716-1.106
				c0.145-0.018,0.256-0.141,0.243-0.288C424.914,292.872,424.785,292.764,424.638,292.775z"/>
		</g>
		<g>
			<g>
				<path style="fill:#E6E6E6;" d="M402.014,326.444c-4.913,0.093-13.305-4.469-16.599-8.908c-3.343-4.504,6.061-1.71,5.095-5.247
					c-0.966-3.537-12.56-0.923-14.7-5.989c-2.14-5.066,6.225-3.902,5.894-6.491c-0.332-2.589-8.998-2.063-11.78-7.448
					c-2.782-5.385,4.841-2.368,3.645-4.6c-1.197-2.232-10.751-11.626-6.753-13.584c3.999-1.958,12.956,7.826,15.956,8.917
					c3.001,1.092,3.702-5.666,7.607-2.433c3.905,3.233,0.982,17.359,5.579,19.223c3.424,1.388,1.967-5.08,5.909-3.447
					C408.767,299.295,404.009,326.406,402.014,326.444z"/>
				<g style="opacity:0.3;">
					<path style="fill:#E6E6E6;" d="M402.014,326.444c-4.913,0.093-13.305-4.469-16.599-8.908c-3.343-4.504,6.061-1.71,5.095-5.247
						c-0.966-3.537-12.56-0.923-14.7-5.989c-2.14-5.066,6.225-3.902,5.894-6.491c-0.332-2.589-8.998-2.063-11.78-7.448
						c-2.782-5.385,4.841-2.368,3.645-4.6c-1.197-2.232-10.751-11.626-6.753-13.584c3.999-1.958,12.956,7.826,15.956,8.917
						c3.001,1.092,3.702-5.666,7.607-2.433c3.905,3.233,0.982,17.359,5.579,19.223c3.424,1.388,1.967-5.08,5.909-3.447
						C408.767,299.295,404.009,326.406,402.014,326.444z"/>
				</g>
			</g>
			<path style="fill:#F5F5F5;" d="M400.392,320.547c0.071-0.028,0.135-0.07,0.173-0.143c0.115-0.218,2.807-5.428,2.204-13.171
				c-0.015-0.181-0.167-0.313-0.353-0.302c-0.181,0.015-0.316,0.172-0.302,0.353c0.51,6.538-1.441,11.323-1.989,12.518
				c-2.199-5.971-4.835-11.282-7.482-15.827c0.869-10.55-4.537-19.188-4.592-19.275c-0.098-0.153-0.3-0.199-0.453-0.101
				c-0.153,0.098-0.199,0.3-0.101,0.453c0.052,0.082,5.017,8.025,4.554,17.905c-6.297-10.547-12.443-16.674-12.566-16.795
				c-0.172-0.169-0.45-0.168-0.619,0.007c-0.169,0.172-0.167,0.45,0.006,0.619c0.103,0.101,4.473,4.467,9.589,12.124
				c-2.998-1.114-6.25-1.694-9.289-1.636c-0.181,0.003-0.326,0.153-0.322,0.335c0.003,0.179,0.15,0.322,0.328,0.322
				c0.002,0,0.004,0,0.006,0c3.254-0.058,6.756,0.622,9.907,1.929c1.759,2.697,3.586,5.779,5.346,9.194
				c-1.689-1.142-4.969-2.723-9.165-1.614c-0.175,0.046-0.28,0.226-0.234,0.401c0.047,0.175,0.226,0.283,0.402,0.234
				c5.323-1.404,9.074,1.777,9.688,2.343c4.818,9.701,8.973,21.966,9.523,36.021c0.009,0.236,0.203,0.421,0.437,0.421
				c0.006,0,0.012,0,0.017,0c0.242-0.009,0.43-0.213,0.421-0.455C405.154,336.896,403.139,328.203,400.392,320.547z"/>
		</g>
		<path style="fill:#E6E6E6;" d="M414.891,381.844c3.807-10.847,6.308-26.519,6.308-33.389c0-5.806-1.797-11.017-4.648-14.666
			h-19.494c-2.851,3.649-4.648,8.86-4.648,14.666c0,6.87,2.501,22.542,6.308,33.389H414.891z"/>
	</g>
	<g>
		<g>
			<g>
				<rect x="110.97" y="316.938" style="fill:#EBEBEB;" width="85.698" height="29.581"/>
				<rect x="110.97" y="346.519" style="fill:#EBEBEB;" width="85.698" height="29.581"/>
				<g>
					<polygon style="fill:#F5F5F5;" points="143.536,346.519 154.199,316.938 137.788,316.938 127.126,346.519 					"/>
					<polygon style="fill:#F5F5F5;" points="162.141,316.938 158.536,316.938 147.873,346.519 151.478,346.519 					"/>
				</g>
				<g>
					<polygon style="fill:#F5F5F5;" points="132.873,376.101 143.536,346.519 127.126,346.519 116.463,376.101 					"/>
					<polygon style="fill:#F5F5F5;" points="151.478,346.519 147.873,346.519 137.211,376.101 140.815,376.101 					"/>
				</g>
				
					<rect x="152.323" y="277.142" transform="matrix(-1.836970e-16 1 -1 -1.836970e-16 473.8102 166.1712)" style="fill:#E0E0E0;" width="2.993" height="85.698"/>
				
					<rect x="152.323" y="306.492" transform="matrix(-1.836970e-16 1 -1 -1.836970e-16 503.1607 195.5219)" style="fill:#E0E0E0;" width="2.993" height="85.698"/>
				<path style="fill:#F5F5F5;" d="M109.474,315.612v61.781h1.496h1.496h82.705h1.496h1.496v-61.781H109.474z M195.172,374.4
					h-82.705v-26.317h82.705V374.4z M195.172,345.09h-82.705v-26.317h82.705V345.09z"/>
				<g>
					<rect x="199.661" y="316.938" style="fill:#EBEBEB;" width="85.698" height="29.581"/>
					<rect x="199.661" y="346.519" style="fill:#EBEBEB;" width="85.698" height="29.581"/>
					<g>
						<polygon style="fill:#F5F5F5;" points="241.176,346.519 251.838,316.938 235.428,316.938 224.766,346.519 						"/>
						<polygon style="fill:#F5F5F5;" points="259.78,316.938 256.176,316.938 245.513,346.519 249.118,346.519 						"/>
					</g>
					<g>
						<polygon style="fill:#F5F5F5;" points="230.513,376.101 241.176,346.519 224.766,346.519 214.103,376.101 						"/>
						<polygon style="fill:#F5F5F5;" points="249.118,346.519 245.513,346.519 234.851,376.101 238.455,376.101 						"/>
					</g>
					
						<rect x="241.014" y="277.142" transform="matrix(-1.836970e-16 1 -1 -1.836970e-16 562.5012 77.4802)" style="fill:#E0E0E0;" width="2.993" height="85.698"/>
					
						<rect x="241.014" y="306.492" transform="matrix(-1.836970e-16 1 -1 -1.836970e-16 591.8518 106.8308)" style="fill:#E0E0E0;" width="2.993" height="85.698"/>
					<path style="fill:#F5F5F5;" d="M198.165,315.612v61.781h1.496h1.496h82.705h1.496h1.496v-61.781H198.165z M283.863,374.4
						h-82.705v-26.317h82.705V374.4z M283.863,345.09h-82.705v-26.317h82.705V345.09z"/>
				</g>
				<g>
					<rect x="288.352" y="316.938" style="fill:#EBEBEB;" width="85.698" height="29.581"/>
					<rect x="288.352" y="346.519" style="fill:#EBEBEB;" width="85.698" height="29.581"/>
					<g>
						<polygon style="fill:#F5F5F5;" points="324.824,346.519 335.486,316.938 319.076,316.938 308.414,346.519 						"/>
						<polygon style="fill:#F5F5F5;" points="343.428,316.938 339.824,316.938 329.161,346.519 332.766,346.519 						"/>
					</g>
					<g>
						<polygon style="fill:#F5F5F5;" points="314.161,376.101 324.824,346.519 308.414,346.519 297.751,376.101 						"/>
						<polygon style="fill:#F5F5F5;" points="332.766,346.519 329.161,346.519 318.499,376.101 322.103,376.101 						"/>
					</g>
					
						<rect x="329.704" y="277.142" transform="matrix(-1.836970e-16 1 -1 -1.836970e-16 651.1915 -11.2101)" style="fill:#E0E0E0;" width="2.993" height="85.698"/>
					
						<rect x="329.704" y="306.492" transform="matrix(-1.836970e-16 1 -1 -1.836970e-16 680.5422 18.1404)" style="fill:#E0E0E0;" width="2.993" height="85.698"/>
					<path style="fill:#F5F5F5;" d="M286.855,315.612v61.781h1.496h1.496h82.705h1.496h1.497v-61.781H286.855z M372.554,374.4
						h-82.705v-26.317h82.705V374.4z M372.554,345.09h-82.705v-26.317h82.705V345.09z"/>
				</g>
			</g>
			<polygon style="fill:#E0E0E0;" points="366.972,381.844 118.049,381.844 116.753,377.393 368.267,377.393 			"/>
		</g>
		<g>
			<path style="fill:#E0E0E0;" d="M245.083,334.502c0,1.421-1.152,2.573-2.573,2.573s-2.573-1.152-2.573-2.573
				c0-1.421,1.152-2.573,2.573-2.573S245.083,333.081,245.083,334.502z"/>
			<circle style="fill:#FAFAFA;" cx="242.51" cy="333.776" r="2.573"/>
		</g>
		<g>
			<circle style="fill:#E0E0E0;" cx="242.51" cy="361.673" r="2.573"/>
			<path style="fill:#FAFAFA;" d="M245.083,360.947c0,1.421-1.152,2.573-2.573,2.573s-2.573-1.152-2.573-2.573
				c0-1.421,1.152-2.573,2.573-2.573S245.083,359.526,245.083,360.947z"/>
		</g>
		<g>
			<path style="fill:#E0E0E0;" d="M156.392,334.502c0,1.421-1.152,2.573-2.573,2.573s-2.573-1.152-2.573-2.573
				c0-1.421,1.152-2.573,2.573-2.573S156.392,333.081,156.392,334.502z"/>
			<circle style="fill:#FAFAFA;" cx="153.819" cy="333.776" r="2.573"/>
		</g>
		<g>
			<circle style="fill:#E0E0E0;" cx="153.819" cy="361.673" r="2.573"/>
			<path style="fill:#FAFAFA;" d="M156.392,360.947c0,1.421-1.152,2.573-2.573,2.573s-2.573-1.152-2.573-2.573
				c0-1.421,1.152-2.573,2.573-2.573S156.392,359.526,156.392,360.947z"/>
		</g>
		<g>
			<path style="fill:#E0E0E0;" d="M335.339,334.502c0,1.421-1.152,2.573-2.573,2.573c-1.421,0-2.573-1.152-2.573-2.573
				c0-1.421,1.152-2.573,2.573-2.573C334.187,331.93,335.339,333.081,335.339,334.502z"/>
			<circle style="fill:#FAFAFA;" cx="332.766" cy="333.776" r="2.573"/>
		</g>
		<g>
			<circle style="fill:#E0E0E0;" cx="332.766" cy="361.673" r="2.573"/>
			<path style="fill:#FAFAFA;" d="M335.339,360.947c0,1.421-1.152,2.573-2.573,2.573c-1.421,0-2.573-1.152-2.573-2.573
				c0-1.421,1.152-2.573,2.573-2.573C334.187,358.374,335.339,359.526,335.339,360.947z"/>
		</g>
	</g>
</g>
<g id="Background_Simple" style="display:none;">
	<g style="display:inline;">
		<path style="fill:#407BFF;" d="M387.895,270.675c-5.176,33.747,4.104,83.739-26.669,102.177
			c-40.566,24.306-93.372-38.5-139.952-50.153c-35.582-8.901-112.654,36.18-141.381,14.686
			c-28.027-20.97,30.313-96.977,33.124-130.368c2.78-33.036-31.912-99.977-9.449-125.666
			c30.258-34.603,103.965,31.308,150.022,43.578c40.859,10.886,146.355-23.245,169.657,9.869
			C442.614,162.32,392.892,238.096,387.895,270.675z"/>
		<path style="opacity:0.9;fill:#FFFFFF;" d="M387.895,270.675c-5.176,33.747,4.104,83.739-26.669,102.177
			c-40.566,24.306-93.372-38.5-139.952-50.153c-35.582-8.901-112.654,36.18-141.381,14.686
			c-28.027-20.97,30.313-96.977,33.124-130.368c2.78-33.036-31.912-99.977-9.449-125.666
			c30.258-34.603,103.965,31.308,150.022,43.578c40.859,10.886,146.355-23.245,169.657,9.869
			C442.614,162.32,392.892,238.096,387.895,270.675z"/>
	</g>
</g>
<g id="Shadow">
	<ellipse id="_x3C_Path_x3E__1_" style="fill:#F5F5F5;" cx="245.178" cy="412.391" rx="193.889" ry="11.323"/>
</g>
<g id="Interface">
	<g>
		<g>
			<g>
				<g>
					<rect x="81.862" y="81.317" style="fill:#407BFF;" width="332.585" height="193.063"/>
					<rect x="81.862" y="81.317" style="opacity:0.5;fill:#FFFFFF;" width="332.585" height="193.063"/>
				</g>
				<path style="fill:#407BFF;" d="M81.862,81.317v15.57h55.635v-5.98c0-2.971,2.408-5.379,5.379-5.379h37.039
					c2.971,0,5.379,2.408,5.379,5.379v5.98h229.153v-15.57H81.862z"/>
				<path style="opacity:0.7;fill:#FFFFFF;" d="M95.739,89.102c0,1.974-1.6,3.574-3.574,3.574c-1.974,0-3.574-1.6-3.574-3.574
					c0-1.974,1.6-3.574,3.574-3.574C94.139,85.528,95.739,87.128,95.739,89.102z"/>
				<path style="opacity:0.7;fill:#FFFFFF;" d="M106.46,89.102c0,1.974-1.6,3.574-3.574,3.574c-1.974,0-3.574-1.6-3.574-3.574
					c0-1.974,1.6-3.574,3.574-3.574C104.86,85.528,106.46,87.128,106.46,89.102z"/>
				<path style="opacity:0.7;fill:#FFFFFF;" d="M117.181,89.102c0,1.974-1.6,3.574-3.574,3.574s-3.574-1.6-3.574-3.574
					c0-1.974,1.6-3.574,3.574-3.574S117.181,87.128,117.181,89.102z"/>
			</g>
			<rect x="185.282" y="126.659" style="opacity:0.3;fill:#FFFFFF;" width="216.981" height="135.609"/>
			<rect x="93.508" y="126.659" style="opacity:0.3;fill:#FFFFFF;" width="63.789" height="63.79"/>
			<rect x="93.508" y="126.659" style="opacity:0.4;fill:#FFFFFF;" width="63.789" height="63.79"/>
			<rect x="108.418" y="207.346" style="fill:#263238;" width="37.756" height="2.694"/>
			<g>
				<g>
					<rect x="337.138" y="105.887" style="fill:#407BFF;" width="63.906" height="9.794"/>
					<rect x="337.138" y="105.887" style="opacity:0.9;fill:#FFFFFF;" width="63.906" height="9.794"/>
				</g>
				<rect x="401.043" y="105.887" style="fill:#407BFF;" width="1.22" height="9.794"/>
			</g>
			<g>
				<rect x="249.188" y="105.887" style="fill:#407BFF;" width="1.22" height="9.794"/>
				<g>
					<rect x="185.282" y="105.887" style="fill:#407BFF;" width="63.906" height="9.794"/>
					<rect x="185.282" y="105.887" style="opacity:0.9;fill:#FFFFFF;" width="63.906" height="9.794"/>
				</g>
			</g>
			<path style="opacity:0.4;fill:#FFFFFF;" d="M179.614,261.282L179.614,261.282c-1.651,0-2.989-1.338-2.989-2.989v-38.106
				c0-1.651,1.338-2.989,2.989-2.989l0,0c1.651,0,2.989,1.338,2.989,2.989v38.106C182.603,259.944,181.265,261.282,179.614,261.282z
				"/>
			<path style="opacity:0.4;fill:#FFFFFF;" d="M103.564,208.693c0,2.634-2.135,4.769-4.769,4.769c-2.634,0-4.769-2.135-4.769-4.769
				c0-2.634,2.135-4.769,4.769-4.769C101.429,203.924,103.564,206.059,103.564,208.693z"/>
			<rect x="108.418" y="222.343" style="fill:#263238;" width="48.362" height="2.694"/>
			<path style="opacity:0.4;fill:#FFFFFF;" d="M103.564,223.691c0,2.634-2.135,4.769-4.769,4.769c-2.634,0-4.769-2.135-4.769-4.769
				c0-2.634,2.135-4.769,4.769-4.769C101.429,218.921,103.564,221.057,103.564,223.691z"/>
			<rect x="108.418" y="237.341" style="fill:#263238;" width="41.612" height="2.694"/>
			<path style="opacity:0.4;fill:#FFFFFF;" d="M103.564,238.688c0,2.634-2.135,4.769-4.769,4.769c-2.634,0-4.769-2.135-4.769-4.769
				s2.135-4.769,4.769-4.769C101.429,233.919,103.564,236.054,103.564,238.688z"/>
			<rect x="108.418" y="252.338" style="fill:#263238;" width="37.756" height="2.694"/>
			<path style="opacity:0.4;fill:#FFFFFF;" d="M103.564,253.685c0,2.634-2.135,4.769-4.769,4.769c-2.634,0-4.769-2.135-4.769-4.769
				c0-2.634,2.135-4.769,4.769-4.769C101.429,248.916,103.564,251.051,103.564,253.685z"/>
		</g>
		<g>
			<g>
				<g>
					<path style="fill:#407BFF;" d="M311.471,280.634c4.966,0,28.931,0,33.897,0c0.734,0,0.835-1.14,0.1-1.14
						c-4.966,0-28.931,0-33.897,0C310.838,279.494,310.737,280.634,311.471,280.634L311.471,280.634z"/>
				</g>
				<g>
					<path style="fill:#407BFF;" d="M350.826,280.634c1.427,0,2.854,0,4.28,0c0.734,0,0.835-1.14,0.1-1.14c-1.427,0-2.853,0-4.28,0
						C350.192,279.494,350.091,280.634,350.826,280.634L350.826,280.634z"/>
				</g>
			</g>
			<g>
				<g>
					<path style="fill:#407BFF;" d="M183.876,76.717c-4.966,0-28.931,0-33.897,0c-0.734,0-0.834,1.14-0.1,1.14
						c4.966,0,28.931,0,33.897,0C184.51,77.857,184.611,76.717,183.876,76.717L183.876,76.717z"/>
				</g>
				<g>
					<path style="fill:#407BFF;" d="M144.522,76.717c-1.427,0-2.854,0-4.28,0c-0.734,0-0.834,1.14-0.1,1.14c1.427,0,2.854,0,4.28,0
						C145.156,77.857,145.257,76.717,144.522,76.717L144.522,76.717z"/>
				</g>
			</g>
		</g>
	</g>
</g>
<g id="Menu">
	<g>
		<g>
			<rect x="328.765" y="150.732" style="fill:#407BFF;" width="68.727" height="63.847"/>
			<rect x="328.765" y="150.732" style="opacity:0.9;fill:#FFFFFF;" width="68.727" height="63.847"/>
		</g>
		
			<rect x="397.492" y="150.732" transform="matrix(-1 -1.224647e-16 1.224647e-16 -1 796.3828 365.311)" style="fill:#407BFF;" width="1.399" height="63.847"/>
		<g>
			<rect x="328.743" y="198.04" style="fill:#407BFF;" width="68.77" height="16.539"/>
			<rect x="339.164" y="156.666" style="fill:#263238;" width="47.929" height="4.453"/>
			<rect x="339.164" y="172.54" style="fill:#263238;" width="47.929" height="4.453"/>
			<rect x="339.164" y="188.415" style="fill:#263238;" width="47.929" height="4.453"/>
			<rect x="332.773" y="203.695" style="fill:#FFFFFF;" width="60.71" height="5.641"/>
		</g>
		<g>
			<rect x="258.639" y="104.593" style="fill:#407BFF;" width="68.727" height="78.868"/>
			<rect x="258.639" y="104.593" style="opacity:0.9;fill:#FFFFFF;" width="68.727" height="78.868"/>
		</g>
		
			<rect x="327.366" y="104.593" transform="matrix(-1 -1.224647e-16 1.224647e-16 -1 656.1304 288.0553)" style="fill:#407BFF;" width="1.399" height="78.868"/>
		<rect x="261.049" y="107.004" style="fill:#407BFF;" width="63.906" height="9.794"/>
		<rect x="258.596" y="150.732" style="fill:#407BFF;" width="68.77" height="16.539"/>
		<rect x="269.038" y="125.549" style="fill:#263238;" width="47.929" height="4.453"/>
		<rect x="269.038" y="141.423" style="fill:#263238;" width="47.929" height="4.453"/>
		<rect x="262.647" y="156.703" style="fill:#FFFFFF;" width="60.71" height="5.641"/>
		<rect x="269.038" y="173.171" style="fill:#263238;" width="47.929" height="4.453"/>
	</g>
</g>
<g id="Character">
	<g>
		<g>
			<path style="fill:#E4897B;" d="M177.85,201.448c0,0-11.71,24.082-6.817,26.06c4.893,1.978,21.371,3.096,21.371,3.096l7.184,6.872
				l4.165-2.707l-1.057-7.003l-9.445-1.978l-12.62-3.92c-1.129-0.351-1.694-1.613-1.204-2.689l6.101-13.378L177.85,201.448z"/>
			<path style="fill:#FFFFFF;" d="M181.354,192.721c-0.332-0.983-1.594-1.238-2.285-0.464c-1.214,1.361-3.003,4.107-5.094,9.619
				l-2.137,5.698l10.862,7.479l4.096-6.232L181.354,192.721z"/>
			<path style="opacity:0.2;" d="M180.167,199.404l1.197-1.534l2.323,1.755l3.108,9.196l-4.095,6.232l-2.081-1.433
				C181.26,207.749,180.167,199.404,180.167,199.404z"/>
			<g>
				<polygon style="fill:#407BFF;" points="184.268,214.034 171.837,205.28 170.937,207.965 182.676,216.123 				"/>
				<polygon style="opacity:0.5;fill:#FFFFFF;" points="184.268,214.034 171.837,205.28 170.937,207.965 182.676,216.123 				"/>
			</g>
		</g>
		<g>
			<polygon style="fill:#E4897B;" points="183.546,380.583 177.817,400.06 172.002,399.722 173.233,378.578 			"/>
			<path style="fill:#407BFF;" d="M213.689,236.376c0,0,7.069,14.211,0.273,40.342c-6.796,26.131-33.986,117.167-33.986,117.167
				l-7.658-0.919c0,0-0.482-32.667,10.29-59.029c0,0,5.169-44.817,2.651-55.352c-1.76-7.366-2.831-13.52,0.207-24.675
				c1.716-6.302,3.374-10.827,4.906-13.877c2.001-3.984,1.409-5.516,1.409-5.516L213.689,236.376z"/>
			<path style="opacity:0.5;" d="M213.689,236.376c0,0,7.069,14.211,0.273,40.342c-6.796,26.131-33.986,117.167-33.986,117.167
				l-7.658-0.919c0,0-0.482-32.667,10.29-59.029c0,0,5.169-44.817,2.651-55.352c-1.76-7.366-2.831-13.52,0.207-24.675
				c1.716-6.302,3.374-10.827,4.906-13.877c2.001-3.984,1.409-5.516,1.409-5.516L213.689,236.376z"/>
			<path style="opacity:0.4;" d="M204.643,310.02c-9.824-27.302-7.12-47.112-7.12-47.112l6.143-0.801l4.808,8.547l3.351,14.005
				C209.922,291.575,207.417,300.393,204.643,310.02z"/>
			<g>
				<path style="fill:#407BFF;" d="M179.158,400.077c-0.072-0.025-0.123-0.09-0.129-0.167c-0.005-0.077,0.04-0.148,0.111-0.178
					c0.126-0.053,2.985-1.257,4.223-0.751c0.231,0.091,0.418,0.268,0.52,0.494c0.144,0.254,0.111,0.572-0.082,0.791
					c-0.365,0.371-1.372,0.427-2.325,0.311C180.69,400.479,179.915,400.311,179.158,400.077z M179.775,399.905
					c1.405,0.349,3.34,0.571,3.756,0.115c0.059-0.055,0.12-0.159,0.012-0.401c-0.058-0.144-0.177-0.253-0.326-0.297
					c-0.109-0.045-0.224-0.075-0.342-0.087C181.809,399.26,180.757,399.487,179.775,399.905z"/>
				<path style="fill:#407BFF;" d="M179.063,400.055c-0.051-0.042-0.074-0.109-0.062-0.174c0.022-0.095,0.477-2.138,1.55-2.822
					c0.309-0.203,0.688-0.271,1.048-0.188c0.494,0.111,0.62,0.382,0.613,0.593c0.059,0.882-1.985,2.321-2.95,2.617
					c-0.025,0.009-0.052,0.008-0.077-0.003C179.144,400.086,179.1,400.078,179.063,400.055z M181.436,397.2
					c-0.23-0.03-0.462,0.024-0.655,0.152c-0.652,0.591-1.106,1.369-1.302,2.227c1.018-0.447,2.383-1.601,2.399-2.127
					c-0.008-0.048-0.014-0.182-0.337-0.249L181.436,397.2L181.436,397.2z"/>
				<path style="fill:#263238;" d="M178.505,398.909l-8.368-1.012c-0.315-0.038-0.615,0.147-0.721,0.447l-2.336,6.625
					c-0.212,0.586,0.092,1.233,0.678,1.444c0.075,0.027,0.153,0.046,0.232,0.057c3.023,0.313,5.725,0.472,9.481,0.931
					c4.432,0.538,3.243,0.932,8.445,1.636c3.134,0.421,4.141-3.078,2.831-3.414c-6-1.504-6.41-3.42-8.497-5.886
					C179.789,399.257,179.168,398.962,178.505,398.909z"/>
			</g>
			<g>
				<polygon style="fill:#263238;" points="181.66,392.47 171.047,391.138 171.21,394.3 180.571,395.458 				"/>
				<polygon style="opacity:0.4;" points="181.66,392.47 171.047,391.138 171.21,394.3 180.571,395.458 				"/>
			</g>
		</g>
		<polygon style="fill:#E4897B;" points="212.891,381.9 210.388,401.309 204.512,401.309 202.999,382.257 		"/>
		<path style="fill:#407BFF;" d="M223.036,234.196c0,0,0.086,1.687,1.423,5.09c2.387,6.079,4.958,25.169,4.424,34.828
			c-1.489,26.959-17.464,120.74-17.464,120.74h-7.721c0,0-5.288-31.916,0.953-60.032c0,0,2.213-39.578-1.082-49.897
			c-2.294-7.184-8.782-14.137-7.119-29.314c1.663-15.177,5.69-20.374,5.69-20.374L223.036,234.196z"/>
		<path style="opacity:0.5;" d="M223.036,234.196c0,0,0.086,1.687,1.423,5.09c2.387,6.079,4.958,25.169,4.424,34.828
			c-1.489,26.959-17.464,120.74-17.464,120.74h-7.721c0,0-5.288-31.916,0.953-60.032c0,0,2.213-39.578-1.082-49.897
			c-2.294-7.184-8.782-14.137-7.119-29.314c1.663-15.177,5.69-20.374,5.69-20.374L223.036,234.196z"/>
		<g>
			<g>
				<path style="fill:#407BFF;" d="M190.584,242.153l1.464-3.022c0.514,0.073,1.027,0.142,1.537,0.205l-0.887,3.12
					C191.998,242.365,191.292,242.262,190.584,242.153z"/>
				<path style="fill:#407BFF;" d="M212.801,239.854c4.173-0.255,7.555-0.688,9.726-1.021l1.078,3.085
					c-2.242,0.368-6.025,0.888-10.805,1.172V239.854z"/>
				<path style="fill:#407BFF;" d="M195.931,239.593c5.225,0.51,10.171,0.555,14.463,0.383v3.234
					c-1.399,0.054-2.86,0.087-4.384,0.087c-3.389,0-7.061-0.158-10.884-0.556L195.931,239.593z"/>
			</g>
			<g style="opacity:0.5;">
				<path style="fill:#FFFFFF;" d="M190.584,242.153l1.464-3.022c0.514,0.073,1.027,0.142,1.537,0.205l-0.887,3.12
					C191.998,242.365,191.292,242.262,190.584,242.153z"/>
				<path style="fill:#FFFFFF;" d="M212.801,239.854c4.173-0.255,7.555-0.688,9.726-1.021l1.078,3.085
					c-2.242,0.368-6.025,0.888-10.805,1.172V239.854z"/>
				<path style="fill:#FFFFFF;" d="M195.126,242.74l0.805-3.148c5.225,0.51,10.171,0.555,14.463,0.383v3.234
					c-1.399,0.054-2.86,0.087-4.384,0.087"/>
			</g>
		</g>
		<g>
			<path style="fill:#407BFF;" d="M212.978,401.131c-0.075-0.015-0.134-0.072-0.151-0.147c-0.015-0.076,0.019-0.152,0.085-0.192
				c0.117-0.07,2.783-1.658,4.078-1.327c0.241,0.058,0.451,0.208,0.584,0.418c0.178,0.232,0.189,0.551,0.029,0.795
				c-0.311,0.418-1.299,0.612-2.259,0.63C214.551,401.318,213.76,401.259,212.978,401.131z M213.565,400.875
				c1.44,0.152,3.387,0.104,3.736-0.405c0.051-0.063,0.096-0.174-0.044-0.399c-0.077-0.134-0.211-0.226-0.363-0.249
				c-0.115-0.03-0.232-0.043-0.351-0.039C215.491,399.956,214.48,400.327,213.565,400.875z"/>
			<path style="fill:#407BFF;" d="M212.881,401.122c-0.056-0.035-0.089-0.098-0.085-0.164c0.009-0.097,0.176-2.183,1.145-3.009
				c0.278-0.244,0.644-0.363,1.012-0.331c0.505,0.041,0.667,0.293,0.689,0.502c0.18,0.865-1.645,2.573-2.56,3
				c-0.023,0.012-0.051,0.015-0.076,0.008C212.965,401.142,212.92,401.14,212.881,401.122z M214.837,397.967
				c-0.232,0.002-0.455,0.087-0.628,0.241c-0.564,0.676-0.907,1.509-0.982,2.386c0.947-0.583,2.139-1.915,2.082-2.438
				c-0.014-0.047-0.038-0.179-0.368-0.201L214.837,397.967L214.837,397.967z"/>
			<path style="fill:#263238;" d="M212.169,400.065l-8.428,0.154c-0.318,0.006-0.589,0.231-0.653,0.542l-1.398,6.884
				c-0.129,0.61,0.262,1.208,0.871,1.337c0.078,0.017,0.158,0.025,0.238,0.024c3.037-0.108,5.736-0.324,9.518-0.388
				c4.464-0.08,3.341,0.475,8.59,0.454c3.163-0.016,3.676-3.621,2.332-3.773c-6.15-0.66-6.821-2.501-9.229-4.655
				C213.489,400.232,212.834,400.026,212.169,400.065z"/>
		</g>
		<g>
			<path style="fill:#263238;" d="M203.247,158.783c-0.176-0.618,0.008-1.212,0.412-1.328c0.404-0.115,0.874,0.292,1.051,0.91
				c0.176,0.618-0.008,1.212-0.411,1.327C203.894,159.808,203.424,159.401,203.247,158.783z"/>
			<path style="fill:#DE5753;" d="M203.18,159.721l4.718,3.025c0,0-0.936,1.709-3.259,1.917L203.18,159.721z"/>
			<path style="fill:#263238;" d="M201.749,157.637c0.12-0.037,0.215-0.129,0.256-0.248c0.253-0.924,0.936-1.67,1.835-2.002
				c0.196-0.059,0.309-0.264,0.253-0.461c-0.059-0.198-0.265-0.314-0.465-0.262c-1.141,0.402-2.016,1.333-2.346,2.497
				c-0.07,0.19,0.026,0.401,0.216,0.471c0.006,0.002,0.012,0.004,0.018,0.006C201.591,157.667,201.674,157.666,201.749,157.637z"/>
			<path style="fill:#E4897B;" d="M182.116,165.495c3.166,7.472,4.346,10.709,9.588,13.266c7.304,1.91,16.385-1.675,15.511-9.948
				c-0.782-7.444-5.816-18.385-14.388-18.825c-6.11-0.311-11.316,4.39-11.627,10.501
				C181.113,162.206,181.426,163.92,182.116,165.495z"/>
			<path style="opacity:0.2;" d="M199.528,175.249c0,0,5.433,1.105,7.581-3.64c-0.73,3.807-3.896,6.236-7.71,7.188l-1.309-0.914
				l0.708-1.933L199.528,175.249z"/>
			<path style="fill:#E4897B;" d="M189.65,187.645c0,0,4.696-2.299,1.311-11.251c0,0,3.749-3.72,7.647-2.142
				c3.898,1.578,0.626,9.824,5.213,11.095C203.822,185.347,201.426,188.664,189.65,187.645z"/>
			<path style="fill:#263238;" d="M198.831,163.578c0,0-1.662-1.538-3.252-3.828c-1.59-2.29,2.118-4.953,1.494-9.195
				c-0.624-4.241-5.051-1.657-5.051-1.657s-10.602-1.2-12.034,9.808c0,0-3.632,5.098-1.351,11.43
				c2.129,5.91,8.386,9.527,14.568,8.411c0.241-0.043,0.472-0.096,0.691-0.16c2.846-0.826,4.701-3.579,4.762-6.541L198.831,163.578z
				"/>
			<path style="fill:#263238;" d="M191.953,178.697c0,0-2.786,0.937-1.708,2.05C191.324,181.86,191.953,178.697,191.953,178.697z"/>
			<path style="fill:#407BFF;" d="M182.842,161.216c-0.177-2.51-0.827-4.51-3.337-4.333c-2.51,0.177-2.659,2.233-2.482,4.743
				c0.177,2.51,0.613,4.525,3.123,4.348C182.656,165.797,183.019,163.727,182.842,161.216z"/>
			<path style="fill:#E4897B;" d="M196.591,163.097c1.538,0.619,2.766,1.826,3.411,3.353c0.842,2.032-0.913,3.33-2.965,3.002
				c-1.859-0.296-4.517-1.715-4.487-3.874C192.581,163.418,194.702,162.361,196.591,163.097z"/>
			<path style="fill:#263238;" d="M170.304,162.1c0.262,3.715,3.486,6.514,7.2,6.252c3.715-0.262,3.935-3.304,3.673-7.019
				c-0.262-3.715-0.907-6.696-4.622-6.434C172.842,155.161,170.042,158.385,170.304,162.1z"/>
			<g>
				<path style="fill:#263238;" d="M195.845,147.335c-0.696,1.047-1.392,2.46-0.638,3.465c0.435,0.579,1.215,0.783,1.734,1.288
					c0.574,0.559,0.75,1.401,0.881,2.191c0.477,2.877,0.724,5.792,0.738,8.708c2.038-3.457,4.137-7.114,4.218-11.126
					c0.024-1.193-0.144-2.418-0.712-3.467c-0.568-1.049-1.583-1.901-2.765-2.062C198.119,146.171,195.845,147.335,195.845,147.335z"
					/>
			</g>
		</g>
		<g>
			<g>
				<path style="fill:#407BFF;" d="M206.813,185.825c0,0,0.457-5.728-10.619-3.413c-11.076,2.316-3.641,5.484-3.641,5.484
					L206.813,185.825z"/>
				<path style="opacity:0.5;fill:#FFFFFF;" d="M206.813,185.825c0,0,0.457-5.728-10.619-3.413
					c-11.076,2.316-3.641,5.484-3.641,5.484L206.813,185.825z"/>
			</g>
			<path style="fill:#FFFFFF;" d="M222.805,236.247c-12.393,2.415-26.613,1.421-31.827,0.93
				c-1.175-0.117,0.972-13.975-11.517-39.146c-1.207-2.415-0.791-5.374,1.293-7.094c8.515-7.051,23.975-6.774,31.101-6.207
				c2.51,0.203,4.818,1.507,6.175,3.622c2.382,3.686,3.932,8.483,4.914,13.601c0.865,4.53,1.282,9.316,1.421,13.825
				C224.697,226.76,223.372,236.14,222.805,236.247z"/>
		</g>
		<path style="opacity:0.2;" d="M224.365,215.777c-3.964-0.758-9.616-15.502-9.616-15.502l8.194,1.677
			C223.81,206.482,224.226,211.268,224.365,215.777z"/>
		<g>
			<path style="fill:#E4897B;" d="M222.018,192.391l11.9,7.593c0.902,0.576,2.103,0.272,2.623-0.663l9.637-17.328l3.501-8.993
				l0.972-1.091l5.974-5.079h2.306l-4.463,3.98l1.238,2.123l1.987,4.552l-7.957,7.027c0,0-4.612,20.769-9.562,25.201
				c-3.932,3.521-23.71-10.462-23.71-10.462L222.018,192.391z"/>
			<path style="fill:#FFFFFF;" d="M213.79,185.148c3.088,0.944,9.886,4.023,20.548,14.057l-7.835,10.506
				c0,0-7.835-1.246-11.752-9.437c-2.71-5.667-3.058-10.932-3.014-13.638C211.753,185.575,212.776,184.839,213.79,185.148z"/>
			<g>
				<polygon style="fill:#407BFF;" points="233.109,197.07 224.237,209.881 227.207,210.501 235.582,199.067 				"/>
				<polygon style="opacity:0.5;fill:#FFFFFF;" points="233.109,197.07 224.237,209.881 227.207,210.501 235.582,199.067 				"/>
			</g>
		</g>
		<g>
			<polygon style="fill:#263238;" points="212.891,393.218 202.185,393.218 202.783,396.328 212.225,396.328 			"/>
			<polygon style="opacity:0.4;" points="212.891,393.218 202.185,393.218 202.783,396.328 212.225,396.328 			"/>
		</g>
	</g>
</g>
</svg>
